<?xml version="1.0" standalone="no"?><!DOCTYPE svg PUBLIC "-//W3C//DTD SVG 1.1//EN" "http://www.w3.org/Graphics/SVG/1.1/DTD/svg11.dtd"><svg height="1080" node-id="1" sillyvg="true" template-height="1080" template-width="1080" version="1.1" viewBox="0 0 1080 1080" width="1080" xmlns="http://www.w3.org/2000/svg" xmlns:xlink="http://www.w3.org/1999/xlink"><defs node-id="67"></defs><path d="M 976.38 720.79 C 976.38 735.05 964.82 746.62 950.55 746.62 L 198.57 746.62 C 184.31 746.62 172.74 735.06 172.74 720.79 L 172.74 720.79 C 172.74 706.53 184.30 694.96 198.57 694.96 L 950.56 694.96 C 964.81 694.97 976.38 706.53 976.38 720.79 L 976.38 720.79 Z" fill="#f2f2f2" fill-rule="nonzero" node-id="69" stroke="none" target-height="51.659973" target-width="803.64" target-x="172.74" target-y="694.96"></path><g node-id="216"><g node-id="223"><g node-id="229"><path d="M 198.23 589.48 C 203.87 590.92 208.19 595.56 210.94 601.03 C 213.68 606.49 215.04 612.78 216.41 618.99 C 217.28 622.99 218.27 627.19 220.93 629.90 C 224.15 633.16 229.20 633.56 233.86 632.63 C 238.53 631.71 243.06 629.64 247.70 628.46 C 262.15 624.79 277.49 630.95 283.97 644.27 C 288.89 654.38 287.95 668.18 282.01 678.93 C 277.25 690.27 267.01 699.58 256.03 701.98 C 241.55 705.17 227.21 696.95 221.13 683.33 C 219.18 678.96 217.99 674.11 215.82 669.88 C 213.66 665.65 210.21 661.95 205.65 661.45 C 201.88 661.03 197.97 662.86 194.29 664.66 C 188.56 667.45 182.78 670.28 176.80 671.52 C 170.81 672.76 164.48 672.24 159.86 668.70 C 156.20 665.90 153.90 661.49 151.70 657.20 C 148.22 650.45 144.74 643.68 141.26 636.92 C 139.84 634.14 138.34 631.30 135.94 629.56 C 129.57 624.92 120.41 629.77 112.32 631.38 C 98.67 634.07 85.07 625.85 80.73 612.26 C 77.82 603.17 79.22 592.23 83.86 583.00 C 88.20 573.65 95.92 565.76 104.86 562.41 C 118.20 557.40 133.09 562.97 139.45 575.35 C 143.22 582.69 145.09 592.88 152.67 595.01 C 155.53 595.82 158.69 595.21 161.75 594.61 C 169.21 593.14 176.67 591.69 184.13 590.22 C 188.88 589.27 193.77 588.34 198.23 589.48 Z" fill="#2a94f4" fill-opacity="0.4" fill-rule="nonzero" group-id="1,8,14" node-id="77" stroke="none" target-height="147.76996" target-width="211.07" target-x="77.82" target-y="557.4"></path></g><path d="M 202.88 617.43 C 202.51 616.78 201.39 617.03 201.76 617.68 C 207.19 627.26 211.60 637.09 214.90 647.08 C 215.00 647.40 215.33 647.56 215.62 647.59 C 215.58 647.60 215.54 647.62 215.49 647.63 C 206.70 643.35 197.92 639.07 189.13 634.79 C 189.12 634.78 189.11 634.78 189.10 634.78 C 185.04 626.56 180.98 618.34 176.91 610.13 C 176.58 609.47 175.46 609.72 175.79 610.38 C 179.68 618.25 183.57 626.12 187.46 633.98 C 177.20 628.98 166.93 623.98 156.67 618.98 C 154.43 613.23 152.19 607.48 149.95 601.73 C 149.69 601.05 148.57 601.31 148.83 601.98 C 150.94 607.40 153.06 612.83 155.17 618.25 L 149.14 615.31 C 136.20 609.01 123.27 602.70 110.33 596.40 C 109.59 596.04 109.15 596.95 109.89 597.31 L 156.00 619.78 C 149.67 621.97 143.03 623.54 136.07 624.47 C 135.32 624.57 135.83 625.60 136.57 625.50 C 143.74 624.55 150.59 622.92 157.09 620.62 C 157.21 620.58 157.28 620.51 157.33 620.43 L 187.35 635.06 C 178.42 637.36 169.49 639.66 160.56 641.95 C 159.85 642.13 160.35 643.17 161.06 642.98 C 170.34 640.59 179.63 638.20 188.91 635.81 L 214.05 648.06 C 205.39 650.65 196.73 653.24 188.07 655.83 C 187.38 656.04 187.87 657.07 188.57 656.86 C 197.56 654.17 206.56 651.48 215.55 648.79 C 225.60 653.69 235.66 658.59 245.71 663.48 C 247.56 664.38 249.40 665.28 251.25 666.18 C 242.63 668.13 234.01 670.09 225.38 672.04 C 224.66 672.20 225.16 673.24 225.88 673.07 L 252.85 666.96 C 263.41 672.10 273.96 677.24 284.52 682.39 C 285.26 682.75 285.70 681.84 284.96 681.48 C 274.83 676.55 264.71 671.61 254.58 666.68 C 254.58 666.61 254.57 666.52 254.53 666.43 C 250.18 657.41 245.83 648.38 241.47 639.36 C 241.15 638.69 240.03 638.94 240.35 639.61 C 244.56 648.33 248.77 657.06 252.97 665.78 C 252.97 665.78 252.96 665.78 252.96 665.78 C 252.91 665.79 252.86 665.80 252.81 665.81 L 216.82 648.27 C 217.05 647.91 216.63 647.26 216.06 647.43 C 216.05 647.43 216.04 647.44 216.03 647.44 C 216.10 647.36 216.13 647.24 216.08 647.08 C 212.77 637.01 208.36 627.10 202.88 617.43 Z" fill="#f2f2f2" fill-rule="nonzero" group-id="1,8" node-id="80" stroke="none" target-height="86.71002" target-width="176.55002" target-x="109.15" target-y="596.04"></path></g><g node-id="224"><g node-id="230"><path d="M 302.38 621.60 C 304.39 635.57 297.07 646.26 288.24 653.88 L 276.75 664.89 C 268.76 673.40 257.77 680.25 243.90 677.65 C 233.95 675.79 223.59 669.01 216.08 660.19 C 208.55 651.38 203.80 640.72 202.14 630.66 C 201.54 627.06 201.19 623.22 198.71 619.93 C 197.11 617.80 194.84 616.23 192.58 614.98 C 185.00 610.79 176.14 608.91 170.38 602.02 C 165.85 596.58 164.88 589.73 165.23 583.93 C 165.59 578.14 166.97 572.64 166.01 566.49 C 165.61 563.89 164.76 561.15 163.13 558.67 C 156.03 547.80 140.09 548.36 131.42 538.44 C 127.34 533.78 125.91 527.82 125.74 522.61 C 125.57 517.38 126.44 512.49 125.97 507.19 C 125.45 501.32 123.15 495.10 119.58 489.40 C 125.13 493.20 131.26 495.75 137.09 496.53 C 142.36 497.22 147.29 496.56 152.50 496.96 C 157.70 497.35 163.59 499.03 168.08 503.31 C 177.62 512.39 176.38 528.30 186.93 535.86 C 189.35 537.59 192.04 538.55 194.62 539.07 C 200.73 540.29 206.28 539.14 212.09 539.02 C 217.90 538.92 224.70 540.17 229.94 544.94 C 236.59 550.98 238.09 559.92 241.95 567.66 C 243.10 569.97 244.57 572.31 246.63 573.99 C 249.82 576.61 253.64 577.12 257.21 577.87 C 267.19 579.96 277.64 585.16 286.12 593.06 C 294.61 600.94 300.94 611.58 302.38 621.60 Z" fill="#2a94f4" fill-rule="nonzero" group-id="1,9,15" node-id="87" stroke="none" target-height="190.85" target-width="184.81001" target-x="119.58" target-y="489.4"></path></g><path d="M 267.66 589.72 C 263.18 606.36 259.75 623.24 257.35 640.30 C 249.30 631.34 241.25 622.38 233.20 613.42 C 233.22 613.38 233.24 613.34 233.25 613.29 C 235.23 600.13 237.21 586.98 239.19 573.82 C 239.31 573.02 238.09 572.66 237.97 573.47 C 236.02 586.39 234.08 599.31 232.13 612.23 C 225.60 604.96 219.08 597.70 212.55 590.43 C 212.81 590.38 213.06 590.19 213.09 589.86 C 214.39 577.85 215.46 565.81 216.29 553.76 C 216.35 552.94 215.08 552.92 215.02 553.73 C 214.19 565.72 213.13 577.69 211.84 589.64 C 204.81 581.81 197.78 573.98 190.75 566.15 C 190.75 566.12 190.76 566.11 190.76 566.08 C 190.39 558.14 190.01 550.21 189.64 542.27 C 189.60 541.46 188.33 541.42 188.37 542.24 C 188.72 549.72 189.07 557.19 189.42 564.67 L 171.33 544.53 C 171.36 544.46 171.38 544.39 171.39 544.31 C 171.78 538.21 172.16 532.10 172.55 526.00 C 172.60 525.18 171.33 525.16 171.28 525.97 C 170.91 531.73 170.55 537.49 170.18 543.26 C 169.00 541.94 167.82 540.63 166.63 539.31 C 164.52 536.96 162.41 534.61 160.30 532.26 C 160.47 532.13 160.59 531.92 160.53 531.64 C 158.54 521.90 156.55 512.16 154.56 502.42 C 154.40 501.62 153.16 501.92 153.32 502.72 C 155.24 512.12 157.16 521.51 159.08 530.91 C 149.71 520.48 140.34 510.05 130.98 499.62 C 130.43 499.01 129.52 499.89 130.06 500.50 C 139.18 510.66 148.30 520.81 157.42 530.97 C 149.74 529.65 142.06 528.33 134.38 527.02 C 133.58 526.88 133.22 528.10 134.03 528.24 C 142.23 529.65 150.43 531.06 158.63 532.46 C 158.67 532.47 158.71 532.46 158.75 532.46 L 168.53 543.35 C 163.84 543.36 159.14 543.37 154.45 543.39 C 153.63 543.39 153.60 544.66 154.42 544.66 C 159.50 544.65 164.58 544.63 169.67 544.62 L 187.79 564.80 C 181.59 563.92 175.53 562.46 169.62 560.37 C 168.85 560.10 168.50 561.32 169.27 561.59 C 175.72 563.86 182.34 565.40 189.12 566.27 L 210.90 590.52 C 198.65 590.73 186.39 590.94 174.14 591.16 C 173.32 591.17 173.29 592.45 174.11 592.43 C 186.72 592.21 199.33 591.99 211.94 591.78 C 211.97 591.78 211.98 591.77 212.01 591.77 L 231.41 613.37 C 221.52 614.56 211.63 615.74 201.73 616.93 C 200.92 617.03 201.22 618.26 202.03 618.17 C 212.17 616.96 222.30 615.74 232.44 614.53 L 254.84 639.47 C 255.17 639.84 255.51 640.21 255.84 640.58 C 240.20 640.12 224.55 639.65 208.91 639.19 C 208.09 639.17 208.06 640.44 208.88 640.46 C 224.92 640.93 240.97 641.41 257.01 641.88 C 268.17 654.31 279.33 666.73 290.49 679.16 C 291.04 679.77 291.95 678.89 291.41 678.28 C 280.37 665.98 269.32 653.69 258.28 641.39 C 258.39 641.29 258.48 641.16 258.50 640.98 C 260.89 623.81 264.35 606.82 268.85 590.09 C 269.10 589.28 267.87 588.93 267.66 589.72 Z" fill="#f2f2f2" fill-rule="nonzero" group-id="1,9" node-id="90" stroke="none" target-height="180.76001" target-width="162.43001" target-x="129.52" target-y="499.01"></path></g><g node-id="225"><g node-id="231"><path d="M 302.66 636.96 C 296.87 649.83 284.96 654.93 273.42 656.63 L 257.82 659.76 C 246.52 662.66 233.56 662.55 223.25 652.92 C 215.85 646.02 210.74 634.74 209.12 623.27 C 207.49 611.79 209.19 600.25 213.18 590.86 C 214.60 587.50 216.37 584.07 216.04 579.96 C 215.83 577.31 214.76 574.76 213.52 572.50 C 209.37 564.90 202.89 558.56 201.73 549.66 C 200.82 542.64 203.67 536.34 207.08 531.63 C 210.49 526.93 214.60 523.03 217.09 517.33 C 218.14 514.92 218.89 512.15 218.85 509.19 C 218.68 496.21 204.92 488.14 202.92 475.12 C 201.97 469.00 203.96 463.20 206.61 458.71 C 209.26 454.21 212.63 450.54 215.07 445.82 C 217.77 440.59 219.17 434.10 219.22 427.38 C 221.87 433.57 225.67 439.00 230.18 442.79 C 234.26 446.20 238.78 448.28 242.96 451.41 C 247.15 454.53 251.21 459.11 252.71 465.12 C 255.90 477.90 246.32 490.66 251.17 502.70 C 252.28 505.45 254.04 507.71 255.94 509.53 C 260.44 513.83 265.75 515.84 270.71 518.86 C 275.67 521.89 280.74 526.60 282.60 533.43 C 284.98 542.09 281.45 550.44 280.56 559.05 C 280.29 561.62 280.28 564.38 281.12 566.91 C 282.41 570.83 285.36 573.31 287.97 575.86 C 295.27 582.97 301.30 592.97 304.23 604.18 C 307.17 615.36 306.81 627.74 302.66 636.96 Z" fill="#2a94f4" fill-opacity="0.4" fill-rule="nonzero" group-id="1,10,16" node-id="97" stroke="none" target-height="235.27997" target-width="106.350006" target-x="200.82" target-y="427.38"></path></g><path d="M 290.44 591.44 C 277.74 603.08 265.79 615.50 254.62 628.61 C 252.63 616.73 250.64 604.85 248.65 592.97 C 248.69 592.94 248.73 592.92 248.76 592.88 C 257.48 582.84 266.21 572.79 274.93 562.75 C 275.46 562.14 274.62 561.18 274.08 561.80 C 265.51 571.66 256.94 581.53 248.37 591.39 C 246.76 581.76 245.14 572.12 243.53 562.49 C 243.78 562.59 244.08 562.56 244.30 562.30 C 251.84 552.86 259.19 543.27 266.36 533.54 C 266.85 532.88 265.79 532.18 265.30 532.84 C 258.17 542.52 250.86 552.05 243.36 561.45 C 241.62 551.07 239.88 540.69 238.14 530.31 C 238.15 530.29 238.17 530.28 238.19 530.26 C 242.13 523.36 246.07 516.46 250.01 509.56 C 250.41 508.85 249.36 508.14 248.95 508.86 C 245.24 515.36 241.53 521.86 237.81 528.36 L 233.34 501.66 C 233.40 501.62 233.46 501.57 233.51 501.51 C 237.11 496.56 240.71 491.62 244.31 486.67 C 244.79 486.01 243.73 485.30 243.25 485.97 C 239.85 490.64 236.45 495.31 233.06 499.97 C 232.77 498.23 232.48 496.48 232.18 494.74 C 231.66 491.62 231.14 488.51 230.61 485.39 C 230.83 485.37 231.04 485.26 231.14 484.99 C 234.68 475.70 238.23 466.41 241.77 457.12 C 242.06 456.35 240.86 455.94 240.57 456.71 C 237.15 465.67 233.73 474.63 230.32 483.59 C 228.00 469.76 225.69 455.94 223.37 442.11 C 223.23 441.30 221.99 441.55 222.12 442.36 C 224.38 455.82 226.63 469.29 228.89 482.75 C 223.11 477.52 217.34 472.29 211.56 467.06 C 210.96 466.52 210.00 467.36 210.61 467.91 C 216.78 473.49 222.95 479.08 229.11 484.66 C 229.14 484.69 229.18 484.70 229.21 484.72 L 231.63 499.15 C 227.66 496.64 223.69 494.14 219.72 491.63 C 219.03 491.19 218.32 492.25 219.02 492.69 C 223.32 495.40 227.61 498.12 231.91 500.83 L 236.39 527.58 C 231.63 523.51 227.30 519.03 223.42 514.10 C 222.91 513.46 221.97 514.30 222.47 514.95 C 226.69 520.32 231.46 525.18 236.72 529.54 L 242.11 561.69 C 231.65 555.30 221.19 548.91 210.74 542.52 C 210.04 542.09 209.34 543.15 210.04 543.58 C 220.80 550.16 231.57 556.73 242.33 563.31 C 242.35 563.32 242.37 563.32 242.40 563.33 L 247.20 591.97 C 238.21 587.67 229.23 583.37 220.24 579.06 C 219.50 578.71 219.10 579.91 219.83 580.26 C 229.04 584.67 238.25 589.08 247.46 593.49 L 253.00 626.55 C 253.08 627.04 253.16 627.53 253.25 628.02 C 240.29 619.24 227.33 610.47 214.38 601.69 C 213.70 601.23 213.00 602.29 213.68 602.75 C 226.97 611.75 240.26 620.75 253.55 629.75 C 256.31 646.22 259.07 662.70 261.83 679.17 C 261.97 679.98 263.21 679.73 263.08 678.92 C 260.35 662.62 257.62 646.32 254.89 630.02 C 255.04 630.00 255.18 629.93 255.30 629.80 C 266.52 616.59 278.55 604.10 291.32 592.39 C 291.89 591.83 291.05 590.88 290.44 591.44 Z" fill="#f2f2f2" fill-rule="nonzero" group-id="1,10" node-id="100" stroke="none" target-height="238.68" target-width="82.55002" target-x="209.34" target-y="441.3"></path></g></g><g node-id="217"><g node-id="226"><g node-id="232"><g node-id="233"><g node-id="236"><path d="M 466.83 390.17 L 466.83 384.78 C 466.83 376.04 459.55 368.95 450.58 368.95 L 281.14 368.95 C 272.17 368.95 264.89 376.04 264.89 384.78 L 264.89 670.28 L 668.76 670.28 L 668.76 406.00 C 668.76 397.26 661.48 390.17 652.51 390.17 L 466.83 390.17 Z" fill="#2a94f4" fill-opacity="0.4" fill-rule="nonzero" group-id="2,11,17,18,21" node-id="110" stroke="none" target-height="301.33002" target-width="403.87" target-x="264.89" target-y="368.95"></path></g></g><g node-id="234"><path d="M 282.82 412.98 L 654.61 412.98 L 654.61 673.18 L 282.82 673.18 Z" fill="#f2f2f2" fill-rule="nonzero" group-id="2,11,17,19" node-id="115" stroke="none" target-height="260.19998" target-width="371.78998" target-x="282.82" target-y="412.98"></path></g><path d="M 461.07 445.52 L 455.07 461.72 L 281.14 461.72 C 272.17 461.72 264.89 468.81 264.89 477.55 L 264.89 679.13 C 264.89 687.87 272.17 694.96 281.14 694.96 L 652.51 694.96 C 661.48 694.96 668.76 687.87 668.76 679.13 L 668.76 450.89 C 668.76 442.15 661.48 435.06 652.51 435.06 L 476.36 435.06 C 469.51 435.06 463.39 439.24 461.07 445.52 Z" fill="#ffbe55" fill-rule="nonzero" group-id="2,11,17,20,22" node-id="121" stroke="none" target-height="259.90002" target-width="403.87" target-x="264.89" target-y="435.06"></path></g></g></g><path d="M 316.38 814.80 C 316.38 822.33 310.27 828.44 302.74 828.44 L 177.29 828.44 C 169.76 828.44 163.65 822.33 163.65 814.80 L 163.65 814.80 C 163.65 807.27 169.76 801.16 177.29 801.16 L 302.74 801.16 C 310.27 801.16 316.38 807.27 316.38 814.80 L 316.38 814.80 Z" fill="#f2f2f2" fill-rule="nonzero" node-id="128" stroke="none" target-height="27.28003" target-width="152.73001" target-x="163.65" target-y="801.16"></path><path d="M 680.01 801.62 C 680.01 808.90 674.11 814.80 666.83 814.80 L 583.47 814.80 C 576.19 814.80 570.29 808.90 570.29 801.62 L 570.29 801.62 C 570.29 794.34 576.19 788.44 583.47 788.44 L 666.83 788.44 C 674.11 788.43 680.01 794.34 680.01 801.62 L 680.01 801.62 Z" fill="#f2f2f2" fill-rule="nonzero" node-id="130" stroke="none" target-height="26.369995" target-width="109.72003" target-x="570.29" target-y="788.43"></path><path d="M 930.15 816.16 C 930.15 822.94 924.66 828.43 917.88 828.43 L 776.96 828.43 C 770.18 828.43 764.69 822.94 764.69 816.16 L 764.69 816.16 C 764.69 809.38 770.18 803.89 776.96 803.89 L 917.87 803.89 C 924.65 803.89 930.15 809.38 930.15 816.16 L 930.15 816.16 Z" fill="#f2f2f2" fill-rule="nonzero" node-id="132" stroke="none" target-height="24.539978" target-width="165.46002" target-x="764.69" target-y="803.89"></path><path d="M 481.83 840.25 C 481.83 846.78 476.54 852.07 470.01 852.07 L 417.28 852.07 C 410.75 852.07 405.46 846.78 405.46 840.25 L 405.46 840.25 C 405.46 833.72 410.75 828.43 417.28 828.43 L 470.01 828.43 C 476.54 828.43 481.83 833.73 481.83 840.25 L 481.83 840.25 Z" fill="#f2f2f2" fill-rule="nonzero" node-id="134" stroke="none" target-height="23.640015" target-width="76.369995" target-x="405.46" target-y="828.43"></path><path d="M 293.96 335.81 L 476.96 335.81 C 476.96 335.81 486.03 317.14 443.83 319.14 C 443.83 319.14 465.38 276.47 429.17 278.47 C 429.17 278.47 427.63 238.47 380.96 240.47 C 334.29 242.47 347.43 285.14 347.43 285.14 C 347.43 285.14 298.30 283.14 317.63 321.14 C 317.63 321.14 258.96 329.14 293.96 335.81 Z" fill="#2a94f4" fill-opacity="0.1" fill-rule="nonzero" group-id="3" node-id="138" stroke="none" target-height="97.34" target-width="227.07" target-x="258.96" target-y="238.47"></path><path d="M 815.18 443.77 L 945.44 443.77 C 945.44 443.77 951.90 430.48 921.86 431.91 C 921.86 431.91 937.20 401.54 911.42 402.96 C 911.42 402.96 910.32 374.49 877.11 375.91 C 843.89 377.33 853.24 407.70 853.24 407.70 C 853.24 407.70 818.27 406.28 832.03 433.32 C 832.03 433.33 790.27 439.02 815.18 443.77 Z" fill="#2a94f4" fill-opacity="0.1" fill-rule="nonzero" group-id="4" node-id="143" stroke="none" target-height="69.28" target-width="161.63" target-x="790.27" target-y="374.49"></path><path d="M 902.02 683.22 C 902.02 687.63 898.45 691.20 894.04 691.20 L 863.27 691.20 C 858.86 691.20 855.29 687.63 855.29 683.22 L 855.29 611.43 C 855.29 607.02 858.86 603.45 863.27 603.45 L 894.04 603.45 C 898.45 603.45 902.02 607.02 902.02 611.43 L 902.02 683.22 Z" fill="#2a94f4" fill-rule="nonzero" node-id="146" stroke="none" target-height="87.75" target-width="46.73004" target-x="855.29" target-y="603.45"></path><path d="M 882.35 520.83 C 882.35 520.83 857.16 572.03 894.27 580.74 C 931.38 589.45 932.45 550.84 928.65 534.93 C 924.85 519.01 983.73 476.23 935.17 438.38 C 886.60 400.52 848.75 501.30 882.35 520.83 Z" fill="#2a94f4" fill-opacity="0.4" fill-rule="nonzero" group-id="5" node-id="150" stroke="none" target-height="188.93002" target-width="134.97998" target-x="848.75" target-y="400.52"></path><path d="M 835.45 548.62 C 835.45 548.62 834.26 582.31 856.38 578.03 C 878.49 573.75 869.72 552.68 863.82 545.02 C 857.92 537.36 879.30 500.05 843.97 491.40 C 808.64 482.75 812.62 546.22 835.45 548.62 Z" fill="#2a94f4" fill-opacity="0.4" fill-rule="nonzero" group-id="6" node-id="155" stroke="none" target-height="99.56" target-width="70.65997" target-x="808.64" target-y="482.75"></path><path d="M 839.22 516.86 L 866.57 603.46" fill="none" node-id="158" stroke="#4d4d4d" stroke-linecap="butt" stroke-width="1" target-height="86.60004" target-width="27.350037" target-x="839.22" target-y="516.86"></path><path d="M 855.18 534.49 L 849.38 549.03 L 836.19 541.76" fill="none" node-id="160" stroke="#4d4d4d" stroke-linecap="butt" stroke-width="1" target-height="14.540039" target-width="18.98999" target-x="836.19" target-y="534.49"></path><path d="M 912.01 467.86 L 888.55 603.46" fill="none" node-id="162" stroke="#4d4d4d" stroke-linecap="butt" stroke-width="1" target-height="135.60004" target-width="23.460022" target-x="888.55" target-y="467.86"></path><path d="M 925.77 488.37 L 906.34 500.65 L 893.87 483.81" fill="none" node-id="164" stroke="#4d4d4d" stroke-linecap="butt" stroke-width="1" target-height="16.839996" target-width="31.900024" target-x="893.87" target-y="483.81"></path><path d="M 920.46 516.81 L 901.02 529.08 L 888.55 512.25" fill="none" node-id="166" stroke="#4d4d4d" stroke-linecap="butt" stroke-width="1" target-height="16.830017" target-width="31.910034" target-x="888.55" target-y="512.25"></path><path d="M 689.31 390.22 C 689.33 390.19 689.35 390.17 689.37 390.14 C 691.97 386.34 694.37 382.37 696.59 378.30 C 698.79 374.33 701.03 369.91 702.60 366.16 L 702.68 365.97 C 702.81 365.67 702.95 365.37 703.10 365.08 C 706.02 359.54 712.88 357.41 718.42 360.33 C 723.96 363.25 726.09 370.11 723.17 375.65 C 720.43 380.85 717.78 385.10 714.76 389.58 C 712.71 392.53 710.53 395.40 708.29 398.22 C 706.62 396.43 693.31 391.66 689.31 390.22 Z" fill="#ffbe55" fill-rule="nonzero" group-id="7" node-id="170" stroke="none" target-height="40.809998" target-width="36.78003" target-x="689.31" target-y="357.41"></path><path d="M 700.42 469.00 C 710.29 480.32 767.25 485.05 767.25 485.05 C 771.45 480.17 765.31 457.99 763.83 435.48 C 762.23 411.14 761.30 384.27 760.88 369.76 C 760.71 363.77 755.80 359.02 749.81 359.02 L 713.66 359.02 C 708.09 359.02 703.45 363.27 702.99 368.82 C 702.04 380.31 700.39 400.29 698.76 419.87 C 697.11 439.75 691.89 459.22 700.42 469.00 Z" fill="#ffe3ca" fill-rule="nonzero" group-id="7" node-id="172" stroke="none" target-height="126.03" target-width="79.56" target-x="691.89" target-y="359.02"></path><path d="M 733.28 658.24 L 733.20 680.64 L 735.15 691.55 C 735.49 693.44 734.09 695.19 732.17 695.25 C 723.00 695.53 699.51 696.15 698.88 695.13 C 695.93 690.35 709.28 688.52 719.04 684.73 C 728.81 680.95 722.07 643.87 722.07 643.87 L 733.28 658.24 Z" fill="#ffe3ca" fill-rule="nonzero" group-id="7" node-id="174" stroke="none" target-height="52.28003" target-width="39.559998" target-x="695.93" target-y="643.87"></path><path d="M 719.04 684.74 C 719.09 684.72 719.14 684.68 719.19 684.66 C 721.52 685.53 724.14 686.04 727.09 686.04 C 729.62 686.04 731.91 685.67 733.99 685.03 L 735.15 691.56 C 735.49 693.45 734.09 695.20 732.17 695.26 C 723.00 695.54 699.51 696.16 698.88 695.14 C 695.93 690.36 709.27 688.52 719.04 684.74 Z" fill="#ffbe55" fill-rule="nonzero" group-id="7" node-id="176" stroke="none" target-height="11.5" target-width="39.559998" target-x="695.93" target-y="684.66"></path><path d="M 735.01 571.29 C 736.21 579.86 736.40 634.78 734.48 662.68 L 723.47 662.68 C 717.56 635.62 711.23 583.16 710.06 574.78 C 710.04 574.67 710.04 574.57 710.02 574.46 C 703.44 545.34 700.17 488.65 700.43 477.16 C 700.78 461.59 710.88 449.19 722.98 449.46 C 735.08 449.73 744.60 462.58 744.25 478.15 C 744.02 487.94 734.45 567.23 735.01 571.29 Z" fill="#0b4870" fill-rule="nonzero" group-id="7" node-id="178" stroke="none" target-height="213.48999" target-width="44.429993" target-x="700.17" target-y="449.19"></path><path d="M 759.71 658.24 L 759.63 680.64 L 761.58 691.55 C 761.92 693.44 760.52 695.19 758.60 695.25 C 749.43 695.53 725.94 696.15 725.31 695.13 C 722.36 690.35 735.71 688.52 745.47 684.73 C 755.24 680.95 748.50 643.87 748.50 643.87 L 759.71 658.24 Z" fill="#ffe3ca" fill-rule="nonzero" group-id="7" node-id="180" stroke="none" target-height="52.28003" target-width="39.559998" target-x="722.36" target-y="643.87"></path><path d="M 745.47 684.74 C 745.52 684.72 745.57 684.68 745.62 684.66 C 747.95 685.53 750.57 686.04 753.52 686.04 C 756.05 686.04 758.34 685.67 760.42 685.03 L 761.58 691.56 C 761.92 693.45 760.52 695.20 758.60 695.26 C 749.43 695.54 725.94 696.16 725.31 695.14 C 722.36 690.36 735.71 688.52 745.47 684.74 Z" fill="#ffbe55" fill-rule="nonzero" group-id="7" node-id="182" stroke="none" target-height="11.5" target-width="39.559998" target-x="722.36" target-y="684.66"></path><path d="M 761.45 571.29 C 762.65 579.86 762.84 634.78 760.92 662.68 L 749.90 662.68 C 743.99 635.62 737.66 583.16 736.49 574.78 C 736.48 574.67 736.47 574.57 736.46 574.46 C 729.88 545.34 724.00 488.28 724.26 476.80 C 724.61 461.23 737.32 449.19 749.42 449.46 C 761.52 449.73 768.42 462.22 768.07 477.79 C 767.84 487.58 760.88 567.23 761.45 571.29 Z" fill="#0b4870" fill-rule="nonzero" group-id="7" node-id="184" stroke="none" target-height="213.48999" target-width="44.419983" target-x="724" target-y="449.19"></path><path d="M 713.32 359.02 L 719.19 359.02 C 721.24 363.75 725.56 367.41 732.28 367.41 C 739.01 367.41 743.33 363.75 745.37 359.02 L 750.73 359.02 C 756.21 359.02 760.70 363.35 760.85 368.83 C 761.26 383.10 762.19 410.61 763.83 435.48 C 765.31 457.99 771.46 478.91 767.25 485.05 C 767.25 485.05 710.29 480.32 700.42 469.00 C 691.89 459.21 697.11 439.75 698.77 419.88 C 700.41 400.11 702.08 379.93 703.02 368.49 C 703.46 363.13 707.94 359.02 713.32 359.02 Z" fill="#ffbe55" fill-rule="nonzero" group-id="7" node-id="186" stroke="none" target-height="126.03" target-width="79.57001" target-x="691.89" target-y="359.02"></path><path d="M 733.83 345.87 L 734.51 346.02 C 739.67 347.17 744.78 343.91 745.93 338.75 L 749.00 324.94 L 738.98 322.71 L 733.83 345.87 Z" fill="#0b4870" fill-rule="nonzero" group-id="7" node-id="188" stroke="none" target-height="24.460022" target-width="15.169983" target-x="733.83" target-y="322.71"></path><path d="M 724.88 359.02 L 743.78 359.02 L 738.33 340.18 L 725.45 341.77 Z" fill="#ffe3ca" fill-rule="nonzero" group-id="7,12" node-id="192" stroke="none" target-height="18.839996" target-width="18.900024" target-x="724.88" target-y="340.18"></path><path d="M 725.45 341.77 L 738.33 340.18 L 740.87 348.96 C 737.99 352.21 733.71 357.26 729.02 357.26 C 727.53 357.26 726.18 356.84 724.96 356.07 L 725.45 341.77 Z" fill="#fcd2b1" fill-rule="nonzero" group-id="7" node-id="195" stroke="none" target-height="17.080017" target-width="15.909973" target-x="724.96" target-y="340.18"></path><path d="M 723.50 351.79 L 723.50 351.79 C 731.99 353.68 740.40 348.33 742.28 339.84 L 746.09 322.72 L 719.74 316.86 C 719.74 316.86 716.77 330.22 716.68 339.67 C 716.61 346.76 719.17 350.83 723.50 351.79 Z" fill="#ffe3ca" fill-rule="nonzero" group-id="7" node-id="197" stroke="none" target-height="36.820007" target-width="29.480042" target-x="716.61" target-y="316.86"></path><path d="M 738.53 335.61 C 737.79 338.95 738.78 342.01 740.76 342.45 C 742.73 342.89 745.88 338.99 746.62 335.65 C 747.36 332.31 745.42 330.79 743.45 330.35 C 741.48 329.91 739.28 332.27 738.53 335.61 Z" fill="#ffe3ca" fill-rule="nonzero" group-id="7" node-id="199" stroke="none" target-height="12.980011" target-width="9.570007" target-x="737.79" target-y="329.91"></path><path d="M 716.34 323.49 C 716.20 321.22 716.57 318.95 717.42 316.84 L 717.42 316.84 C 719.54 311.61 725.39 309.36 730.72 311.22 C 731.26 311.41 731.84 311.57 732.45 311.71 L 741.35 313.68 C 746.70 314.87 750.07 320.16 748.88 325.51 L 748.42 327.58 L 743.15 330.64 L 741.00 334.38 L 740.65 334.30 C 738.95 333.92 737.86 332.29 738.12 330.60 C 738.56 327.81 737.17 325.08 734.41 324.46 L 726.52 322.70 C 721.71 321.63 718.64 323.66 717.84 327.25 L 717.41 330.35 L 716.34 323.49 Z" fill="#0b4870" fill-rule="nonzero" group-id="7" node-id="201" stroke="none" target-height="25.02002" target-width="33.869995" target-x="716.2" target-y="309.36"></path><path d="M 742.96 317.25 C 743.56 322.13 726.01 328.32 721.39 328.89 C 716.76 329.46 712.52 325.97 711.92 321.08 C 711.32 316.20 714.58 311.78 719.21 311.20 C 723.84 310.62 742.35 312.37 742.96 317.25 Z" fill="#0b4870" fill-rule="nonzero" group-id="7" node-id="203" stroke="none" target-height="18.839996" target-width="32.23999" target-x="711.32" target-y="310.62"></path><path d="M 761.59 373.92 C 758.69 383.32 752.69 396.46 744.36 408.89 C 718.58 446.05 682.52 461.42 642.50 443.39 C 640.86 442.65 640.13 440.73 640.87 439.09 C 641.50 437.69 643.00 436.95 644.44 437.23 L 644.61 437.26 C 668.20 441.78 687.40 440.33 706.32 423.33 C 731.01 400.74 741.16 363.48 739.99 367.11 C 741.91 361.16 748.30 357.89 754.25 359.82 C 760.14 361.72 763.40 368.01 761.59 373.92 Z" fill="#ffe3ca" fill-rule="nonzero" group-id="7" node-id="205" stroke="none" target-height="103.53" target-width="123.27002" target-x="640.13" target-y="357.89"></path><path d="M 730.15 389.89 C 735.10 380.94 739.83 365.06 739.83 365.06 C 739.83 365.06 742.39 358.43 752.60 359.07 C 760.76 359.58 762.24 368.50 762.24 368.50 C 762.47 369.73 764.91 384.44 752.80 402.40 C 752.79 402.39 729.32 391.39 730.15 389.89 Z" fill="#ffbe55" fill-rule="nonzero" group-id="7,13" node-id="209" stroke="none" target-height="43.97" target-width="35.589966" target-x="729.32" target-y="358.43"></path><path d="M 647.10 437.84 C 643.78 435.91 639.81 426.47 638.48 426.93 C 637.53 427.26 638.51 430.65 639.14 432.53 C 639.21 432.75 639.15 432.99 638.98 433.15 C 638.81 433.31 638.57 433.35 638.35 433.27 C 634.85 431.84 625.03 427.93 624.46 428.82 C 623.89 429.73 629.60 433.21 631.53 434.35 C 631.59 434.38 631.61 434.46 631.59 434.52 C 631.57 434.58 631.50 434.62 631.44 434.61 C 628.96 434.27 620.89 433.29 621.23 434.79 C 621.55 436.22 628.88 437.96 631.72 438.58 C 631.79 438.60 631.84 438.66 631.83 438.73 C 631.82 438.80 631.77 438.86 631.69 438.86 C 628.80 438.99 621.39 439.46 621.66 440.74 C 621.94 442.04 629.44 442.57 632.12 442.71 C 632.19 442.71 632.25 442.77 632.25 442.84 C 632.26 442.91 632.21 442.97 632.14 442.99 C 629.76 443.61 623.65 445.30 624.89 445.90 C 626.42 446.64 642.45 446.35 645.67 445.23 C 648.92 444.13 647.10 437.84 647.10 437.84 Z" fill="#ffe3ca" fill-rule="nonzero" group-id="7" node-id="212" stroke="none" target-height="20.170013" target-width="28.029968" target-x="620.89" target-y="426.47"></path><path d="M 689.31 390.22 C 689.31 390.22 688.34 403.78 668.33 402.39 L 668.33 412.98 C 668.33 412.98 687.98 420.19 699.99 405.09 L 701.33 394.75 L 689.31 390.22 Z" fill="#ffe3ca" fill-rule="nonzero" group-id="7" node-id="214" stroke="none" target-height="29.970001" target-width="33" target-x="668.33" target-y="390.22"></path></svg>