<?xml version="1.0" standalone="no"?><!DOCTYPE svg PUBLIC "-//W3C//DTD SVG 1.1//EN" "http://www.w3.org/Graphics/SVG/1.1/DTD/svg11.dtd"><svg height="4000" node-id="1" sillyvg="true" template-height="4000" template-width="4000" version="1.1" viewBox="0 0 4000 4000" width="4000" xmlns="http://www.w3.org/2000/svg" xmlns:xlink="http://www.w3.org/1999/xlink"><defs node-id="101"><linearGradient gradientUnits="userSpaceOnUse" id="SVGID_3_" node-id="25" spreadMethod="pad" x1="342.6395" x2="3686.5027" y1="3203.4531" y2="3203.4531"><stop offset="0" stop-color="#68b2fc"></stop><stop offset="1" stop-color="#529bf7"></stop></linearGradient><linearGradient gradientUnits="userSpaceOnUse" id="SVGID_4_" node-id="51" spreadMethod="pad" x1="383.3973" x2="533.7024" y1="2569.4077" y2="2569.4077"><stop offset="0" stop-color="#4085f0"></stop><stop offset="1" stop-color="#275dc9"></stop></linearGradient><linearGradient gradientUnits="userSpaceOnUse" id="SVGID_5_" node-id="55" spreadMethod="pad" x1="728.4908" x2="803.6432" y1="2012.2461" y2="2012.2461"><stop offset="0" stop-color="#4085f0"></stop><stop offset="1" stop-color="#275dc9"></stop></linearGradient><linearGradient gradientUnits="userSpaceOnUse" id="SVGID_6_" node-id="60" spreadMethod="pad" x1="2647.9434" x2="2786.0962" y1="2201.7124" y2="2201.7124"><stop offset="0" stop-color="#68b2fc"></stop><stop offset="1" stop-color="#529bf7"></stop></linearGradient><linearGradient gradientUnits="userSpaceOnUse" id="SVGID_7_" node-id="71" spreadMethod="pad" x1="291.921" x2="661.2261" y1="1569.2008" y2="1569.2008"><stop offset="0" stop-color="#68b2fc"></stop><stop offset="1" stop-color="#529bf7"></stop></linearGradient><linearGradient gradientTransform="matrix(-0.1308 0.9914 -0.9914 -0.1308 6388.7534 -1561.9022)" gradientUnits="userSpaceOnUse" id="SVGID_8_" node-id="79" spreadMethod="pad" x1="3752.234" x2="3896.0383" y1="2662.659" y2="2662.659"><stop offset="0" stop-color="#68b2fc"></stop><stop offset="1" stop-color="#529bf7"></stop></linearGradient></defs><path d="M 2647.90 563.50 L 2301.00 1539.70 L 2194.70 1795.70 L 824.40 1795.70 C 824.40 1795.70 863.20 328.30 2647.90 563.50 Z" fill="#ffde70" fill-rule="nonzero" node-id="142" stroke="none" target-height="1467.3999" target-width="1823.4999" target-x="824.4" target-y="328.3"></path><g node-id="303"><path d="M 782.10 2380.20 C 782.10 2380.20 631.30 2769.50 809.10 3041.00" fill="none" group-id="1" node-id="146" stroke="#1a1a1a" stroke-linecap="round" stroke-width="3" target-height="660.80005" target-width="177.79999" target-x="631.3" target-y="2380.2"></path><g node-id="316"><path d="M 940.40 2381.80 C 933.50 2405.00 907.60 2417.70 882.60 2410.30 C 907.60 2417.80 922.30 2442.70 915.30 2465.80 C 908.40 2489.00 882.50 2501.70 857.50 2494.30 C 848.40 2491.60 834.80 2476.20 829.00 2469.80 C 835.30 2480.10 843.40 2502.90 839.80 2514.90 C 834.00 2534.50 814.70 2546.70 793.80 2545.70 C 789.70 2545.50 785.60 2544.80 781.50 2543.60 C 777.40 2542.40 773.50 2540.70 770.00 2538.60 C 755.50 2530.00 746.60 2514.90 746.70 2499.10 C 738.10 2512.40 722.40 2520.10 705.50 2519.40 C 701.40 2519.20 697.30 2518.50 693.20 2517.30 C 689.10 2516.10 685.20 2514.40 681.70 2512.30 C 663.70 2501.60 654.30 2480.90 660.10 2461.30 C 663.70 2449.30 686.40 2435.00 697.30 2429.90 C 688.90 2432.10 665.70 2437.10 656.60 2434.40 C 631.60 2426.90 616.90 2402.10 623.90 2378.90 C 630.80 2355.70 656.70 2343.00 681.80 2350.40 C 656.80 2342.90 642.10 2318.00 649.00 2294.90 C 655.90 2271.70 681.80 2259.00 706.80 2266.40 C 715.90 2269.10 728.00 2278.80 733.80 2285.20 C 727.50 2274.90 720.90 2257.80 724.50 2245.80 C 730.40 2226.20 749.60 2214.00 770.50 2215.00 C 774.60 2215.20 778.70 2215.90 782.80 2217.10 C 786.90 2218.30 790.80 2220.00 794.30 2222.10 C 808.80 2230.70 817.70 2245.80 817.60 2261.60 C 826.10 2248.30 841.90 2240.60 858.80 2241.30 C 862.90 2241.50 867.00 2242.20 871.10 2243.40 C 875.20 2244.60 879.10 2246.30 882.60 2248.40 C 900.60 2259.10 910.00 2279.80 904.10 2299.40 C 900.50 2311.40 885.20 2321.80 874.20 2327.00 C 882.60 2324.80 898.50 2323.60 907.60 2326.40 C 932.70 2333.70 947.40 2358.60 940.40 2381.80 Z" fill="#339e7e" fill-rule="nonzero" group-id="1,14" node-id="150" stroke="none" target-height="332.69995" target-width="330.5" target-x="616.9" target-y="2214"></path><path d="M 681.60 2350.20 C 712.70 2373.50 745.70 2386.00 782.10 2380.20 C 756.70 2411.40 748.50 2453.20 746.60 2499.00" fill="none" group-id="1,14" node-id="152" stroke="#1a1a1a" stroke-linecap="round" stroke-width="2" target-height="148.80005" target-width="100.5" target-x="681.6" target-y="2350.2"></path><path d="M 817.60 2261.50 C 818.00 2310.50 805.70 2349.70 782.10 2380.30 C 808.10 2399.20 843.70 2406.70 882.60 2410.30" fill="none" group-id="1,14" node-id="154" stroke="#1a1a1a" stroke-linecap="round" stroke-width="2" target-height="148.80005" target-width="100.5" target-x="782.1" target-y="2261.5"></path></g></g><g node-id="304"><path d="M 404.90 2956.40 C 404.90 2956.40 868.30 2832.10 1156.50 3068.80" fill="none" group-id="2" node-id="160" stroke="#1a1a1a" stroke-linecap="round" stroke-width="3" target-height="236.69995" target-width="751.6" target-x="404.9" target-y="2832.1"></path><g node-id="317"><path d="M 387.10 3137.50 C 414.40 3132.50 432.20 3104.40 426.70 3074.90 C 432.20 3104.40 458.80 3124.20 486.10 3119.20 C 513.50 3114.10 531.20 3086.10 525.80 3056.60 C 523.80 3045.90 507.90 3028.40 501.30 3021.00 C 512.30 3029.50 537.40 3041.50 551.50 3038.90 C 574.60 3034.60 590.90 3014.10 592.40 2990.10 C 592.70 2985.40 592.40 2980.60 591.50 2975.70 C 590.60 2970.80 589.10 2966.30 587.20 2962.00 C 579.20 2944.40 563.00 2932.30 544.90 2930.50 C 561.10 2922.40 571.90 2905.30 573.10 2886.00 C 573.40 2881.30 573.10 2876.50 572.20 2871.60 C 571.30 2866.70 569.80 2862.20 567.90 2857.90 C 557.90 2836.00 535.40 2822.70 512.30 2827.00 C 498.20 2829.60 479.00 2853.80 471.80 2865.60 C 475.30 2856.30 483.90 2830.30 481.90 2819.60 C 476.50 2790.10 449.80 2770.30 422.50 2775.30 C 395.20 2780.40 377.40 2808.40 382.90 2837.90 C 377.40 2808.40 350.80 2788.50 323.50 2793.60 C 296.10 2798.70 278.40 2826.70 283.80 2856.20 C 285.80 2866.90 295.40 2882.00 302.00 2889.40 C 291.00 2880.90 272.30 2871.30 258.10 2873.90 C 235.00 2878.20 218.70 2898.70 217.20 2922.70 C 216.90 2927.40 217.20 2932.20 218.10 2937.10 C 219.00 2942.00 220.50 2946.50 222.40 2950.80 C 230.40 2968.40 246.60 2980.50 264.70 2982.30 C 248.50 2990.40 237.70 3007.50 236.50 3026.80 C 236.20 3031.50 236.50 3036.30 237.40 3041.20 C 238.30 3046.10 239.80 3050.60 241.70 3054.90 C 251.70 3076.80 274.20 3090.10 297.30 3085.80 C 311.40 3083.20 325.30 3066.90 332.50 3055.10 C 329.00 3064.40 325.70 3082.50 327.60 3093.20 C 333.20 3122.70 359.80 3142.60 387.10 3137.50 Z" fill="#127755" fill-rule="nonzero" group-id="2,15" node-id="164" stroke="none" target-height="372.30005" target-width="375.80002" target-x="216.9" target-y="2770.3"></path><path d="M 383.00 2837.90 C 405.80 2876.30 416.00 2915.60 404.90 2956.40 C 443.60 2931.20 492.50 2927.10 545.00 2930.50" fill="none" group-id="2,15" node-id="166" stroke="#ffffff" stroke-linecap="round" stroke-width="2" target-height="118.5" target-width="162" target-x="383" target-y="2837.9"></path><path d="M 264.80 2982.30 C 320.70 2988.80 367.00 2979.60 404.90 2956.40 C 423.30 2988.40 427.40 3030.10 426.80 3074.90" fill="none" group-id="2,15" node-id="168" stroke="#ffffff" stroke-linecap="round" stroke-width="2" target-height="118.5" target-width="162.6" target-x="264.8" target-y="2956.4"></path></g></g><path d="M 921.10 3127.20 C 889.60 2991.70 940.40 2852.50 1046.80 2778.30 C 1175.30 2688.70 1363.10 2709.00 1480.80 2835.10 C 1444.50 2633.50 1578.80 2443.40 1764.70 2409.10 C 1963.20 2372.50 2167.20 2523.30 2186.60 2741.80 C 2209.00 2731.60 2396.00 2650.00 2576.00 2749.90 C 2678.50 2806.70 2727.70 2894.10 2746.40 2932.50 C 2725.50 2609.70 2944.90 2396.30 3111.50 2409.20 C 3238.20 2419.00 3364.70 2562.00 3407.60 2754.00 C 3528.20 2716.50 3566.60 2746.50 3578.00 2758.10 C 3632.90 2814.10 3580.90 2976.70 3444.10 3167.80 C 2603.20 3154.20 1762.20 3140.70 921.10 3127.20 Z" fill="#d7efff" fill-rule="nonzero" node-id="172" stroke="none" target-height="795.30005" target-width="2743.2998" target-x="889.6" target-y="2372.5"></path><path d="M 3686.50 3203.50 C 3686.50 3272.06 3510.35 3337.81 3196.81 3386.29 C 2883.27 3434.77 2458.02 3462.00 2014.60 3462.00 C 1571.18 3462.00 1145.93 3434.77 832.39 3386.29 C 518.85 3337.81 342.70 3272.06 342.70 3203.50 C 342.70 3134.94 518.85 3069.19 832.39 3020.71 C 1145.93 2972.23 1571.18 2945.00 2014.60 2945.00 C 2458.02 2945.00 2883.27 2972.23 3196.81 3020.71 C 3510.35 3069.19 3686.50 3134.94 3686.50 3203.50 Z" fill="url(#SVGID_3_)" fill-rule="nonzero" node-id="174" stroke="none" target-height="517" target-width="3343.8" target-x="342.7" target-y="2945"></path><path d="M 1932.50 3120.70 C 1932.50 3142.53 1866.61 3163.46 1749.32 3178.89 C 1632.04 3194.33 1472.97 3203.00 1307.10 3203.00 C 1141.23 3203.00 982.16 3194.33 864.88 3178.89 C 747.59 3163.46 681.70 3142.53 681.70 3120.70 C 681.70 3098.87 747.59 3077.94 864.88 3062.51 C 982.16 3047.07 1141.23 3038.40 1307.10 3038.40 C 1472.97 3038.40 1632.04 3047.07 1749.32 3062.51 C 1866.61 3077.94 1932.50 3098.87 1932.50 3120.70 Z" fill="#152a52" fill-opacity="0.5" fill-rule="nonzero" group-id="3" node-id="178" stroke="none" target-height="164.6001" target-width="1250.8" target-x="681.7" target-y="3038.4"></path><path d="M 2636.30 3074.90 C 2636.30 3094.17 2517.52 3109.80 2371.00 3109.80 C 2224.48 3109.80 2105.70 3094.17 2105.70 3074.90 C 2105.70 3055.63 2224.48 3040.00 2371.00 3040.00 C 2517.52 3040.00 2636.30 3055.63 2636.30 3074.90 Z" fill="#152a52" fill-opacity="0.5" fill-rule="nonzero" group-id="4" node-id="183" stroke="none" target-height="69.80005" target-width="530.6001" target-x="2105.7" target-y="3040"></path><path d="M 1133.00 2189.50 L 824.40 3120.70 L 863.20 3120.70 L 1168.80 2196.90 Z" fill="#3b546b" fill-rule="nonzero" group-id="5" node-id="188" stroke="none" target-height="931.19995" target-width="344.40002" target-x="824.4" target-y="2189.5"></path><path d="M 1426.80 2189.50 L 1735.40 3120.70 L 1696.60 3120.70 L 1391.00 2196.90 Z" fill="#3b546b" fill-rule="nonzero" group-id="5" node-id="190" stroke="none" target-height="931.19995" target-width="344.40002" target-x="1391" target-y="2189.5"></path><path d="M 1032.90 2160.50 L 1519.30 2160.50 L 1519.30 2214.80 L 1032.90 2214.80 Z" fill="#3b546b" fill-rule="nonzero" group-id="5" node-id="192" stroke="none" target-height="54.30005" target-width="486.40002" target-x="1032.9" target-y="2160.5"></path><path d="M 1433.10 2291.60 C 1433.10 2291.60 1292.10 2264.30 1267.20 2297.20 C 1242.30 2330.10 1266.60 2642.40 1319.90 2616.90 C 1373.30 2591.40 1432.10 2546.90 1374.40 2403.10 C 1462.70 2380.00 1462.70 2380.00 1462.70 2380.00 L 1433.10 2291.60 Z" fill="#1a1a1a" fill-rule="nonzero" group-id="6" node-id="197" stroke="none" target-height="378.09985" target-width="220.3999" target-x="1242.3" target-y="2264.3"></path><path d="M 2178.60 2832.00 C 2178.60 2832.00 2247.80 3010.80 2290.50 3029.10 C 2333.20 3047.40 2562.80 2935.20 2563.20 2885.40 C 2563.60 2835.60 2502.90 2774.70 2362.30 2861.40 C 2302.70 2885.90 2290.90 2809.60 2290.90 2809.60 L 2178.60 2832.00 Z" fill="#1a1a1a" fill-rule="nonzero" group-id="6" node-id="199" stroke="none" target-height="272.69995" target-width="385" target-x="2178.6" target-y="2774.7"></path><path d="M 2135.00 2152.70 C 2247.20 2282.20 2327.00 2834.50 2327.00 2834.50 C 2327.00 2834.50 2217.80 2907.80 2180.60 2896.10 C 2143.40 2884.40 1961.00 2472.00 1913.10 2219.30 C 1632.70 2230.20 960.90 2161.00 1264.30 1664.60 C 1467.90 1773.20 1471.90 1804.90 1471.90 1804.90 C 1471.90 1804.90 2022.90 2023.30 2135.00 2152.70 Z" fill="#152a52" fill-rule="nonzero" group-id="6" node-id="201" stroke="none" target-height="1243.2001" target-width="1366.1" target-x="960.9" target-y="1664.6"></path><path d="M 1598.80 1472.50 C 1606.10 1495.10 1586.50 1764.80 1779.30 1840.50 C 2018.40 1934.40 1969.80 1971.30 1969.80 1971.30 L 1577.80 1891.90 L 1424.30 1812.10 L 1598.80 1472.50 Z" fill="#d1334a" fill-rule="nonzero" group-id="6" node-id="203" stroke="none" target-height="498.80005" target-width="594.1" target-x="1424.3" target-y="1472.5"></path><path d="M 1581.40 1670.90 L 1598.70 1501.50 C 1598.70 1501.50 1599.50 1632.00 1603.00 1651.70 C 1606.50 1671.40 1609.40 1699.30 1609.40 1699.30 L 1589.10 1691.70 L 1581.40 1670.90 Z" fill="#9d2638" fill-rule="nonzero" group-id="6" node-id="205" stroke="none" target-height="197.80005" target-width="28" target-x="1581.4" target-y="1501.5"></path><path d="M 1552.30 1792.20 C 1551.90 1793.50 1549.40 1808.70 1549.40 1808.70 L 1705.30 1794.00 L 1699.20 1781.70 L 1552.30 1792.20 Z" fill="#9d2638" fill-rule="nonzero" group-id="6" node-id="207" stroke="none" target-height="27" target-width="155.90002" target-x="1549.4" target-y="1781.7"></path><path d="M 1285.20 1729.80 C 1285.20 1729.80 977.30 1857.70 1144.10 2073.40 C 1271.10 2237.60 1808.20 2148.60 1808.20 2148.60 L 1406.90 2274.70 C 1406.90 2274.70 1379.50 2370.40 1407.80 2417.30 C 1436.00 2464.20 1988.70 2387.00 2107.80 2164.70 C 2216.80 1961.30 1962.30 1932.10 1811.40 1884.40 C 1660.50 1836.70 1409.30 1778.90 1409.30 1778.90" fill="#152a52" fill-rule="nonzero" group-id="6" node-id="209" stroke="none" target-height="734.3999" target-width="1239.5" target-x="977.3" target-y="1729.8"></path><path d="M 1563.10 1663.20 C 1526.50 1602.20 1499.60 1521.60 1424.00 1509.40 C 1348.40 1497.90 1270.70 1516.60 1204.90 1472.50 C 1169.90 1553.90 1135.50 1676.20 1133.30 1726.40 C 1131.00 1777.20 1144.20 1818.60 1167.20 1850.20 C 1230.30 1937.20 1367.30 1950.50 1458.90 1884.90 C 1476.10 1872.60 1527.70 1851.70 1540.80 1829.70 C 1563.60 1791.40 1577.80 1741.40 1586.50 1689.10 C 1577.80 1682.20 1569.90 1673.70 1563.10 1663.20 Z" fill="#eb485c" fill-rule="nonzero" group-id="6" node-id="211" stroke="none" target-height="478" target-width="455.5" target-x="1131" target-y="1472.5"></path><path d="M 1593.80 1401.70 C 1564.80 1275.50 1367.30 1303.10 1367.30 1303.10 C 1367.30 1303.10 1288.00 1336.70 1234.00 1415.80 C 1224.70 1429.70 1214.80 1449.50 1204.80 1472.50 C 1270.60 1516.60 1348.30 1497.90 1423.90 1509.40 C 1499.60 1521.60 1526.40 1602.10 1563.00 1663.20 C 1569.80 1673.70 1577.70 1682.20 1586.40 1689.10 C 1609.00 1553.00 1593.80 1401.70 1593.80 1401.70 Z" fill="#ef5668" fill-rule="nonzero" group-id="6" node-id="213" stroke="none" target-height="413.59998" target-width="404.19995" target-x="1204.8" target-y="1275.5"></path><path d="M 1841.70 1708.50 C 1841.70 1708.50 1515.90 1685.40 1405.60 1639.70 C 1295.30 1594.10 1394.80 1447.60 1394.80 1447.60 L 1382.20 1301.50 C 1359.50 1302.50 1334.40 1316.80 1334.40 1316.80 C 1331.60 1318.70 1328.70 1320.70 1325.90 1322.90 C 1271.60 1426.60 1218.40 1546.40 1265.30 1658.10 C 1287.30 1716.70 1350.70 1755.70 1411.70 1758.20 C 1558.10 1767.40 1704.60 1752.90 1851.00 1759.10 C 1854.00 1739.80 1841.70 1708.50 1841.70 1708.50 Z" fill="#ef5668" fill-rule="nonzero" group-id="6" node-id="215" stroke="none" target-height="465.90002" target-width="635.6" target-x="1218.4" target-y="1301.5"></path><path d="M 1411.80 1758.40 C 1350.80 1756.00 1287.30 1716.90 1265.40 1658.30 C 1218.50 1546.60 1271.70 1426.80 1326.00 1323.10 C 1236.20 1393.50 1154.30 1636.50 1227.40 1735.40 C 1302.80 1837.40 1816.20 1780.50 1840.50 1773.70 C 1847.00 1771.90 1850.10 1766.30 1851.20 1759.20 C 1704.60 1753.10 1558.20 1767.50 1411.80 1758.40 Z" fill="#d1334a" fill-rule="nonzero" group-id="6" node-id="217" stroke="none" target-height="514.30005" target-width="696.8999" target-x="1154.3" target-y="1323.1"></path><path d="M 1972.50 1729.80 C 1933.80 1711.50 1810.40 1716.90 1810.40 1716.90 C 1808.10 1721.60 1806.70 1725.90 1806.10 1729.90 C 1863.40 1729.80 1909.40 1759.00 1941.30 1801.60 L 2013.40 1803.80 C 2013.30 1803.90 2011.20 1748.10 1972.50 1729.80 Z" fill="#fc9590" fill-rule="nonzero" group-id="6" node-id="219" stroke="none" target-height="92.400024" target-width="207.30005" target-x="1806.1" target-y="1711.5"></path><path d="M 1806.00 1729.90 C 1802.20 1752.00 1820.50 1762.60 1835.00 1763.10 C 1852.20 1763.60 1875.50 1799.60 1875.50 1799.60 L 1941.20 1801.60 C 1909.30 1759.00 1863.30 1729.80 1806.00 1729.90 Z" fill="#db6767" fill-rule="nonzero" group-id="6" node-id="221" stroke="none" target-height="71.79993" target-width="139" target-x="1802.2" target-y="1729.8"></path><path d="M 1636.40 1194.70 L 1472.60 1333.40 C 1462.70 1343.30 1544.10 1443.50 1578.80 1422.40 C 1609.20 1347.30 1633.90 1322.80 1633.90 1322.80 C 1633.90 1322.80 1644.20 1372.10 1684.50 1374.50 C 1724.70 1376.90 1827.30 1235.40 1813.50 1198.10 C 1799.80 1160.70 1753.80 1121.20 1636.40 1194.70 Z" fill="#fc9590" fill-rule="nonzero" group-id="6" node-id="223" stroke="none" target-height="322.30005" target-width="364.6001" target-x="1462.7" target-y="1121.2"></path><path d="M 1829.80 1273.00 C 1829.80 1273.00 1753.80 1246.80 1748.60 1220.20 C 1743.50 1193.50 1710.10 1252.10 1696.80 1253.90 C 1683.50 1255.70 1697.50 1219.30 1683.60 1228.30 C 1669.70 1237.30 1690.00 1252.20 1658.80 1259.60 C 1627.60 1267.10 1577.80 1221.00 1577.80 1221.00 C 1577.80 1221.00 1635.30 1140.70 1697.50 1131.90 C 1759.80 1122.90 1908.20 1155.80 1829.80 1273.00 Z" fill="#102140" fill-rule="nonzero" group-id="6" node-id="225" stroke="none" target-height="150.09998" target-width="330.3999" target-x="1577.8" target-y="1122.9"></path><path d="M 533.70 2569.40 C 533.70 2610.90 500.10 2644.60 458.50 2644.60 C 416.90 2644.60 383.30 2610.90 383.30 2569.40 C 383.30 2527.90 416.90 2494.20 458.50 2494.20 C 500.10 2494.20 533.70 2527.90 533.70 2569.40 Z" fill="url(#SVGID_4_)" fill-rule="nonzero" node-id="228" stroke="none" target-height="150.40015" target-width="150.40002" target-x="383.3" target-y="2494.2"></path><path d="M 803.60 2012.20 C 803.60 2033.00 786.80 2049.80 766.00 2049.80 C 745.20 2049.80 728.40 2033.00 728.40 2012.20 C 728.40 1991.40 745.20 1974.60 766.00 1974.60 C 786.80 1974.70 803.60 1991.50 803.60 2012.20 Z" fill="url(#SVGID_5_)" fill-rule="nonzero" node-id="230" stroke="none" target-height="75.20007" target-width="75.19995" target-x="728.4" target-y="1974.6"></path><path d="M 274.50 2201.70 C 274.50 2231.08 250.73 2254.90 221.40 2254.90 C 192.07 2254.90 168.30 2231.08 168.30 2201.70 C 168.30 2172.32 192.07 2148.50 221.40 2148.50 C 250.73 2148.50 274.50 2172.32 274.50 2201.70 Z" fill="#ffb114" fill-rule="nonzero" node-id="232" stroke="none" target-height="106.3999" target-width="106.2" target-x="168.3" target-y="2148.5"></path><path d="M 2786.10 2201.70 C 2786.10 2239.86 2755.16 2270.80 2717.00 2270.80 C 2678.84 2270.80 2647.90 2239.86 2647.90 2201.70 C 2647.90 2163.54 2678.84 2132.60 2717.00 2132.60 C 2755.16 2132.60 2786.10 2163.54 2786.10 2201.70 Z" fill="url(#SVGID_6_)" fill-rule="nonzero" node-id="234" stroke="none" target-height="138.19995" target-width="138.2002" target-x="2647.9" target-y="2132.6"></path><path d="M 3831.70 2265.60 C 3831.70 2294.37 3808.37 2317.70 3779.60 2317.70 C 3750.83 2317.70 3727.50 2294.37 3727.50 2265.60 C 3727.50 2236.83 3750.83 2213.50 3779.60 2213.50 C 3808.37 2213.50 3831.70 2236.83 3831.70 2265.60 Z" fill="#ffb114" fill-rule="nonzero" node-id="236" stroke="none" target-height="104.19995" target-width="104.19995" target-x="3727.5" target-y="2213.5"></path><path d="M 3294.80 1202.60 C 3294.80 1311.12 3206.82 1399.10 3098.30 1399.10 C 2989.78 1399.10 2901.80 1311.12 2901.80 1202.60 C 2901.80 1094.08 2989.78 1006.10 3098.30 1006.10 C 3206.82 1006.10 3294.80 1094.08 3294.80 1202.60 Z" fill="#ffb114" fill-rule="nonzero" group-id="7" node-id="240" stroke="none" target-height="393" target-width="393" target-x="2901.8" target-y="1006.1"></path><path d="M 3260.20 1202.60 C 3260.20 1292.01 3187.71 1364.50 3098.30 1364.50 C 3008.89 1364.50 2936.40 1292.01 2936.40 1202.60 C 2936.40 1113.19 3008.89 1040.70 3098.30 1040.70 C 3187.71 1040.70 3260.20 1113.19 3260.20 1202.60 Z" fill="#ffde70" fill-rule="nonzero" group-id="7" node-id="242" stroke="none" target-height="323.80005" target-width="323.80005" target-x="2936.4" target-y="1040.7"></path><path d="M 3098.30 1104.40 L 3098.30 1205.30 L 3175.10 1269.80" fill="none" group-id="7" node-id="244" stroke="#1a1a1a" stroke-linecap="round" stroke-width="3" target-height="165.40002" target-width="76.80005" target-x="3098.3" target-y="1104.4"></path><path d="M 735.30 1529.80 C 735.30 1554.90 730.80 1579.00 722.50 1601.20 L 530.80 1529.80 L 593.90 1335.20 C 676.00 1361.80 735.30 1438.90 735.30 1529.80 Z" fill="#d1334a" fill-rule="nonzero" group-id="8" node-id="249" stroke="none" target-height="266" target-width="204.5" target-x="530.8" target-y="1335.2"></path><path d="M 661.20 1660.70 C 624.00 1711.30 564.00 1744.20 496.40 1744.20 C 383.50 1744.20 291.90 1652.60 291.90 1539.70 C 291.90 1482.70 315.20 1431.20 352.80 1394.10 L 496.40 1539.70 L 661.20 1660.70 Z" fill="url(#SVGID_7_)" fill-rule="nonzero" group-id="8" node-id="251" stroke="none" target-height="350.09998" target-width="369.30002" target-x="291.9" target-y="1394.1"></path><path d="M 559.50 1345.20 L 496.40 1539.80 L 352.80 1394.20 C 389.70 1357.70 440.40 1335.20 496.40 1335.20 C 518.40 1335.20 539.70 1338.70 559.50 1345.20 Z" fill="#ffb114" fill-rule="nonzero" group-id="8" node-id="253" stroke="none" target-height="204.6001" target-width="206.70001" target-x="352.8" target-y="1335.2"></path><path d="M 688.10 1611.10 C 681.50 1629.00 672.40 1645.60 661.30 1660.70 L 496.50 1539.70 L 688.10 1611.10 Z" fill="#1a1a1a" fill-rule="nonzero" group-id="8" node-id="255" stroke="#1a1a1a" stroke-linecap="round" stroke-width="2" target-height="121" target-width="191.59998" target-x="496.5" target-y="1539.7"></path><path d="M 3236.70 1979.00 C 3227.20 1976.50 3218.60 1972.40 3211.10 1967.10 L 3257.00 1902.00 L 3324.00 1945.10 C 3305.90 1973.30 3271.00 1988.00 3236.70 1979.00 Z" fill="#d1334a" fill-rule="nonzero" group-id="9" node-id="260" stroke="none" target-height="86" target-width="112.8999" target-x="3211.1" target-y="1902"></path><path d="M 3204.10 1947.70 C 3186.50 1930.80 3176.80 1905.90 3180.30 1879.80 C 3186.10 1836.20 3226.10 1805.50 3269.70 1811.30 C 3291.70 1814.20 3310.40 1825.80 3322.80 1842.20 L 3259.30 1890.20 L 3204.10 1947.70 Z" fill="url(#SVGID_8_)" fill-rule="nonzero" group-id="9" node-id="262" stroke="none" target-height="142.19995" target-width="146" target-x="3176.8" target-y="1805.5"></path><path d="M 3331.10 1924.50 L 3259.20 1890.20 L 3322.70 1842.20 C 3334.90 1858.30 3341.00 1879.00 3338.10 1900.60 C 3337.00 1909.10 3334.60 1917.20 3331.10 1924.50 Z" fill="#ffb114" fill-rule="nonzero" group-id="9" node-id="264" stroke="none" target-height="82.30005" target-width="81.80005" target-x="3259.2" target-y="1842.2"></path><path d="M 1851.50 1795.70 L 2233.40 1795.70 L 2233.40 1828.60 L 1851.50 1828.60 Z" fill="#1a1a1a" fill-rule="nonzero" node-id="267" stroke="#1a1a1a" stroke-linecap="round" stroke-width="2" target-height="32.900024" target-width="381.8999" target-x="1851.5" target-y="1795.7"></path><path d="M 2301.10 1539.70 L 2203.20 1781.40 L 2233.40 1784.60 L 2331.70 1542.90 Z" fill="#1a1a1a" fill-rule="nonzero" node-id="269" stroke="#1a1a1a" stroke-linecap="round" stroke-width="2" target-height="244.90002" target-width="128.5" target-x="2203.2" target-y="1539.7"></path><path d="M 1834.00 1828.60 L 2768.20 1828.60 L 2768.20 1878.00 L 1834.00 1878.00 Z" fill="#3b546b" fill-rule="nonzero" node-id="271" stroke="none" target-height="49.400024" target-width="934.19995" target-x="1834" target-y="1828.6"></path><path d="M 2119.30 1303.00 L 2127.70 1245.00 L 2101.50 1245.00 L 2101.50 1215.20 L 2132.90 1215.20 L 2138.10 1178.90 L 2110.60 1178.90 L 2110.60 1148.80 L 2142.70 1148.80 L 2150.80 1092.40 L 2179.60 1092.40 L 2171.50 1148.80 L 2201.00 1148.80 L 2209.40 1092.40 L 2238.20 1092.40 L 2229.80 1148.80 L 2255.70 1148.80 L 2255.70 1178.90 L 2225.20 1178.90 L 2220.00 1215.20 L 2246.90 1215.20 L 2246.90 1245.00 L 2215.10 1245.00 L 2207.00 1303.00 L 2178.00 1303.00 L 2186.10 1245.00 L 2156.60 1245.00 L 2148.50 1303.00 L 2119.30 1303.00 Z M 2191.30 1215.10 L 2196.50 1178.80 L 2167.00 1178.80 L 2161.80 1215.10 L 2191.30 1215.10 Z" fill="#ffffff" fill-rule="nonzero" node-id="273" stroke="none" target-height="210.59998" target-width="154.19995" target-x="2101.5" target-y="1092.4"></path><path d="M 1109.90 1301.00 L 1116.60 1255.00 L 1095.80 1255.00 L 1095.80 1231.40 L 1120.70 1231.40 L 1124.80 1202.60 L 1103.00 1202.60 L 1103.00 1178.70 L 1128.40 1178.70 L 1134.80 1134.00 L 1157.70 1134.00 L 1151.30 1178.70 L 1174.70 1178.70 L 1181.40 1134.00 L 1204.30 1134.00 L 1197.60 1178.70 L 1218.10 1178.70 L 1218.10 1202.60 L 1194.00 1202.60 L 1189.90 1231.40 L 1211.20 1231.40 L 1211.20 1255.00 L 1186.00 1255.00 L 1179.60 1301.00 L 1156.50 1301.00 L 1162.90 1255.00 L 1139.50 1255.00 L 1133.10 1301.00 L 1109.90 1301.00 Z M 1166.90 1231.40 L 1171.00 1202.60 L 1147.60 1202.60 L 1143.50 1231.40 L 1166.90 1231.40 Z" fill="#ffffff" fill-rule="nonzero" node-id="275" stroke="none" target-height="167" target-width="122.29993" target-x="1095.8" target-y="1134"></path><path d="M 2246.40 793.70 L 2246.40 766.50 L 2397.40 766.50 L 2397.40 793.70 L 2246.40 793.70 Z M 2246.40 854.30 L 2246.40 827.00 L 2397.40 827.00 L 2397.40 854.20 L 2246.40 854.20 Z" fill="#ffffff" fill-rule="nonzero" node-id="277" stroke="none" target-height="87.79999" target-width="151" target-x="2246.4" target-y="766.5"></path><path d="M 1784.10 885.90 L 1784.10 902.40 L 1679.50 902.40 L 1679.50 885.90 L 1784.10 885.90 Z" fill="#000000" fill-rule="nonzero" group-id="10" node-id="281" stroke="none" target-height="16.5" target-width="104.599976" target-x="1679.5" target-y="885.9"></path><path d="M 822.40 1008.00 L 822.40 1024.50 L 717.80 1024.50 L 717.80 1008.00 L 822.40 1008.00 Z" fill="#000000" fill-rule="nonzero" group-id="11" node-id="286" stroke="none" target-height="16.5" target-width="104.60004" target-x="717.8" target-y="1008"></path><path d="M 1403.60 894.20 L 1403.60 950.00 L 1457.10 950.00 L 1457.10 974.00 L 1403.60 974.00 L 1403.60 1030.30 L 1378.50 1030.30 L 1378.50 974.00 L 1325.00 974.00 L 1325.00 949.90 L 1378.50 949.90 L 1378.50 894.10 L 1403.60 894.10 Z" fill="#ffffff" fill-rule="nonzero" node-id="289" stroke="none" target-height="136.20007" target-width="132.09998" target-x="1325" target-y="894.1"></path><path d="M 2806.80 1558.10 L 2806.80 1599.10 L 2846.10 1599.10 L 2846.10 1616.80 L 2806.80 1616.80 L 2806.80 1658.20 L 2788.40 1658.20 L 2788.40 1616.80 L 2749.00 1616.80 L 2749.00 1599.10 L 2788.30 1599.10 L 2788.30 1558.10 L 2806.80 1558.10 Z" fill="#102140" fill-rule="nonzero" group-id="12" node-id="293" stroke="none" target-height="100.099976" target-width="97.1001" target-x="2749" target-y="1558.1"></path><path d="M 1004.80 1494.30 L 1045.10 1357.90 L 1064.10 1357.90 L 1023.80 1494.30 L 1004.80 1494.30 Z" fill="#000000" fill-rule="nonzero" group-id="13" node-id="298" stroke="none" target-height="136.40002" target-width="59.299988" target-x="1004.8" target-y="1357.9"></path><path d="M 2139.50 640.20 L 2050.30 640.20 L 2132.80 722.70 C 2132.80 722.70 2044.60 806.20 2049.30 806.20 C 2054.00 806.20 2139.50 806.20 2139.50 806.20" fill="none" node-id="301" stroke="#1a1a1a" stroke-linecap="round" stroke-width="3" target-height="166" target-width="94.900024" target-x="2044.6" target-y="640.2"></path></svg>