<?xml version="1.0" standalone="no"?><!DOCTYPE svg PUBLIC "-//W3C//DTD SVG 1.1//EN" "http://www.w3.org/Graphics/SVG/1.1/DTD/svg11.dtd"><svg height="1199" node-id="1" sillyvg="true" template-height="1199" template-width="1200" version="1.1" viewBox="0 0 1200 1199" width="1200" xmlns="http://www.w3.org/2000/svg" xmlns:xlink="http://www.w3.org/1999/xlink"><defs node-id="105"></defs><g node-id="107"><path d="M 734.96 15.78 C 749.79 21.92 765.14 25.86 781.03 27.57 C 870.00 56.81 948.42 103.57 1016.27 167.86 C 1017.00 168.55 1017.41 169.41 1017.49 170.44 C 1017.54 171.01 1017.62 171.58 1017.74 172.16 L 959.27 226.08 C 956.20 228.95 953.23 228.83 950.36 225.72 L 876.41 145.62 C 875.57 144.73 874.25 144.46 873.14 144.97 C 872.02 145.47 871.39 146.63 871.56 147.84 L 887.28 269.88 C 887.53 272.01 886.61 273.30 884.52 273.75 L 772.86 296.84 C 769.83 297.45 769.54 298.70 772.00 300.59 L 873.40 376.99 C 875.20 378.36 876.29 380.46 876.36 382.70 C 876.43 384.95 875.48 387.09 873.77 388.54 L 868.31 393.27 L 770.28 398.12 L 764.38 396.34 L 737.79 376.38 C 740.90 329.78 731.77 285.85 710.39 244.57 L 712.18 242.79 L 746.94 240.95 C 748.95 240.87 749.38 239.99 748.23 238.31 L 727.04 207.47 C 720.45 193.22 711.83 180.35 701.18 168.84 C 700.94 168.35 700.81 167.78 700.81 167.12 C 700.81 165.73 700.16 164.83 698.85 164.42 L 629.01 142.74 C 569.50 99.50 508.51 80.21 437.51 85.74 C 311.84 95.51 204.72 186.04 181.14 312.69 C 179.21 323.13 177.00 333.53 174.51 343.89 L 73.16 313.18 C 203.86 76.40 471.47 -45.70 734.96 15.78 Z" fill="#6e72ff" fill-rule="nonzero" group-id="1" id="路径" node-id="6" stroke="none" target-height="443.82068" target-width="944.5777" target-x="73.16225" target-y="-45.699215"></path><path d="M 734.96 15.78 C 751.30 15.95 766.66 19.88 781.03 27.57 C 765.14 25.86 749.79 21.92 734.96 15.78 Z" fill="#f8bdff" fill-rule="nonzero" group-id="1" id="路径" node-id="7" stroke="none" target-height="11.792635" target-width="46.06494" target-x="734.9624" target-y="15.782173"></path><path d="M 629.01 142.74 C 489.06 117.80 364.80 149.23 256.26 237.02 C 252.04 240.46 246.28 246.39 239.00 254.83 C 206.75 307.96 260.31 347.14 303.49 315.20 C 408.92 226.64 528.69 203.44 662.79 245.62 L 710.39 244.57 C 731.77 285.85 740.90 329.78 737.79 376.38 C 639.95 312.19 537.87 290.39 418.16 270.61 C 416.15 270.29 414.88 271.10 414.35 273.07 L 328.30 588.28 L 241.08 367.90 C 240.35 366.04 238.81 364.60 236.91 363.97 L 174.51 343.89 C 177.00 333.53 179.21 323.13 181.14 312.69 C 204.72 186.04 311.84 95.51 437.51 85.74 C 508.51 80.21 569.50 99.50 629.01 142.74 Z" fill="#f8bdff" fill-rule="nonzero" group-id="1" id="路径" node-id="8" stroke="none" target-height="508.06598" target-width="566.3945" target-x="174.50519" target-y="80.211716"></path><path d="M 1052.81 205.69 C 1048.51 213.68 1044.85 221.91 1041.82 230.38 C 1038.50 239.47 1040.28 252.06 1032.66 262.01 C 1031.71 263.26 1031.42 264.89 1031.88 266.39 C 1032.35 267.89 1033.51 269.08 1035.00 269.57 L 1062.02 278.35 C 1074.43 285.19 1087.74 288.61 1101.95 288.61 L 1114.23 291.68 C 1133.11 299.83 1152.84 306.07 1173.44 310.41 C 1174.54 310.62 1175.35 311.56 1175.40 312.67 C 1175.44 313.79 1174.70 314.79 1173.62 315.08 L 1133.03 327.12 C 1108.87 332.81 1087.68 339.71 1069.46 347.82 C 1067.49 348.72 1067.06 350.09 1068.17 351.93 L 1137.94 469.25 C 1139.90 472.60 1139.04 473.69 1135.36 472.50 L 1118.84 467.22 L 1018.35 431.47 C 1016.75 430.90 1014.96 431.13 1013.56 432.11 C 1012.15 433.08 1011.31 434.68 1011.29 436.39 C 1011.25 441.22 1013.32 444.68 1017.49 446.77 L 1014.42 448.30 C 1010.21 466.03 1008.75 484.03 1010.06 502.29 L 1008.53 509.97 L 1006.99 540.68 C 1006.62 541.05 1006.30 541.48 1006.01 541.97 C 1005.03 543.69 1003.84 543.83 1002.45 542.40 L 997.53 537.36 C 992.41 523.44 985.17 510.72 975.79 499.22 C 976.28 495.08 974.75 492.01 971.18 490.01 L 936.24 428.22 C 935.05 426.13 933.37 425.60 931.20 426.62 L 854.73 462.12 C 849.08 460.69 845.50 462.22 843.98 466.73 L 819.11 477.72 C 815.79 479.20 814.85 478.27 816.28 474.96 L 820.95 464.15 C 824.80 463.66 826.76 461.53 826.85 457.76 C 838.88 442.49 849.12 426.11 857.56 408.62 L 868.31 393.27 L 873.77 388.54 C 875.48 387.09 876.43 384.95 876.36 382.70 C 876.29 380.46 875.20 378.36 873.40 376.99 L 772.00 300.59 C 769.54 298.70 769.83 297.45 772.86 296.84 L 884.52 273.75 C 886.61 273.30 887.53 272.01 887.28 269.88 L 871.56 147.84 C 871.39 146.63 872.02 145.47 873.14 144.97 C 874.25 144.46 875.57 144.73 876.41 145.62 L 950.36 225.72 C 953.23 228.83 956.20 228.95 959.27 226.08 L 1017.74 172.16 L 1072.47 122.41 C 1073.55 121.37 1075.22 121.27 1076.42 122.17 C 1077.62 123.07 1078.00 124.70 1077.32 126.03 C 1064.21 152.20 1056.05 178.75 1052.81 205.69 Z" fill="#febf63" fill-rule="nonzero" group-id="1" id="路径" node-id="9" stroke="none" target-height="422.5579" target-width="405.8969" target-x="769.5418" target-y="121.272194"></path><path d="M 629.01 142.74 L 698.85 164.42 C 700.16 164.83 700.81 165.73 700.81 167.12 C 700.81 167.78 700.94 168.35 701.18 168.84 L 691.97 178.55 C 532.09 128.67 383.03 157.66 255.64 265.82 L 239.00 254.83 C 246.28 246.39 252.04 240.46 256.26 237.02 C 364.80 149.23 489.06 117.80 629.01 142.74 Z" fill="#febf63" fill-rule="nonzero" group-id="1" id="路径" node-id="10" stroke="none" target-height="148.02214" target-width="462.18524" target-x="238.99615" target-y="117.800735"></path><path d="M 691.97 178.55 C 693.93 181.45 693.42 184.01 690.43 186.22 C 632.64 161.96 554.33 158.71 493.09 164.30 C 406.06 172.28 325.91 215.40 259.20 270.43 L 255.64 265.82 C 383.03 157.66 532.09 128.67 691.97 178.55 Z" fill="#a26064" fill-rule="nonzero" group-id="1" id="路径" node-id="11" stroke="none" target-height="141.75728" target-width="438.29285" target-x="255.64098" target-y="128.67207"></path><path d="M 690.43 186.22 L 679.68 209.26 C 634.56 199.84 604.73 194.35 590.20 192.79 C 472.88 180.08 371.97 217.67 278.67 287.32 C 270.48 283.76 263.99 278.13 259.20 270.43 C 325.91 215.40 406.06 172.28 493.09 164.30 C 554.33 158.71 632.64 161.96 690.43 186.22 Z" fill="#febf63" fill-rule="nonzero" group-id="1" id="路径" node-id="12" stroke="none" target-height="128.61342" target-width="431.22958" target-x="259.20334" target-y="158.70644"></path><path d="M 701.18 168.84 C 711.83 180.35 720.45 193.22 727.04 207.47 C 714.43 215.99 709.47 227.76 712.18 242.79 L 710.39 244.57 L 662.79 245.62 L 675.51 217.06 C 677.02 215.54 678.42 212.94 679.68 209.26 L 690.43 186.22 C 693.42 184.01 693.93 181.45 691.97 178.55 L 701.18 168.84 Z" fill="#e26452" fill-rule="nonzero" group-id="1" id="路径" node-id="13" stroke="none" target-height="76.77496" target-width="64.2453" target-x="662.79395" target-y="168.84073"></path><path d="M 679.68 209.26 C 678.42 212.94 677.02 215.54 675.51 217.06 C 564.71 182.78 458.31 192.08 356.31 244.94 C 342.75 251.94 317.98 267.69 281.99 292.17 L 278.67 287.32 C 371.97 217.67 472.88 180.08 590.20 192.79 C 604.73 194.35 634.56 199.84 679.68 209.26 Z" fill="#a26064" fill-rule="nonzero" group-id="1" id="路径" node-id="14" stroke="none" target-height="112.091446" target-width="401.011" target-x="278.67346" target-y="180.08058"></path><path d="M 675.51 217.06 L 662.79 245.62 C 528.69 203.44 408.92 226.64 303.49 315.20 L 281.99 292.17 C 317.98 267.69 342.75 251.94 356.31 244.94 C 458.31 192.08 564.71 182.78 675.51 217.06 Z" fill="#febf63" fill-rule="nonzero" group-id="1" id="路径" node-id="15" stroke="none" target-height="132.42146" target-width="393.51773" target-x="281.99014" target-y="182.78307"></path><path d="M 1052.81 205.69 L 1085.61 245.55 C 1086.35 246.46 1086.69 247.48 1086.65 248.63 C 1086.61 249.24 1086.59 249.85 1086.59 250.47 C 1086.59 250.80 1086.71 251.10 1086.96 251.39 C 1098.38 263.30 1107.47 276.74 1114.23 291.68 L 1101.95 288.61 L 1081.74 282.47 C 1079.86 281.89 1078.12 281.03 1076.52 279.89 C 1072.26 276.98 1067.43 276.47 1062.02 278.35 L 1035.00 269.57 C 1033.51 269.08 1032.35 267.89 1031.88 266.39 C 1031.42 264.89 1031.71 263.26 1032.66 262.01 C 1040.28 252.06 1038.50 239.47 1041.82 230.38 C 1044.85 221.91 1048.51 213.68 1052.81 205.69 Z" fill="#6e72ff" fill-rule="nonzero" group-id="1" id="路径" node-id="16" stroke="none" target-height="85.987946" target-width="82.810425" target-x="1031.4203" target-y="205.69272"></path><path d="M 727.04 207.47 L 748.23 238.31 C 749.38 239.99 748.95 240.87 746.94 240.95 L 712.18 242.79 C 709.47 227.76 714.43 215.99 727.04 207.47 Z" fill="#422845" fill-rule="nonzero" group-id="1" id="路径" node-id="17" stroke="none" target-height="35.316483" target-width="39.902527" target-x="709.4731" target-y="207.47389"></path><path d="M 239.00 254.83 L 255.64 265.82 L 259.20 270.43 C 263.99 278.13 270.48 283.76 278.67 287.32 L 281.99 292.17 L 303.49 315.20 C 260.31 347.14 206.75 307.96 239.00 254.83 Z" fill="#e26452" fill-rule="nonzero" group-id="1" id="路径" node-id="18" stroke="none" target-height="92.31419" target-width="96.73645" target-x="206.75067" target-y="254.82869"></path><path d="M 737.79 376.38 L 764.38 396.34 L 761.07 401.19 C 709.43 369.21 654.07 345.81 594.99 330.99 C 566.94 323.95 539.11 316.19 511.52 307.71 C 502.30 304.89 492.97 306.97 483.39 304.27 C 467.21 299.81 449.58 296.53 430.50 294.44 C 428.42 294.22 426.49 295.55 425.96 297.58 L 340.09 614.38 L 328.30 588.28 L 414.35 273.07 C 414.88 271.10 416.15 270.29 418.16 270.61 C 537.87 290.39 639.95 312.19 737.79 376.38 Z" fill="#e26452" fill-rule="nonzero" group-id="1" id="路径" node-id="19" stroke="none" target-height="344.09512" target-width="436.0818" target-x="328.30078" target-y="270.28604"></path><path d="M 1101.95 288.61 C 1087.74 288.61 1074.43 285.19 1062.02 278.35 C 1067.43 276.47 1072.26 276.98 1076.52 279.89 C 1078.12 281.03 1079.86 281.89 1081.74 282.47 L 1101.95 288.61 Z" fill="#f7ede5" fill-rule="nonzero" group-id="1" id="路径" node-id="20" stroke="none" target-height="12.140686" target-width="39.922974" target-x="1062.0237" target-y="276.469"></path><path d="M 761.07 401.19 L 633.62 876.71 C 631.72 877.20 629.87 877.14 628.15 875.91 C 557.34 827.32 496.22 797.72 411.89 787.95 C 409.76 787.71 408.31 786.60 407.53 784.64 L 384.93 726.35 C 462.69 738.18 537.52 760.03 609.42 791.88 C 611.47 792.79 612.94 792.21 613.84 790.17 C 614.05 789.67 614.44 789.26 615.01 788.94 C 616.73 787.91 616.69 787.01 614.89 786.23 C 540.65 753.64 463.47 731.24 383.33 719.04 C 376.45 710.36 371.77 700.55 369.27 689.62 C 369.80 688.47 370.91 688.00 372.58 688.21 C 460.25 699.67 543.41 722.69 622.07 757.24 C 625.92 758.96 626.95 757.92 625.14 754.11 C 622.20 747.97 612.98 745.27 607.39 742.99 C 529.51 711.02 448.77 689.64 365.15 678.87 L 340.09 614.38 L 425.96 297.58 C 426.49 295.55 428.42 294.22 430.50 294.44 C 449.58 296.53 467.21 299.81 483.39 304.27 C 492.97 306.97 502.30 304.89 511.52 307.71 C 539.11 316.19 566.94 323.95 594.99 330.99 C 654.07 345.81 709.43 369.21 761.07 401.19 Z M 709.41 430.24 C 623.18 392.49 533.87 368.50 441.50 358.26 C 438.00 357.83 434.86 359.73 438.00 363.79 C 438.59 364.50 439.42 364.96 440.33 365.08 C 532.83 375.76 621.48 399.04 706.28 434.91 C 709.15 436.10 710.52 435.01 710.39 431.66 C 710.40 431.07 710.01 430.51 709.41 430.24 L 709.41 430.24 Z M 700.08 466.42 C 614.46 427.81 524.87 403.73 431.30 394.19 C 429.29 393.97 427.44 395.36 427.06 397.38 C 426.53 400.25 428.15 401.87 431.92 402.24 C 523.80 411.45 612.16 434.30 697.00 470.78 C 700.65 472.34 702.16 471.50 701.55 468.26 C 701.39 467.42 700.84 466.73 700.08 466.42 L 700.08 466.42 Z M 682.94 498.11 C 598.75 462.04 511.13 438.88 420.06 428.65 C 418.47 428.46 415.03 429.57 416.38 431.35 C 418.33 434.05 420.24 435.91 421.17 436.02 C 513.09 447.20 601.64 470.82 686.81 506.90 C 688.77 507.76 690.00 507.14 690.49 505.05 C 691.85 498.97 686.38 499.59 682.94 498.11 Z M 678.95 536.38 C 594.23 497.72 505.37 474.26 412.38 465.99 C 407.39 465.54 406.92 467.40 410.97 471.58 C 411.61 472.22 412.45 472.63 413.37 472.75 C 505.78 483.15 594.60 506.92 679.81 544.06 C 680.67 544.44 681.67 544.26 682.35 543.62 C 683.04 542.98 683.27 541.99 682.94 541.11 C 682.04 538.73 680.71 537.16 678.95 536.38 Z M 670.23 571.88 C 584.65 534.37 495.34 510.27 402.31 499.59 C 400.59 499.38 399.30 500.02 398.44 501.49 L 397.34 503.33 C 395.99 505.63 396.64 506.92 399.30 507.20 C 492.62 517.81 582.31 541.74 668.38 579.00 C 670.80 580.07 672.01 579.27 672.01 576.61 C 672.01 575.95 672.01 575.30 672.01 574.64 C 672.01 573.45 671.31 572.37 670.23 571.88 L 670.23 571.88 Z M 658.99 607.01 C 573.73 568.15 484.14 544.63 390.21 536.44 C 389.64 536.40 389.07 536.61 388.67 537.01 C 388.27 537.42 388.07 537.97 388.12 538.53 C 388.43 541.17 390.52 543.38 393.28 543.69 C 486.11 554.13 574.98 577.88 659.91 614.93 C 660.75 615.30 661.73 615.13 662.41 614.50 C 663.08 613.88 663.33 612.92 663.04 612.05 C 662.18 609.51 660.83 607.83 658.99 607.01 Z M 648.18 640.79 C 567.39 606.52 483.45 583.71 396.35 572.37 C 391.44 571.69 382.04 568.62 378.85 574.70 C 377.54 577.12 378.26 578.47 381.00 578.76 C 474.07 588.95 563.44 612.68 649.10 649.94 C 650.13 650.38 651.31 650.23 652.20 649.54 C 653.08 648.85 653.51 647.73 653.34 646.63 C 652.84 644.01 651.12 642.06 648.18 640.79 Z M 641.91 679.06 C 557.56 641.39 469.44 617.68 377.56 607.93 C 376.71 607.81 375.84 607.92 375.04 608.24 C 367.96 611.06 367.16 612.78 372.65 613.40 C 465.10 624.00 553.88 648.10 638.96 685.69 C 641.54 686.84 642.83 686.00 642.83 683.17 L 642.83 680.53 C 642.83 679.89 642.47 679.32 641.91 679.06 L 641.91 679.06 Z M 632.58 714.37 C 547.57 677.56 459.41 653.16 368.10 641.16 C 361.92 640.34 358.83 642.18 358.83 646.69 C 358.79 648.72 360.36 650.46 362.45 650.68 C 455.56 659.65 544.72 683.27 629.93 721.56 C 632.39 722.66 633.62 721.87 633.62 719.16 L 633.62 715.97 C 633.62 715.23 633.27 714.70 632.58 714.37 Z" fill="#ffffff" fill-rule="nonzero" group-id="1" id="形状" node-id="21" stroke="none" target-height="582.9736" target-width="420.97244" target-x="340.0934" target-y="294.22363"></path><path d="M 73.16 313.18 L 174.51 343.89 L 236.91 363.97 C 238.81 364.60 240.35 366.04 241.08 367.90 L 328.30 588.28 L 340.09 614.38 L 365.15 678.87 L 369.27 689.62 C 371.77 700.55 376.45 710.36 383.33 719.04 L 384.93 726.35 L 407.53 784.64 C 408.31 786.60 409.76 787.71 411.89 787.95 C 496.22 797.72 557.34 827.32 628.15 875.91 C 629.87 877.14 631.72 877.20 633.62 876.71 L 639.76 878.24 L 690.43 878.73 C 689.00 882.75 686.42 885.61 682.69 887.33 C 680.56 888.31 680.54 889.36 682.63 890.46 C 688.86 893.90 695.55 895.97 702.72 896.67 L 719.61 901.27 L 711.93 904.84 L 631.29 887.88 L 605.98 876.71 L 584.48 865.96 C 580.39 858.67 574.25 853.71 566.06 851.09 C 544.50 840.59 447.70 802.82 428.78 814.30 C 427.19 815.29 427.29 816.08 429.09 816.70 L 434.00 818.36 L 427.86 818.66 C 427.08 818.66 426.74 819.07 426.82 819.89 C 427.02 821.20 427.37 822.23 427.86 822.96 C 427.25 823.62 426.47 824.11 425.53 824.44 C 422.87 825.38 422.58 826.55 424.67 827.94 C 425.53 828.51 426.08 829.06 426.33 829.60 C 425.71 834.55 427.25 838.65 430.93 841.88 L 458.57 912.82 C 459.51 915.20 461.23 916.36 463.73 916.32 L 639.76 915.09 C 684.84 918.29 729.89 917.78 774.89 913.56 L 817.88 916.63 L 834.77 913.56 C 843.49 916.42 852.27 917.02 861.12 915.34 L 880.83 916.63 L 925.67 917.00 C 927.72 917.00 929.44 917.75 930.83 919.27 L 967.07 958.33 L 992.68 985.97 L 1028.00 1024.36 L 1071.24 1071.71 L 365.15 1075.03 L 298.63 919.95 L 209.58 708.05 L 56.52 341.06 L 46.87 314.84 C 46.23 313.11 46.60 311.18 47.83 309.81 C 49.06 308.43 50.96 307.84 52.77 308.26 L 73.16 313.18 Z M 372.58 1051.75 C 382.72 1033.76 446.47 923.88 441.87 911.96 C 374.39 737.69 307.15 564.47 240.16 392.29 C 238.57 388.23 235.68 385.61 231.50 384.42 L 77.65 341.12 C 77.19 340.99 76.70 341.13 76.38 341.49 C 76.07 341.84 75.99 342.35 76.17 342.78 L 370.00 1051.57 C 370.23 1052.08 370.72 1052.42 371.27 1052.47 C 371.82 1052.50 372.33 1052.23 372.58 1051.75 L 372.58 1051.75 Z M 534.12 827.82 C 515.57 809.94 437.63 797.29 413.61 795.20 C 411.44 795.00 411.01 795.77 412.32 797.54 L 414.72 800.79 C 415.78 802.26 417.22 803.06 419.02 803.19 C 457.88 806.42 495.32 815.29 531.36 829.78 C 536.84 831.99 537.76 831.34 534.12 827.82 Z M 404.52 1054.82 C 403.76 1056.42 403.87 1058.29 404.82 1059.78 C 405.77 1061.27 407.42 1062.16 409.19 1062.13 L 935.31 1059.31 C 937.16 1059.30 938.86 1058.29 939.76 1056.67 C 940.65 1055.05 940.59 1053.08 939.61 1051.51 L 865.23 932.60 C 864.31 931.11 862.68 930.21 860.93 930.20 L 467.60 929.90 C 465.64 929.89 463.85 931.01 462.99 932.78 L 404.52 1054.82 Z" fill="#422845" fill-rule="nonzero" group-id="1" id="形状" node-id="22" stroke="none" target-height="767.192" target-width="1025.0068" target-x="46.229828" target-y="307.8389"></path><path d="M 1133.03 327.12 C 1207.47 474.61 1219.85 627.67 1170.18 786.30 C 1168.26 766.72 1166.03 747.15 1163.49 727.58 C 1157.35 680.78 1138.49 638.15 1108.89 602.65 C 1102.25 594.71 1096.28 586.33 1090.95 577.53 C 1102.87 541.41 1112.16 504.64 1118.84 467.22 L 1135.36 472.50 C 1139.04 473.69 1139.90 472.60 1137.94 469.25 L 1068.17 351.93 C 1067.06 350.09 1067.49 348.72 1069.46 347.82 C 1087.68 339.71 1108.87 332.81 1133.03 327.12 Z" fill="#6e72ff" fill-rule="nonzero" group-id="1" id="路径" node-id="23" stroke="none" target-height="459.17566" target-width="152.79236" target-x="1067.0602" target-y="327.12"></path><path d="M 56.52 341.06 L 209.58 708.05 L 161.67 787.77 C 160.94 788.98 159.76 789.85 158.39 790.19 C 157.01 790.52 155.56 790.29 154.36 789.55 L 28.94 712.47 C 28.18 711.98 27.17 712.07 26.52 712.70 C 25.86 713.33 25.72 714.32 26.18 715.11 L 102.34 854.10 C 102.85 855.03 102.98 856.13 102.69 857.14 C 102.40 858.16 101.72 859.01 100.80 859.51 L 66.59 878.36 C -18.70 700.94 -22.06 521.84 56.52 341.06 Z" fill="#6e72ff" fill-rule="nonzero" group-id="1" id="路径" node-id="24" stroke="none" target-height="537.3019" target-width="231.63516" target-x="-22.059175" target-y="341.06232"></path><path d="M 441.87 911.96 C 446.47 923.88 382.72 1033.76 372.58 1051.75 C 372.33 1052.23 371.82 1052.50 371.27 1052.47 C 370.72 1052.42 370.23 1052.08 370.00 1051.57 L 76.17 342.78 C 75.99 342.35 76.07 341.84 76.38 341.49 C 76.70 341.13 77.19 340.99 77.65 341.12 L 231.50 384.42 C 235.68 385.61 238.57 388.23 240.16 392.29 C 307.15 564.47 374.39 737.69 441.87 911.96 Z" fill="#b5e1e8" fill-rule="nonzero" group-id="1" id="路径" node-id="25" stroke="none" target-height="711.511" target-width="370.48575" target-x="75.98707" target-y="340.99146"></path><path d="M 709.41 430.24 C 710.01 430.51 710.40 431.07 710.39 431.66 C 710.52 435.01 709.15 436.10 706.28 434.91 C 621.48 399.04 532.83 375.76 440.33 365.08 C 439.42 364.96 438.59 364.50 438.00 363.79 C 434.86 359.73 438.00 357.83 441.50 358.26 C 533.87 368.50 623.18 392.49 709.41 430.24 Z" fill="#a26064" fill-rule="nonzero" group-id="1" id="路径" node-id="26" stroke="none" target-height="78.2695" target-width="275.65283" target-x="434.86444" target-y="357.83"></path><path d="M 868.31 393.27 L 857.56 408.62 C 828.20 404.37 798.68 402.83 768.99 404.02 L 770.28 398.12 L 868.31 393.27 Z" fill="#e26452" fill-rule="nonzero" group-id="1" id="路径" node-id="27" stroke="none" target-height="15.355011" target-width="99.31604" target-x="768.9891" target-y="393.2693"></path><path d="M 700.08 466.42 C 700.84 466.73 701.39 467.42 701.55 468.26 C 702.16 471.50 700.65 472.34 697.00 470.78 C 612.16 434.30 523.80 411.45 431.92 402.24 C 428.15 401.87 426.53 400.25 427.06 397.38 C 427.44 395.36 429.29 393.97 431.30 394.19 C 524.87 403.73 614.46 427.81 700.08 466.42 Z" fill="#a26064" fill-rule="nonzero" group-id="1" id="路径" node-id="28" stroke="none" target-height="78.36832" target-width="275.63232" target-x="426.5318" target-y="393.96893"></path><path d="M 764.38 396.34 L 770.28 398.12 L 768.99 404.02 L 639.76 878.24 L 633.62 876.71 L 761.07 401.19 Z" fill="#a26064" fill-rule="nonzero" group-id="1" id="路径" node-id="29" stroke="none" target-height="481.90103" target-width="136.65942" target-x="633.61945" target-y="396.3403"></path><path d="M 768.99 404.02 C 798.68 402.83 828.20 404.37 857.56 408.62 C 849.12 426.11 838.88 442.49 826.85 457.76 C 820.77 455.86 785.94 447.26 788.89 456.90 C 789.46 458.70 790.67 459.75 792.51 460.03 L 820.95 464.15 L 816.28 474.96 C 814.85 478.27 815.79 479.20 819.11 477.72 L 843.98 466.73 C 888.61 474.71 932.55 485.54 975.79 499.22 C 985.17 510.72 992.41 523.44 997.53 537.36 C 929.15 513.61 859.05 497.17 787.23 488.04 C 783.63 487.59 780.47 488.43 777.77 490.56 C 776.82 491.32 776.42 492.57 776.76 493.74 C 777.09 494.91 778.10 495.76 779.31 495.90 C 873.16 505.07 963.10 528.78 1049.13 567.03 C 1050.35 567.56 1051.46 567.35 1052.44 566.41 L 1054.04 564.75 C 1055.10 563.69 1054.96 562.85 1053.61 562.24 L 1006.99 540.68 L 1008.53 509.97 L 1058.34 531.16 C 1060.06 531.89 1061.47 531.51 1062.58 529.99 L 1063.62 528.52 C 1064.69 527.08 1064.40 526.00 1062.76 525.26 L 1010.06 502.29 C 1008.75 484.03 1010.21 466.03 1014.42 448.30 L 1048.20 454.44 L 1096.36 472.75 C 1098.49 473.57 1099.31 475.08 1098.81 477.29 L 1092.73 504.07 C 1087.70 513.57 1085.22 523.73 1085.30 534.54 L 1069.46 594.42 C 1062.78 606.91 1058.85 620.22 1057.66 634.34 L 1044.89 683.48 C 1039.07 693.96 1036.17 705.22 1036.17 717.26 L 1020.32 775.61 C 1015.37 785.19 1012.46 795.43 1011.60 806.32 L 971.06 956.18 C 970.73 957.37 969.96 958.03 968.73 958.15 C 968.19 958.23 967.64 958.29 967.07 958.33 L 930.83 919.27 C 929.44 917.75 927.72 917.00 925.67 917.00 L 880.83 916.63 C 820.56 888.50 757.09 875.87 690.43 878.73 L 639.76 878.24 L 768.99 404.02 Z M 1044.09 596.08 C 957.57 558.69 867.49 534.35 773.84 523.05 C 771.47 522.76 770.28 523.83 770.28 526.24 C 770.28 526.73 770.28 527.25 770.28 527.78 C 770.28 529.74 771.26 530.85 773.23 531.10 C 864.70 541.33 952.55 564.71 1036.78 601.24 C 1040.59 602.90 1043.72 601.54 1044.83 597.67 C 1045.04 597.03 1044.72 596.33 1044.09 596.08 Z M 1030.39 630.47 C 945.02 592.31 855.65 568.81 762.29 559.96 C 760.37 559.80 759.43 560.68 759.47 562.60 C 759.59 565.80 761.93 567.15 765.12 567.46 C 858.19 577.37 947.48 601.32 1032.97 639.32 C 1037.39 641.28 1038.44 640.16 1036.10 635.94 C 1034.71 633.36 1032.81 631.54 1030.39 630.47 Z M 1019.64 664.13 C 934.31 628.34 845.62 604.98 753.57 594.05 C 750.95 593.72 749.97 594.83 750.62 597.37 L 751.12 599.27 C 751.61 601.11 752.82 602.14 754.74 602.34 C 847.24 612.50 935.93 636.43 1020.81 674.14 C 1026.22 676.56 1027.67 675.08 1025.17 669.72 C 1023.94 667.02 1022.10 665.16 1019.64 664.13 Z M 1015.16 703.07 C 928.35 664.50 837.70 640.44 743.19 630.90 C 741.80 630.74 741.10 631.35 741.10 632.75 C 741.10 633.36 741.10 633.97 741.10 634.59 C 741.10 636.72 742.15 637.91 744.24 638.15 C 837.06 647.94 926.12 671.75 1011.41 709.58 C 1013.71 710.61 1015.04 709.87 1015.41 707.37 L 1015.84 704.36 C 1015.94 703.83 1015.66 703.29 1015.16 703.07 L 1015.16 703.07 Z M 1004.78 739.56 C 1004.43 738.65 1003.72 737.93 1002.81 737.53 C 917.44 700.47 828.67 676.42 736.50 665.36 C 732.94 664.95 731.44 666.65 732.01 670.46 C 732.30 672.26 733.37 673.26 735.21 673.47 C 827.22 683.54 915.58 707.08 1000.30 744.10 C 1001.03 744.43 1001.81 744.49 1002.63 744.28 C 1005.05 743.75 1005.76 742.18 1004.78 739.56 Z M 996.73 774.75 C 909.23 735.81 818.84 711.85 725.57 702.89 C 724.95 702.85 724.40 702.85 723.91 702.89 C 722.38 703.15 721.25 704.49 721.27 706.04 C 721.28 707.58 722.44 708.86 723.97 709.03 C 816.71 719.27 905.89 742.79 991.51 779.60 C 992.82 780.13 993.99 779.91 995.01 778.93 L 997.10 776.78 C 997.41 776.49 997.54 776.07 997.47 775.66 C 997.39 775.25 997.12 774.91 996.73 774.75 L 996.73 774.75 Z M 985.56 815.04 L 985.92 813.44 C 986.46 810.95 985.56 809.21 983.22 808.22 C 897.97 771.53 809.20 747.58 716.90 736.36 C 714.81 736.12 712.85 737.39 712.30 739.37 C 711.36 742.69 712.42 744.51 715.49 744.84 C 808.89 754.54 898.01 778.39 982.85 816.39 C 984.33 817.05 985.23 816.60 985.56 815.04 Z M 974.93 844.03 C 888.08 806.56 797.61 782.67 703.52 772.35 C 702.44 772.21 701.39 772.77 700.92 773.75 C 700.45 774.73 700.65 775.90 701.43 776.65 L 704.01 779.23 C 705.15 780.38 706.55 781.03 708.18 781.20 C 799.62 790.70 887.51 813.59 971.86 849.87 C 974.93 851.18 976.71 850.68 977.20 848.39 C 977.56 846.58 976.62 844.77 974.93 844.03 L 974.93 844.03 Z M 964.86 879.53 C 879.24 842.43 790.02 818.58 697.19 807.98 C 694.73 807.69 693.50 808.78 693.50 811.23 L 693.50 813.93 C 693.50 815.17 694.46 816.20 695.72 816.33 C 788.38 825.26 877.23 849.03 962.28 887.64 C 964.49 888.66 966.13 887.99 967.19 885.61 C 967.71 884.50 967.75 883.22 967.31 882.08 C 966.87 880.93 965.98 880.02 964.86 879.53 L 964.86 879.53 Z" fill="#ffffff" fill-rule="nonzero" group-id="1" id="形状" node-id="30" stroke="none" target-height="555.5027" target-width="459.5442" target-x="639.7615" target-y="402.83032"></path><path d="M 971.18 490.01 C 932.94 478.34 894.12 469.04 854.73 462.12 L 931.20 426.62 C 933.37 425.60 935.05 426.13 936.24 428.22 L 971.18 490.01 Z" fill="#ffffff" fill-rule="nonzero" group-id="1" id="路径" node-id="31" stroke="none" target-height="64.40906" target-width="116.45227" target-x="854.7313" target-y="425.59668"></path><path d="M 682.94 498.11 C 686.38 499.59 691.85 498.97 690.49 505.05 C 690.00 507.14 688.77 507.76 686.81 506.90 C 601.64 470.82 513.09 447.20 421.17 436.02 C 420.24 435.91 418.33 434.05 416.38 431.35 C 415.03 429.57 418.47 428.46 420.06 428.65 C 511.13 438.88 598.75 462.04 682.94 498.11 Z" fill="#a26064" fill-rule="nonzero" group-id="1" id="路径" node-id="32" stroke="none" target-height="79.29318" target-width="276.8198" target-x="415.0258" target-y="428.46292"></path><path d="M 1118.84 467.22 C 1112.16 504.64 1102.87 541.41 1090.95 577.53 C 1090.40 590.00 1085.36 600.81 1082.72 610.20 C 1069.91 656.60 1057.29 703.03 1044.89 749.51 C 1037.35 761.13 1033.93 773.93 1034.63 787.89 L 995.75 930.69 C 991.12 938.23 989.24 946.42 990.10 955.26 C 985.39 966.19 986.25 976.43 992.68 985.97 L 967.07 958.33 C 967.64 958.29 968.19 958.23 968.73 958.15 C 969.96 958.03 970.73 957.37 971.06 956.18 L 1011.60 806.32 C 1017.08 796.82 1019.99 786.58 1020.32 775.61 L 1036.17 717.26 C 1041.94 706.70 1044.85 695.44 1044.89 683.48 L 1057.66 634.34 C 1063.93 621.73 1067.86 608.42 1069.46 594.42 L 1085.30 534.54 C 1090.30 524.95 1092.77 514.80 1092.73 504.07 L 1098.81 477.29 C 1099.31 475.08 1098.49 473.57 1096.36 472.75 L 1048.20 454.44 C 1038.46 449.82 1028.22 447.26 1017.49 446.77 C 1013.32 444.68 1011.25 441.22 1011.29 436.39 C 1011.31 434.68 1012.15 433.08 1013.56 432.11 C 1014.96 431.13 1016.75 430.90 1018.35 431.47 L 1118.84 467.22 Z" fill="#e26452" fill-rule="nonzero" group-id="1" id="路径" node-id="33" stroke="none" target-height="555.0756" target-width="151.76868" target-x="967.0685" target-y="430.89636"></path><path d="M 1017.49 446.77 C 1028.22 447.26 1038.46 449.82 1048.20 454.44 L 1014.42 448.30 L 1017.49 446.77 Z" fill="#ff9582" fill-rule="nonzero" group-id="1" id="路径" node-id="34" stroke="none" target-height="7.67749" target-width="33.780945" target-x="1014.4233" target-y="446.76608"></path><path d="M 826.85 457.76 C 826.76 461.53 824.80 463.66 820.95 464.15 L 792.51 460.03 C 790.67 459.75 789.46 458.70 788.89 456.90 C 785.94 447.26 820.77 455.86 826.85 457.76 Z" fill="#a26064" fill-rule="nonzero" group-id="1" id="路径" node-id="35" stroke="none" target-height="16.890503" target-width="40.9057" target-x="785.941" target-y="447.25745"></path><path d="M 854.73 462.12 C 894.12 469.04 932.94 478.34 971.18 490.01 C 974.75 492.01 976.28 495.08 975.79 499.22 C 932.55 485.54 888.61 474.71 843.98 466.73 C 845.50 462.22 849.08 460.69 854.73 462.12 Z" fill="#a26064" fill-rule="nonzero" group-id="1" id="路径" node-id="36" stroke="none" target-height="38.530792" target-width="132.29858" target-x="843.98285" target-y="460.68796"></path><path d="M 678.95 536.38 C 680.71 537.16 682.04 538.73 682.94 541.11 C 683.27 541.99 683.04 542.98 682.35 543.62 C 681.67 544.26 680.67 544.44 679.81 544.06 C 594.60 506.92 505.78 483.15 413.37 472.75 C 412.45 472.63 411.61 472.22 410.97 471.58 C 406.92 467.40 407.39 465.54 412.38 465.99 C 505.37 474.26 594.23 497.72 678.95 536.38 Z" fill="#a26064" fill-rule="nonzero" group-id="1" id="路径" node-id="37" stroke="none" target-height="78.895294" target-width="276.34882" target-x="406.91833" target-y="465.54013"></path><path d="M 997.53 537.36 L 1002.45 542.40 C 1003.84 543.83 1005.03 543.69 1006.01 541.97 C 1006.30 541.48 1006.62 541.05 1006.99 540.68 L 1053.61 562.24 C 1054.96 562.85 1055.10 563.69 1054.04 564.75 L 1052.44 566.41 C 1051.46 567.35 1050.35 567.56 1049.13 567.03 C 963.10 528.78 873.16 505.07 779.31 495.90 C 778.10 495.76 777.09 494.91 776.76 493.74 C 776.42 492.57 776.82 491.32 777.77 490.56 C 780.47 488.43 783.63 487.59 787.23 488.04 C 859.05 497.17 929.15 513.61 997.53 537.36 Z" fill="#a26064" fill-rule="nonzero" group-id="1" id="路径" node-id="38" stroke="none" target-height="79.96881" target-width="278.68414" target-x="776.4196" target-y="487.5899"></path><path d="M 670.23 571.88 C 671.31 572.37 672.01 573.45 672.01 574.64 C 672.01 575.30 672.01 575.95 672.01 576.61 C 672.01 579.27 670.80 580.07 668.38 579.00 C 582.31 541.74 492.62 517.81 399.30 507.20 C 396.64 506.92 395.99 505.63 397.34 503.33 L 398.44 501.49 C 399.30 500.02 400.59 499.38 402.31 499.59 C 495.34 510.27 584.65 534.37 670.23 571.88 Z" fill="#a26064" fill-rule="nonzero" group-id="1" id="路径" node-id="39" stroke="none" target-height="80.68533" target-width="276.02783" target-x="395.9856" target-y="499.38254"></path><path d="M 1010.06 502.29 L 1062.76 525.26 C 1064.40 526.00 1064.69 527.08 1063.62 528.52 L 1062.58 529.99 C 1061.47 531.51 1060.06 531.89 1058.34 531.16 L 1008.53 509.97 L 1010.06 502.29 Z" fill="#a26064" fill-rule="nonzero" group-id="1" id="路径" node-id="40" stroke="none" target-height="29.604431" target-width="56.158386" target-x="1008.5269" target-y="502.28973"></path><path d="M 1092.73 504.07 C 1092.77 514.80 1090.30 524.95 1085.30 534.54 C 1085.22 523.73 1087.70 513.57 1092.73 504.07 Z" fill="#ff9582" fill-rule="nonzero" group-id="1" id="路径" node-id="41" stroke="none" target-height="30.464294" target-width="7.5546875" target-x="1085.22" target-y="504.07092"></path><path d="M 1044.09 596.08 C 1044.72 596.33 1045.04 597.03 1044.83 597.67 C 1043.72 601.54 1040.59 602.90 1036.78 601.24 C 952.55 564.71 864.70 541.33 773.23 531.10 C 771.26 530.85 770.28 529.74 770.28 527.78 C 770.28 527.25 770.28 526.73 770.28 526.24 C 770.28 523.83 771.47 522.76 773.84 523.05 C 867.49 534.35 957.57 558.69 1044.09 596.08 Z" fill="#a26064" fill-rule="nonzero" group-id="1" id="路径" node-id="42" stroke="none" target-height="80.13257" target-width="274.75885" target-x="770.2789" target-y="522.76306"></path><path d="M 658.99 607.01 C 660.83 607.83 662.18 609.51 663.04 612.05 C 663.33 612.92 663.08 613.88 662.41 614.50 C 661.73 615.13 660.75 615.30 659.91 614.93 C 574.98 577.88 486.11 554.13 393.28 543.69 C 390.52 543.38 388.43 541.17 388.12 538.53 C 388.07 537.97 388.27 537.42 388.67 537.01 C 389.07 536.61 389.64 536.40 390.21 536.44 C 484.14 544.63 573.73 568.15 658.99 607.01 Z" fill="#a26064" fill-rule="nonzero" group-id="1" id="路径" node-id="43" stroke="none" target-height="78.89429" target-width="275.2647" target-x="388.06708" target-y="536.402"></path><path d="M 1030.39 630.47 C 1032.81 631.54 1034.71 633.36 1036.10 635.94 C 1038.44 640.16 1037.39 641.28 1032.97 639.32 C 947.48 601.32 858.19 577.37 765.12 567.46 C 761.93 567.15 759.59 565.80 759.47 562.60 C 759.43 560.68 760.37 559.80 762.29 559.96 C 855.65 568.81 945.02 592.31 1030.39 630.47 Z" fill="#a26064" fill-rule="nonzero" group-id="1" id="路径" node-id="44" stroke="none" target-height="81.483826" target-width="279.01044" target-x="759.42804" target-y="559.7993"></path><path d="M 648.18 640.79 C 651.12 642.06 652.84 644.01 653.34 646.63 C 653.51 647.73 653.08 648.85 652.20 649.54 C 651.31 650.23 650.13 650.38 649.10 649.94 C 563.44 612.68 474.07 588.95 381.00 578.76 C 378.26 578.47 377.54 577.12 378.85 574.70 C 382.04 568.62 391.44 571.69 396.35 572.37 C 483.45 583.71 567.39 606.52 648.18 640.79 Z" fill="#a26064" fill-rule="nonzero" group-id="1" id="路径" node-id="45" stroke="none" target-height="81.76013" target-width="275.97583" target-x="377.53912" target-y="568.6233"></path><path d="M 1090.95 577.53 C 1096.28 586.33 1102.25 594.71 1108.89 602.65 C 1138.49 638.15 1157.35 680.78 1163.49 727.58 C 1166.03 747.15 1168.26 766.72 1170.18 786.30 C 1152.74 889.11 1119.94 964.66 1028.00 1024.36 L 992.68 985.97 C 986.25 976.43 985.39 966.19 990.10 955.26 C 993.87 947.60 995.75 939.42 995.75 930.69 L 1034.63 787.89 C 1041.18 775.94 1044.60 763.14 1044.89 749.51 C 1057.29 703.03 1069.91 656.60 1082.72 610.20 C 1085.36 600.81 1090.40 590.00 1090.95 577.53 Z" fill="#f8bdff" fill-rule="nonzero" group-id="1" id="路径" node-id="46" stroke="none" target-height="446.83032" target-width="184.79224" target-x="985.3921" target-y="577.5292"></path><path d="M 1019.64 664.13 C 1022.10 665.16 1023.94 667.02 1025.17 669.72 C 1027.67 675.08 1026.22 676.56 1020.81 674.14 C 935.93 636.43 847.24 612.50 754.74 602.34 C 752.82 602.14 751.61 601.11 751.12 599.27 L 750.62 597.37 C 749.97 594.83 750.95 593.72 753.57 594.05 C 845.62 604.98 934.31 628.34 1019.64 664.13 Z" fill="#a26064" fill-rule="nonzero" group-id="1" id="路径" node-id="47" stroke="none" target-height="82.83508" target-width="277.70007" target-x="749.96936" target-y="593.7236"></path><path d="M 1069.46 594.42 C 1067.86 608.42 1063.93 621.73 1057.66 634.34 C 1058.85 620.22 1062.78 606.91 1069.46 594.42 Z" fill="#ff9582" fill-rule="nonzero" group-id="1" id="路径" node-id="48" stroke="none" target-height="39.922974" target-width="11.792725" target-x="1057.6628" target-y="594.4197"></path><path d="M 641.91 679.06 C 642.47 679.32 642.83 679.89 642.83 680.53 L 642.83 683.17 C 642.83 686.00 641.54 686.84 638.96 685.69 C 553.88 648.10 465.10 624.00 372.65 613.40 C 367.16 612.78 367.96 611.06 375.04 608.24 C 375.84 607.92 376.71 607.81 377.56 607.93 C 469.44 617.68 557.56 641.39 641.91 679.06 Z" fill="#a26064" fill-rule="nonzero" group-id="1" id="路径" node-id="49" stroke="none" target-height="79.024536" target-width="275.6733" target-x="367.15915" target-y="607.8117"></path><path d="M 1015.16 703.07 C 1015.66 703.29 1015.94 703.83 1015.84 704.36 L 1015.41 707.37 C 1015.04 709.87 1013.71 710.61 1011.41 709.58 C 926.12 671.75 837.06 647.94 744.24 638.15 C 742.15 637.91 741.10 636.72 741.10 634.59 C 741.10 633.97 741.10 633.36 741.10 632.75 C 741.10 631.35 741.80 630.74 743.19 630.90 C 837.70 640.44 928.35 664.50 1015.16 703.07 Z" fill="#a26064" fill-rule="nonzero" group-id="1" id="路径" node-id="50" stroke="none" target-height="79.866394" target-width="274.83508" target-x="741.1044" target-y="630.7394"></path><path d="M 632.58 714.37 C 633.27 714.70 633.62 715.23 633.62 715.97 L 633.62 719.16 C 633.62 721.87 632.39 722.66 629.93 721.56 C 544.72 683.27 455.56 659.65 362.45 650.68 C 360.36 650.46 358.79 648.72 358.83 646.69 C 358.83 642.18 361.92 640.34 368.10 641.16 C 459.41 653.16 547.57 677.56 632.58 714.37 Z" fill="#a26064" fill-rule="nonzero" group-id="1" id="路径" node-id="51" stroke="none" target-height="82.32318" target-width="274.83047" target-x="358.78897" target-y="640.3414"></path><path d="M 1004.78 739.56 C 1005.76 742.18 1005.05 743.75 1002.63 744.28 C 1001.81 744.49 1001.03 744.43 1000.30 744.10 C 915.58 707.08 827.22 683.54 735.21 673.47 C 733.37 673.26 732.30 672.26 732.01 670.46 C 731.44 666.65 732.94 664.95 736.50 665.36 C 828.67 676.42 917.44 700.47 1002.81 737.53 C 1003.72 737.93 1004.43 738.65 1004.78 739.56 L 1004.78 739.56 Z" fill="#a26064" fill-rule="nonzero" group-id="1" id="路径" node-id="52" stroke="none" target-height="79.53888" target-width="274.32202" target-x="731.441" target-y="664.95026"></path><path d="M 365.15 678.87 C 448.77 689.64 529.51 711.02 607.39 742.99 C 612.98 745.27 622.20 747.97 625.14 754.11 C 626.95 757.92 625.92 758.96 622.07 757.24 C 543.41 722.69 460.25 699.67 372.58 688.21 C 370.91 688.00 369.80 688.47 369.27 689.62 L 365.15 678.87 Z" fill="#a26064" fill-rule="nonzero" group-id="1" id="路径" node-id="53" stroke="none" target-height="80.091675" target-width="261.79236" target-x="365.15277" target-y="678.87213"></path><path d="M 1044.89 683.48 C 1044.85 695.44 1041.94 706.70 1036.17 717.26 C 1036.17 705.22 1039.07 693.96 1044.89 683.48 Z" fill="#ff9582" fill-rule="nonzero" group-id="1" id="路径" node-id="54" stroke="none" target-height="33.781006" target-width="8.72168" target-x="1036.1659" target-y="683.47864"></path><path d="M 996.73 774.75 C 997.12 774.91 997.39 775.25 997.47 775.66 C 997.54 776.07 997.41 776.49 997.10 776.78 L 995.01 778.93 C 993.99 779.91 992.82 780.13 991.51 779.60 C 905.89 742.79 816.71 719.27 723.97 709.03 C 722.44 708.86 721.28 707.58 721.27 706.04 C 721.25 704.49 722.38 703.15 723.91 702.89 C 724.40 702.85 724.95 702.85 725.57 702.89 C 818.84 711.85 909.23 735.81 996.73 774.75 Z" fill="#a26064" fill-rule="nonzero" group-id="1" id="路径" node-id="55" stroke="none" target-height="77.286804" target-width="276.28912" target-x="721.2539" target-y="702.8464"></path><path d="M 209.58 708.05 L 298.63 919.95 C 295.44 919.99 292.86 920.66 290.90 921.97 C 288.85 923.28 288.05 925.13 288.50 927.50 L 311.47 1048.07 C 311.63 1048.90 311.22 1049.73 310.46 1050.11 C 309.71 1050.50 308.80 1050.34 308.22 1049.73 L 235.31 969.57 C 233.85 967.99 231.41 967.80 229.72 969.14 L 169.65 1018.22 L 128.81 1050.46 C 126.31 1052.43 125.08 1051.81 125.12 1048.62 L 126.66 967.55 L 128.75 936.41 C 128.91 934.40 127.99 933.25 125.98 932.97 L 99.27 929.40 L 4.00 916.81 C 0.81 916.36 0.63 915.34 3.45 913.74 L 66.59 878.36 L 100.80 859.51 C 101.72 859.01 102.40 858.16 102.69 857.14 C 102.98 856.13 102.85 855.03 102.34 854.10 L 26.18 715.11 C 25.72 714.32 25.86 713.33 26.52 712.70 C 27.17 712.07 28.18 711.98 28.94 712.47 L 154.36 789.55 C 155.56 790.29 157.01 790.52 158.39 790.19 C 159.76 789.85 160.94 788.98 161.67 787.77 L 209.58 708.05 Z" fill="#febf63" fill-rule="nonzero" group-id="1" id="路径" node-id="56" stroke="none" target-height="344.3817" target-width="311.00192" target-x="0.62526506" target-y="708.04663"></path><path d="M 383.33 719.04 C 463.47 731.24 540.65 753.64 614.89 786.23 C 616.69 787.01 616.73 787.91 615.01 788.94 C 614.44 789.26 614.05 789.67 613.84 790.17 C 612.94 792.21 611.47 792.79 609.42 791.88 C 537.52 760.03 462.69 738.18 384.93 726.35 L 383.33 719.04 Z" fill="#a26064" fill-rule="nonzero" group-id="1" id="路径" node-id="57" stroke="none" target-height="73.744934" target-width="233.39587" target-x="383.33307" target-y="719.0408"></path><path d="M 985.56 815.04 C 985.23 816.60 984.33 817.05 982.85 816.39 C 898.01 778.39 808.89 754.54 715.49 744.84 C 712.42 744.51 711.36 742.69 712.30 739.37 C 712.85 737.39 714.81 736.12 716.90 736.36 C 809.20 747.58 897.97 771.53 983.22 808.22 C 985.56 809.21 986.46 810.95 985.92 813.44 L 985.56 815.04 Z" fill="#a26064" fill-rule="nonzero" group-id="1" id="路径" node-id="58" stroke="none" target-height="80.92938" target-width="275.10004" target-x="711.3566" target-y="736.1172"></path><path d="M 1044.89 749.51 C 1044.60 763.14 1041.18 775.94 1034.63 787.89 C 1033.93 773.93 1037.35 761.13 1044.89 749.51 Z" fill="#ff9582" fill-rule="nonzero" group-id="1" id="路径" node-id="59" stroke="none" target-height="38.38745" target-width="10.953247" target-x="1033.9343" target-y="749.5051"></path><path d="M 974.93 844.03 C 976.62 844.77 977.56 846.58 977.20 848.39 C 976.71 850.68 974.93 851.18 971.86 849.87 C 887.51 813.59 799.62 790.70 708.18 781.20 C 706.55 781.03 705.15 780.38 704.01 779.23 L 701.43 776.65 C 700.65 775.90 700.45 774.73 700.92 773.75 C 701.39 772.77 702.44 772.21 703.52 772.35 C 797.61 782.67 888.08 806.56 974.93 844.03 Z" fill="#a26064" fill-rule="nonzero" group-id="1" id="路径" node-id="60" stroke="none" target-height="78.96454" target-width="277.11414" target-x="700.44604" target-y="772.21106"></path><path d="M 1020.32 775.61 C 1019.99 786.58 1017.08 796.82 1011.60 806.32 C 1012.46 795.43 1015.37 785.19 1020.32 775.61 Z" fill="#ff9582" fill-rule="nonzero" group-id="1" id="路径" node-id="61" stroke="none" target-height="30.710022" target-width="8.72168" target-x="1011.5979" target-y="775.6086"></path><path d="M 413.61 795.20 C 437.63 797.29 515.57 809.94 534.12 827.82 C 537.76 831.34 536.84 831.99 531.36 829.78 C 495.32 815.29 457.88 806.42 419.02 803.19 C 417.22 803.06 415.78 802.26 414.72 800.79 L 412.32 797.54 C 411.01 795.77 411.44 795.00 413.61 795.20 Z" fill="#ebecee" fill-rule="nonzero" group-id="1" id="路径" node-id="62" stroke="none" target-height="36.9953" target-width="126.75037" target-x="411.013" target-y="794.9968"></path><path d="M 964.86 879.53 C 965.98 880.02 966.87 880.93 967.31 882.08 C 967.75 883.22 967.71 884.50 967.19 885.61 C 966.13 887.99 964.49 888.66 962.28 887.64 C 877.23 849.03 788.38 825.26 695.72 816.33 C 694.46 816.20 693.50 815.17 693.50 813.93 L 693.50 811.23 C 693.50 808.78 694.73 807.69 697.19 807.98 C 790.02 818.58 879.24 842.43 964.86 879.53 Z" fill="#a26064" fill-rule="nonzero" group-id="1" id="路径" node-id="63" stroke="none" target-height="80.971985" target-width="274.2461" target-x="693.501" target-y="807.6903"></path><path d="M 566.06 851.09 C 565.85 851.71 565.83 852.44 566.00 853.30 C 566.28 855.02 565.63 855.56 564.03 854.90 C 521.98 838.24 478.64 826.05 434.00 818.36 L 429.09 816.70 C 427.29 816.08 427.19 815.29 428.78 814.30 C 447.70 802.82 544.50 840.59 566.06 851.09 Z" fill="#ffffff" fill-rule="nonzero" group-id="1" id="路径" node-id="64" stroke="none" target-height="52.739258" target-width="139.09576" target-x="427.18695" target-y="802.8176"></path><path d="M 434.00 818.36 C 478.64 826.05 521.98 838.24 564.03 854.90 C 565.63 855.56 566.28 855.02 566.00 853.30 C 565.83 852.44 565.85 851.71 566.06 851.09 C 574.25 853.71 580.39 858.67 584.48 865.96 L 558.38 860.31 C 516.12 843.56 472.62 831.11 427.86 822.96 C 427.37 822.23 427.02 821.20 426.82 819.89 C 426.74 819.07 427.08 818.66 427.86 818.66 L 434.00 818.36 Z" fill="#a26064" fill-rule="nonzero" group-id="1" id="路径" node-id="65" stroke="none" target-height="47.600464" target-width="157.74695" target-x="426.7365" target-y="818.3569"></path><path d="M 427.86 822.96 C 472.62 831.11 516.12 843.56 558.38 860.31 L 552.24 864.42 C 511.17 849.64 469.20 838.03 426.33 829.60 C 426.08 829.06 425.53 828.51 424.67 827.94 C 422.58 826.55 422.87 825.38 425.53 824.44 C 426.47 824.11 427.25 823.62 427.86 822.96 Z" fill="#f7ede5" fill-rule="nonzero" group-id="1" id="路径" node-id="66" stroke="none" target-height="41.458496" target-width="135.79956" target-x="422.58044" target-y="822.9634"></path><path d="M 426.33 829.60 C 469.20 838.03 511.17 849.64 552.24 864.42 L 553.77 865.96 C 512.34 860.55 471.39 852.53 430.93 841.88 C 427.25 838.65 425.71 834.55 426.33 829.60 Z" fill="#e26452" fill-rule="nonzero" group-id="1" id="路径" node-id="67" stroke="none" target-height="36.360596" target-width="128.06064" target-x="425.71286" target-y="829.59674"></path><path d="M 430.93 841.88 C 471.39 852.53 512.34 860.55 553.77 865.96 C 570.64 872.39 588.05 875.97 605.98 876.71 L 631.29 887.88 L 639.76 915.09 L 463.73 916.32 C 461.23 916.36 459.51 915.20 458.57 912.82 L 430.93 841.88 Z" fill="#6e72ff" fill-rule="nonzero" group-id="1" id="路径" node-id="68" stroke="none" target-height="74.48193" target-width="208.82791" target-x="430.93356" target-y="841.88074"></path><path d="M 558.38 860.31 L 584.48 865.96 L 605.98 876.71 C 588.05 875.97 570.64 872.39 553.77 865.96 L 552.24 864.42 L 558.38 860.31 Z" fill="#ff9582" fill-rule="nonzero" group-id="1" id="路径" node-id="69" stroke="none" target-height="16.39917" target-width="53.742493" target-x="552.238" target-y="860.3067"></path><path d="M 690.43 878.73 C 757.09 875.87 820.56 888.50 880.83 916.63 L 861.12 915.34 C 826.72 900.97 736.74 870.81 702.72 896.67 C 695.55 895.97 688.86 893.90 682.63 890.46 C 680.54 889.36 680.56 888.31 682.69 887.33 C 686.42 885.61 689.00 882.75 690.43 878.73 Z" fill="#a26064" fill-rule="nonzero" group-id="1" id="路径" node-id="70" stroke="none" target-height="45.819336" target-width="200.29053" target-x="680.5443" target-y="870.8095"></path><path d="M 861.12 915.34 C 852.27 917.02 843.49 916.42 834.77 913.56 C 829.08 909.95 824.64 907.80 821.44 907.11 C 820.64 906.99 730.91 886.84 721.33 894.70 C 719.08 896.59 719.42 897.63 722.37 897.83 C 754.23 900.09 785.63 905.29 816.59 913.43 C 817.45 913.64 817.88 914.17 817.88 915.03 C 817.88 915.56 817.88 916.10 817.88 916.63 L 774.89 913.56 L 748.78 906.37 L 719.61 901.27 L 702.72 896.67 C 736.74 870.81 826.72 900.97 861.12 915.34 Z" fill="#ebecee" fill-rule="nonzero" group-id="1" id="路径" node-id="71" stroke="none" target-height="46.208313" target-width="158.4021" target-x="702.7169" target-y="870.8095"></path><path d="M 631.29 887.88 L 711.93 904.84 C 724.34 911.59 736.62 912.10 748.78 906.37 L 774.89 913.56 C 729.89 917.78 684.84 918.29 639.76 915.09 L 631.29 887.88 Z" fill="#f8bdff" fill-rule="nonzero" group-id="1" id="路径" node-id="72" stroke="none" target-height="30.402893" target-width="143.59991" target-x="631.28546" target-y="887.8843"></path><path d="M 834.77 913.56 L 817.88 916.63 C 817.88 916.10 817.88 915.56 817.88 915.03 C 817.88 914.17 817.45 913.64 816.59 913.43 C 785.63 905.29 754.23 900.09 722.37 897.83 C 719.42 897.63 719.08 896.59 721.33 894.70 C 730.91 886.84 820.64 906.99 821.44 907.11 C 824.64 907.80 829.08 909.95 834.77 913.56 Z" fill="#a26064" fill-rule="nonzero" group-id="1" id="路径" node-id="73" stroke="none" target-height="29.788696" target-width="115.69476" target-x="719.0751" target-y="886.84015"></path><path d="M 719.61 901.27 L 748.78 906.37 C 736.62 912.10 724.34 911.59 711.93 904.84 L 719.61 901.27 Z" fill="#a26064" fill-rule="nonzero" group-id="1" id="路径" node-id="74" stroke="none" target-height="10.830383" target-width="36.85193" target-x="711.92993" target-y="901.27386"></path><path d="M 298.63 919.95 L 365.15 1075.03 C 364.29 1085.27 367.79 1090.39 375.66 1090.39 C 565.53 1090.26 755.42 1090.34 945.33 1090.63 C 701.06 1259.05 377.74 1229.44 169.65 1018.22 L 229.72 969.14 C 231.41 967.80 233.85 967.99 235.31 969.57 L 308.22 1049.73 C 308.80 1050.34 309.71 1050.50 310.46 1050.11 C 311.22 1049.73 311.63 1048.90 311.47 1048.07 L 288.50 927.50 C 288.05 925.13 288.85 923.28 290.90 921.97 C 292.86 920.66 295.44 919.99 298.63 919.95 Z" fill="#6e72ff" fill-rule="nonzero" group-id="1" id="路径" node-id="75" stroke="none" target-height="339.09967" target-width="775.6728" target-x="169.65302" target-y="919.9455"></path><path d="M 99.27 929.40 L 125.98 932.97 C 127.99 933.25 128.91 934.40 128.75 936.41 L 126.66 967.55 L 99.27 929.40 Z" fill="#6e72ff" fill-rule="nonzero" group-id="1" id="路径" node-id="76" stroke="none" target-height="38.141785" target-width="29.64537" target-x="99.26573" target-y="929.4042"></path><path d="M 404.52 1054.82 L 462.99 932.78 C 463.85 931.01 465.64 929.89 467.60 929.90 L 860.93 930.20 C 862.68 930.21 864.31 931.11 865.23 932.60 L 939.61 1051.51 C 940.59 1053.08 940.65 1055.05 939.76 1056.67 C 938.86 1058.29 937.16 1059.30 935.31 1059.31 L 409.19 1062.13 C 407.42 1062.16 405.77 1061.27 404.82 1059.78 C 403.87 1058.29 403.76 1056.42 404.52 1054.82 Z M 464.90 957.96 C 478.29 958.15 510.78 964.97 506.97 940.83 C 506.68 939.15 505.68 938.31 503.96 938.31 L 472.27 938.37 C 470.06 938.41 468.50 939.44 467.60 941.44 L 462.13 953.73 C 460.91 956.51 461.83 957.92 464.90 957.96 Z M 513.48 951.95 C 513.18 953.05 513.40 954.23 514.09 955.14 C 514.77 956.05 515.84 956.60 516.98 956.61 L 577.60 957.47 C 579.48 957.49 581.07 956.08 581.29 954.22 L 582.64 942.49 C 582.76 941.44 582.43 940.39 581.73 939.60 C 581.02 938.81 580.01 938.36 578.96 938.37 L 520.18 938.19 C 518.54 938.21 517.11 939.31 516.68 940.89 L 513.48 951.95 Z M 657.93 940.89 C 657.93 940.16 657.64 939.46 657.12 938.94 C 656.60 938.42 655.89 938.13 655.16 938.13 L 593.62 938.24 C 592.89 938.24 592.18 938.53 591.67 939.05 C 591.15 939.57 590.86 940.28 590.86 941.01 L 590.88 954.15 C 590.88 954.89 591.18 955.59 591.70 956.11 C 592.22 956.62 592.92 956.91 593.65 956.91 L 655.19 956.81 C 655.93 956.80 656.63 956.51 657.15 955.99 C 657.66 955.47 657.95 954.77 657.95 954.04 L 657.93 940.89 Z M 731.65 957.41 C 732.26 958.19 733.12 958.48 734.23 958.27 C 736.48 957.86 737.34 956.53 736.80 954.28 L 733.92 942.43 C 733.26 939.80 731.60 938.49 728.94 938.49 L 668.87 938.13 C 666.29 938.13 665.25 939.37 665.74 941.87 L 668.01 953.30 C 668.55 955.84 670.08 957.10 672.62 957.10 L 730.11 956.67 C 730.77 956.67 731.28 956.92 731.65 957.41 Z M 744.73 954.16 C 745.04 955.51 746.23 956.47 747.61 956.49 L 811.92 957.29 C 812.94 957.29 813.90 956.78 814.46 955.92 C 815.02 955.07 815.10 953.98 814.69 953.05 L 808.73 939.97 C 808.24 938.88 807.16 938.18 805.96 938.19 L 745.10 938.43 C 744.19 938.43 743.33 938.84 742.76 939.54 C 742.19 940.25 741.96 941.17 742.15 942.06 L 744.73 954.16 Z M 818.00 940.64 C 820.21 964.41 849.82 958.27 866.46 957.72 C 868.88 957.68 869.76 956.51 869.10 954.22 C 862.72 931.62 839.31 939.17 821.44 937.20 C 818.90 936.92 817.76 938.06 818.00 940.64 Z M 755.17 989.60 C 755.40 990.57 756.26 991.25 757.26 991.25 L 828.51 991.07 C 829.24 991.06 829.91 990.67 830.29 990.05 C 830.68 989.43 830.72 988.66 830.41 988.00 L 820.09 967.18 C 819.71 966.44 818.95 965.99 818.13 966.01 L 752.04 965.95 C 751.37 965.95 750.73 966.25 750.33 966.78 C 749.92 967.31 749.78 968.00 749.95 968.65 L 755.17 989.60 Z M 878.01 967.12 C 877.54 966.38 876.73 965.94 875.86 965.95 L 832.80 966.07 C 831.94 966.06 831.13 966.49 830.66 967.21 C 830.18 967.93 830.11 968.85 830.47 969.63 L 840.05 990.64 C 840.46 991.53 841.34 992.11 842.32 992.11 L 889.37 992.11 C 890.30 992.12 891.15 991.63 891.60 990.82 C 892.05 990.01 892.02 989.02 891.52 988.24 L 878.01 967.12 Z M 485.97 993.22 C 487.19 999.67 497.39 971.72 497.94 969.57 C 498.56 967.20 497.64 966.01 495.18 966.01 L 459.37 966.01 C 457.04 966.01 455.36 967.05 454.33 969.14 L 444.94 988.49 C 443.75 990.91 444.51 992.11 447.21 992.11 L 484.61 992.11 C 485.35 992.11 485.80 992.48 485.97 993.22 Z M 503.53 976.51 L 498.68 988.61 C 497.74 990.95 498.54 992.11 501.08 992.11 L 571.34 992.11 C 573.84 992.11 575.31 990.89 575.76 988.43 L 579.20 969.70 C 579.65 967.36 578.67 966.17 576.25 966.13 C 564.34 965.95 506.91 961.16 504.33 973.93 C 504.17 974.79 503.90 975.65 503.53 976.51 Z M 661.66 970.12 C 661.65 967.88 659.83 966.07 657.59 966.08 L 590.52 966.31 C 588.28 966.32 586.47 968.14 586.48 970.38 L 586.54 987.58 C 586.55 989.82 588.37 991.62 590.61 991.62 L 657.68 991.38 C 659.92 991.37 661.73 989.55 661.72 987.31 L 661.66 970.12 Z M 736.19 991.13 C 744.79 990.82 750.93 990.52 743.87 979.65 C 742.72 977.84 741.98 975.88 741.66 973.75 L 741.10 969.57 C 740.78 967.20 739.41 966.01 736.99 966.01 L 673.54 966.01 C 670.47 966.01 668.94 967.55 668.94 970.62 L 668.94 987.88 C 668.94 990.78 670.39 992.24 673.30 992.24 C 694.38 992.15 715.35 991.79 736.19 991.13 Z M 432.71 1025.89 C 451.45 1026.20 482.96 1033.14 484.06 1005.32 C 484.18 1002.66 482.92 1001.33 480.25 1001.33 L 442.73 1001.33 C 440.47 1001.33 438.88 1002.35 437.94 1004.40 L 430.07 1021.72 C 428.85 1024.42 429.73 1025.81 432.71 1025.89 Z M 495.92 1001.33 C 494.72 1001.34 493.66 1002.10 493.27 1003.23 L 487.01 1020.80 C 486.68 1021.67 486.81 1022.65 487.35 1023.42 C 487.90 1024.18 488.78 1024.62 489.71 1024.61 L 569.01 1024.24 C 570.41 1024.22 571.59 1023.17 571.77 1021.78 L 574.16 1004.52 C 574.27 1003.71 574.02 1002.89 573.48 1002.28 C 572.94 1001.67 572.16 1001.32 571.34 1001.33 L 495.92 1001.33 Z M 663.79 1005.57 C 663.77 1003.16 661.80 1001.23 659.39 1001.25 L 585.32 1001.90 C 584.16 1001.91 583.06 1002.38 582.25 1003.20 C 581.44 1004.03 580.99 1005.14 581.00 1006.30 L 581.10 1017.72 C 581.12 1020.13 583.09 1022.06 585.49 1022.04 L 659.56 1021.39 C 660.72 1021.38 661.83 1020.92 662.64 1020.09 C 663.45 1019.27 663.90 1018.15 663.89 1017.00 L 663.79 1005.57 Z M 672.07 1018.52 C 672.34 1020.24 673.83 1021.49 675.57 1021.47 L 750.01 1020.55 C 751.06 1020.52 752.05 1020.02 752.69 1019.19 C 753.33 1018.36 753.57 1017.28 753.33 1016.25 L 750.38 1004.03 C 750.01 1002.46 748.62 1001.34 747.00 1001.33 L 673.48 1001.33 C 672.45 1001.31 671.46 1001.76 670.79 1002.54 C 670.11 1003.32 669.82 1004.36 669.98 1005.38 L 672.07 1018.52 Z M 773.60 1020.18 C 795.91 1020.18 818.21 1019.71 840.48 1018.77 C 843.80 1018.65 844.62 1017.15 842.94 1014.29 L 837.17 1004.46 C 836.18 1002.82 834.75 1002.00 832.87 1002.00 L 761.62 1001.94 C 759.69 1001.94 758.65 1002.90 758.49 1004.83 C 757.69 1016.31 762.11 1020.12 773.60 1020.18 Z M 906.08 1013.67 C 906.75 996.04 861.00 1000.96 850.74 1001.82 C 848.49 1002.02 847.57 1003.23 847.98 1005.44 C 851.84 1025.04 886.67 1015.82 902.27 1017.05 C 904.73 1017.26 906.00 1016.13 906.08 1013.67 Z M 914.12 1026.57 C 913.51 1025.61 912.44 1025.05 911.30 1025.10 L 861.92 1027.92 C 860.82 1027.97 859.83 1028.57 859.28 1029.51 C 858.74 1030.46 858.71 1031.62 859.21 1032.59 L 867.69 1048.74 C 868.24 1049.80 869.33 1050.46 870.52 1050.46 L 923.64 1050.46 C 924.81 1050.47 925.89 1049.83 926.45 1048.81 C 927.02 1047.78 926.98 1046.53 926.35 1045.55 L 914.12 1026.57 Z M 775.68 1050.52 L 855.84 1050.89 C 858.58 1050.89 859.36 1049.64 858.17 1047.15 L 850.06 1030.56 C 849.00 1028.39 847.26 1027.31 844.84 1027.31 L 769.97 1027.68 C 766.57 1027.68 765.37 1029.29 766.35 1032.53 L 770.71 1046.84 C 771.45 1049.30 773.10 1050.52 775.68 1050.52 Z M 679.32 1029.33 C 678.70 1029.13 678.09 1029.01 677.47 1028.97 C 674.85 1028.72 673.54 1029.91 673.54 1032.53 L 673.54 1048.31 C 673.54 1050.93 674.87 1052.20 677.53 1052.12 L 758.42 1049.97 C 761.17 1049.89 762.25 1048.52 761.68 1045.86 L 759.04 1033.33 C 758.51 1030.83 756.97 1029.52 754.43 1029.40 C 729.70 1028.41 705.09 1028.45 680.61 1029.52 C 680.16 1029.56 679.73 1029.50 679.32 1029.33 Z M 665.44 1033.88 C 665.44 1033.16 665.15 1032.47 664.64 1031.97 C 664.13 1031.47 663.44 1031.19 662.72 1031.19 L 579.31 1031.78 C 578.60 1031.78 577.91 1032.07 577.41 1032.58 C 576.91 1033.09 576.63 1033.78 576.63 1034.50 L 576.74 1049.85 C 576.74 1050.57 577.03 1051.25 577.54 1051.76 C 578.05 1052.26 578.74 1052.54 579.46 1052.54 L 662.87 1051.95 C 663.58 1051.95 664.27 1051.66 664.77 1051.15 C 665.27 1050.64 665.55 1049.95 665.55 1049.23 L 665.44 1033.88 Z M 475.95 1048.87 C 475.54 1049.86 475.65 1051.00 476.26 1051.89 C 476.87 1052.78 477.89 1053.31 478.96 1053.29 L 565.26 1052.86 C 566.84 1052.84 568.18 1051.67 568.39 1050.09 L 570.30 1035.42 C 570.40 1034.50 570.11 1033.57 569.48 1032.89 C 568.86 1032.21 567.97 1031.83 567.04 1031.85 L 484.25 1034.06 C 482.98 1034.09 481.85 1034.86 481.36 1036.03 L 475.95 1048.87 Z M 417.05 1047.27 C 416.37 1048.47 416.39 1049.94 417.08 1051.13 C 417.78 1052.32 419.05 1053.05 420.43 1053.04 L 464.28 1053.41 C 465.92 1053.40 467.36 1052.37 467.91 1050.83 L 472.45 1038.61 C 472.91 1037.38 472.72 1036.00 471.94 1034.95 C 471.16 1033.89 469.89 1033.30 468.58 1033.39 L 425.59 1035.66 C 424.25 1035.73 423.04 1036.50 422.40 1037.69 L 417.05 1047.27 Z" fill="#a26064" fill-rule="nonzero" group-id="1" id="形状" node-id="77" stroke="none" target-height="132.26819" target-width="536.89185" target-x="403.75653" target-y="929.8905"></path><path d="M 995.75 930.69 C 995.75 939.42 993.87 947.60 990.10 955.26 C 989.24 946.42 991.12 938.23 995.75 930.69 Z" fill="#ff9582" fill-rule="nonzero" group-id="1" id="路径" node-id="78" stroke="none" target-height="24.567993" target-width="6.510498" target-x="989.2411" target-y="930.69403"></path><path d="M 506.97 940.83 C 510.78 964.97 478.29 958.15 464.90 957.96 C 461.83 957.92 460.91 956.51 462.13 953.73 L 467.60 941.44 C 468.50 939.44 470.06 938.41 472.27 938.37 L 503.96 938.31 C 505.68 938.31 506.68 939.15 506.97 940.83 Z" fill="#422845" fill-rule="nonzero" group-id="1" id="路径" node-id="79" stroke="none" target-height="26.656311" target-width="49.873016" target-x="460.9065" target-y="938.31006"></path><path d="M 513.48 951.95 L 516.68 940.89 C 517.11 939.31 518.54 938.21 520.18 938.19 L 578.96 938.37 C 580.01 938.36 581.02 938.81 581.73 939.60 C 582.43 940.39 582.76 941.44 582.64 942.49 L 581.29 954.22 C 581.07 956.08 579.48 957.49 577.60 957.47 L 516.98 956.61 C 515.84 956.60 514.77 956.05 514.09 955.14 C 513.40 954.23 513.18 953.05 513.48 951.95 L 513.48 951.95 Z" fill="#422845" fill-rule="nonzero" group-id="1" id="路径" node-id="80" stroke="none" target-height="19.298706" target-width="69.58685" target-x="513.1773" target-y="938.18726"></path><g node-id="108"><path d="M 591.30 938.25 L 657.48 938.13 L 657.79 938.26 L 657.93 938.58 L 657.96 956.35 L 657.83 956.67 L 657.51 956.80 L 591.34 956.92 L 591.02 956.79 L 590.89 956.47 L 590.86 938.70 L 590.99 938.38 L 591.30 938.25 Z" fill="#422845" fill-rule="nonzero" group-id="1,2" id="矩形" node-id="81" stroke="none" target-height="18.78711" target-width="67.1015" target-x="590.8557" target-y="938.1295"></path></g><path d="M 730.11 956.67 L 672.62 957.10 C 670.08 957.10 668.55 955.84 668.01 953.30 L 665.74 941.87 C 665.25 939.37 666.29 938.13 668.87 938.13 L 728.94 938.49 C 731.60 938.49 733.26 939.80 733.92 942.43 L 736.80 954.28 C 737.34 956.53 736.48 957.86 734.23 958.27 C 733.12 958.48 732.26 958.19 731.65 957.41 C 731.28 956.92 730.77 956.67 730.11 956.67 Z" fill="#422845" fill-rule="nonzero" group-id="1" id="路径" node-id="82" stroke="none" target-height="20.350464" target-width="72.08655" target-x="665.25073" target-y="938.12585"></path><path d="M 744.73 954.16 L 742.15 942.06 C 741.96 941.17 742.19 940.25 742.76 939.54 C 743.33 938.84 744.19 938.43 745.10 938.43 L 805.96 938.19 C 807.16 938.18 808.24 938.88 808.73 939.97 L 814.69 953.05 C 815.10 953.98 815.02 955.07 814.46 955.92 C 813.90 956.78 812.94 957.29 811.92 957.29 L 747.61 956.49 C 746.23 956.47 745.04 955.51 744.73 954.16 Z" fill="#422845" fill-rule="nonzero" group-id="1" id="路径" node-id="83" stroke="none" target-height="19.113708" target-width="73.139465" target-x="741.96356" target-y="938.1807"></path><path d="M 866.46 957.72 C 849.82 958.27 820.21 964.41 818.00 940.64 C 817.76 938.06 818.90 936.92 821.44 937.20 C 839.31 939.17 862.72 931.62 869.10 954.22 C 869.76 956.51 868.88 957.68 866.46 957.72 Z" fill="#422845" fill-rule="nonzero" group-id="1" id="路径" node-id="84" stroke="none" target-height="32.79828" target-width="52.002197" target-x="817.75653" target-y="931.6153"></path><path d="M 755.17 989.60 L 749.95 968.65 C 749.78 968.00 749.92 967.31 750.33 966.78 C 750.73 966.25 751.37 965.95 752.04 965.95 L 818.13 966.01 C 818.95 965.99 819.71 966.44 820.09 967.18 L 830.41 988.00 C 830.72 988.66 830.68 989.43 830.29 990.05 C 829.91 990.67 829.24 991.06 828.51 991.07 L 757.26 991.25 C 756.26 991.25 755.40 990.57 755.17 989.60 Z" fill="#422845" fill-rule="nonzero" group-id="1" id="路径" node-id="85" stroke="none" target-height="25.30841" target-width="80.945496" target-x="749.7767" target-y="965.9457"></path><path d="M 878.01 967.12 L 891.52 988.24 C 892.02 989.02 892.05 990.01 891.60 990.82 C 891.15 991.63 890.30 992.12 889.37 992.11 L 842.32 992.11 C 841.34 992.11 840.46 991.53 840.05 990.64 L 830.47 969.63 C 830.11 968.85 830.18 967.93 830.66 967.21 C 831.13 966.49 831.94 966.06 832.80 966.07 L 875.86 965.95 C 876.73 965.94 877.54 966.38 878.01 967.12 L 878.01 967.12 Z" fill="#422845" fill-rule="nonzero" group-id="1" id="路径" node-id="86" stroke="none" target-height="26.182495" target-width="61.934753" target-x="830.112" target-y="965.94055"></path><path d="M 484.61 992.11 L 447.21 992.11 C 444.51 992.11 443.75 990.91 444.94 988.49 L 454.33 969.14 C 455.36 967.05 457.04 966.01 459.37 966.01 L 495.18 966.01 C 497.64 966.01 498.56 967.20 497.94 969.57 C 497.39 971.72 487.19 999.67 485.97 993.22 C 485.80 992.48 485.35 992.11 484.61 992.11 Z" fill="#422845" fill-rule="nonzero" group-id="1" id="路径" node-id="87" stroke="none" target-height="33.658142" target-width="54.8071" target-x="443.74985" target-y="966.0105"></path><path d="M 504.33 973.93 C 506.91 961.16 564.34 965.95 576.25 966.13 C 578.67 966.17 579.65 967.36 579.20 969.70 L 575.76 988.43 C 575.31 990.89 573.84 992.11 571.34 992.11 L 501.08 992.11 C 498.54 992.11 497.74 990.95 498.68 988.61 L 503.53 976.51 C 503.90 975.65 504.17 974.79 504.33 973.93 Z" fill="#422845" fill-rule="nonzero" group-id="1" id="路径" node-id="88" stroke="none" target-height="30.955627" target-width="81.91379" target-x="497.738" target-y="961.1583"></path><path d="M 587.13 966.32 L 660.98 966.07 L 661.45 966.26 L 661.65 966.72 L 661.73 990.71 L 661.54 991.18 L 661.07 991.37 L 587.21 991.63 L 586.75 991.44 L 586.55 990.97 L 586.47 966.99 L 586.66 966.52 L 587.13 966.32 Z" fill="#422845" fill-rule="nonzero" group-id="1,3" id="矩形" node-id="89" stroke="none" target-height="25.562622" target-width="75.26129" target-x="586.4687" target-y="966.0659"></path><path d="M 736.19 991.13 C 715.35 991.79 694.38 992.15 673.30 992.24 C 670.39 992.24 668.94 990.78 668.94 987.88 L 668.94 970.62 C 668.94 967.55 670.47 966.01 673.54 966.01 L 736.99 966.01 C 739.41 966.01 740.78 967.20 741.10 969.57 L 741.66 973.75 C 741.98 975.88 742.72 977.84 743.87 979.65 C 750.93 990.52 744.79 990.82 736.19 991.13 Z" fill="#422845" fill-rule="nonzero" group-id="1" id="路径" node-id="90" stroke="none" target-height="26.226318" target-width="81.99567" target-x="668.9359" target-y="966.0105"></path><path d="M 484.06 1005.32 C 482.96 1033.14 451.45 1026.20 432.71 1025.89 C 429.73 1025.81 428.85 1024.42 430.07 1021.72 L 437.94 1004.40 C 438.88 1002.35 440.47 1001.33 442.73 1001.33 L 480.25 1001.33 C 482.92 1001.33 484.18 1002.66 484.06 1005.32 Z" fill="#422845" fill-rule="nonzero" group-id="1" id="路径" node-id="91" stroke="none" target-height="31.81549" target-width="55.339386" target-x="428.84528" target-y="1001.32697"></path><path d="M 495.92 1001.33 L 571.34 1001.33 C 572.16 1001.32 572.94 1001.67 573.48 1002.28 C 574.02 1002.89 574.27 1003.71 574.16 1004.52 L 571.77 1021.78 C 571.59 1023.17 570.41 1024.22 569.01 1024.24 L 489.71 1024.61 C 488.78 1024.62 487.90 1024.18 487.35 1023.42 C 486.81 1022.65 486.68 1021.67 487.01 1020.80 L 493.27 1003.23 C 493.66 1002.10 494.72 1001.34 495.92 1001.33 Z" fill="#422845" fill-rule="nonzero" group-id="1" id="路径" node-id="92" stroke="none" target-height="23.302917" target-width="87.58682" target-x="486.68478" target-y="1001.32"></path><path d="M 581.67 1001.93 L 663.04 1001.22 L 663.54 1001.42 L 663.75 1001.92 L 663.92 1020.65 L 663.71 1021.15 L 663.21 1021.36 L 581.84 1022.07 L 581.34 1021.87 L 581.13 1021.37 L 580.96 1002.64 L 581.17 1002.14 L 581.67 1001.93 Z" fill="#422845" fill-rule="nonzero" group-id="1,4" id="矩形" node-id="93" stroke="none" target-height="20.855042" target-width="82.95441" target-x="580.9638" target-y="1001.21796"></path><path d="M 672.07 1018.52 L 669.98 1005.38 C 669.82 1004.36 670.11 1003.32 670.79 1002.54 C 671.46 1001.76 672.45 1001.31 673.48 1001.33 L 747.00 1001.33 C 748.62 1001.34 750.01 1002.46 750.38 1004.03 L 753.33 1016.25 C 753.57 1017.28 753.33 1018.36 752.69 1019.19 C 752.05 1020.02 751.06 1020.52 750.01 1020.55 L 675.57 1021.47 C 673.83 1021.49 672.34 1020.24 672.07 1018.52 Z" fill="#422845" fill-rule="nonzero" group-id="1" id="路径" node-id="94" stroke="none" target-height="20.180481" target-width="83.75061" target-x="669.8169" target-y="1001.314"></path><path d="M 773.60 1020.18 C 762.11 1020.12 757.69 1016.31 758.49 1004.83 C 758.65 1002.90 759.69 1001.94 761.62 1001.94 L 832.87 1002.00 C 834.75 1002.00 836.18 1002.82 837.17 1004.46 L 842.94 1014.29 C 844.62 1017.15 843.80 1018.65 840.48 1018.77 C 818.21 1019.71 795.91 1020.18 773.60 1020.18 Z" fill="#422845" fill-rule="nonzero" group-id="1" id="路径" node-id="95" stroke="none" target-height="18.24176" target-width="86.92969" target-x="757.6878" target-y="1001.94116"></path><path d="M 902.27 1017.05 C 886.67 1015.82 851.84 1025.04 847.98 1005.44 C 847.57 1003.23 848.49 1002.02 850.74 1001.82 C 861.00 1000.96 906.75 996.04 906.08 1013.67 C 906.00 1016.13 904.73 1017.26 902.27 1017.05 Z" fill="#422845" fill-rule="nonzero" group-id="1" id="路径" node-id="96" stroke="none" target-height="28.990173" target-width="59.188354" target-x="847.5657" target-y="996.04486"></path><path d="M 914.12 1026.57 L 926.35 1045.55 C 926.98 1046.53 927.02 1047.78 926.45 1048.81 C 925.89 1049.83 924.81 1050.47 923.64 1050.46 L 870.52 1050.46 C 869.33 1050.46 868.24 1049.80 867.69 1048.74 L 859.21 1032.59 C 858.71 1031.62 858.74 1030.46 859.28 1029.51 C 859.83 1028.57 860.82 1027.97 861.92 1027.92 L 911.30 1025.10 C 912.44 1025.05 913.51 1025.61 914.12 1026.57 L 914.12 1026.57 Z" fill="#422845" fill-rule="nonzero" group-id="1" id="路径" node-id="97" stroke="none" target-height="25.417725" target-width="68.308105" target-x="858.70935" target-y="1025.0493"></path><path d="M 770.71 1046.84 L 766.35 1032.53 C 765.37 1029.29 766.57 1027.68 769.97 1027.68 L 844.84 1027.31 C 847.26 1027.31 849.00 1028.39 850.06 1030.56 L 858.17 1047.15 C 859.36 1049.64 858.58 1050.89 855.84 1050.89 L 775.68 1050.52 C 773.10 1050.52 771.45 1049.30 770.71 1046.84 Z" fill="#422845" fill-rule="nonzero" group-id="1" id="路径" node-id="98" stroke="none" target-height="23.585205" target-width="93.99298" target-x="765.3653" target-y="1027.3076"></path><path d="M 680.61 1029.52 C 705.09 1028.45 729.70 1028.41 754.43 1029.40 C 756.97 1029.52 758.51 1030.83 759.04 1033.33 L 761.68 1045.86 C 762.25 1048.52 761.17 1049.89 758.42 1049.97 L 677.53 1052.12 C 674.87 1052.20 673.54 1050.93 673.54 1048.31 L 673.54 1032.53 C 673.54 1029.91 674.85 1028.72 677.47 1028.97 C 678.09 1029.01 678.70 1029.13 679.32 1029.33 C 679.73 1029.50 680.16 1029.56 680.61 1029.52 Z" fill="#422845" fill-rule="nonzero" group-id="1" id="路径" node-id="99" stroke="none" target-height="23.789917" target-width="88.71094" target-x="673.5424" target-y="1028.4132"></path><path d="M 577.05 1031.79 L 664.98 1031.18 L 665.29 1031.30 L 665.43 1031.61 L 665.56 1051.49 L 665.44 1051.81 L 665.13 1051.94 L 577.20 1052.55 L 576.88 1052.42 L 576.75 1052.11 L 576.61 1032.23 L 576.74 1031.92 L 577.05 1031.79 Z" fill="#422845" fill-rule="nonzero" group-id="1,5" id="矩形" node-id="100" stroke="none" target-height="21.373413" target-width="88.94983" target-x="576.61487" target-y="1031.1774"></path><path d="M 475.95 1048.87 L 481.36 1036.03 C 481.85 1034.86 482.98 1034.09 484.25 1034.06 L 567.04 1031.85 C 567.97 1031.83 568.86 1032.21 569.48 1032.89 C 570.11 1033.57 570.40 1034.50 570.30 1035.42 L 568.39 1050.09 C 568.18 1051.67 566.84 1052.84 565.26 1052.86 L 478.96 1053.29 C 477.89 1053.31 476.87 1052.78 476.26 1051.89 C 475.65 1051.00 475.54 1049.86 475.95 1048.87 Z" fill="#422845" fill-rule="nonzero" group-id="1" id="路径" node-id="101" stroke="none" target-height="21.480469" target-width="94.86337" target-x="475.5392" target-y="1031.8286"></path><path d="M 417.05 1047.27 L 422.40 1037.69 C 423.04 1036.50 424.25 1035.73 425.59 1035.66 L 468.58 1033.39 C 469.89 1033.30 471.16 1033.89 471.94 1034.95 C 472.72 1036.00 472.91 1037.38 472.45 1038.61 L 467.91 1050.83 C 467.36 1052.37 465.92 1053.40 464.28 1053.41 L 420.43 1053.04 C 419.05 1053.05 417.78 1052.32 417.08 1051.13 C 416.39 1049.94 416.37 1048.47 417.05 1047.27 L 417.05 1047.27 Z" fill="#422845" fill-rule="nonzero" group-id="1" id="路径" node-id="102" stroke="none" target-height="20.106567" target-width="56.539917" target-x="416.37466" target-y="1033.3046"></path><path d="M 1071.24 1071.71 C 1074.80 1074.38 1077.81 1077.94 1080.27 1082.40 C 1081.17 1084.07 1081.14 1086.10 1080.17 1087.74 C 1079.20 1089.37 1077.44 1090.38 1075.54 1090.39 L 945.33 1090.63 C 755.42 1090.34 565.53 1090.26 375.66 1090.39 C 367.79 1090.39 364.29 1085.27 365.15 1075.03 L 1071.24 1071.71 Z" fill="#f8bdff" fill-rule="nonzero" group-id="1" id="路径" node-id="103" stroke="none" target-height="18.917358" target-width="716.8805" target-x="364.29288" target-y="1071.7142"></path></g></svg>