<?xml version="1.0" standalone="no"?><!DOCTYPE svg PUBLIC "-//W3C//DTD SVG 1.1//EN" "http://www.w3.org/Graphics/SVG/1.1/DTD/svg11.dtd"><svg t="1700054762076" class="icon" viewBox="0 0 1024 1024" version="1.1" xmlns="http://www.w3.org/2000/svg" p-id="1418" xmlns:xlink="http://www.w3.org/1999/xlink" width="200" height="200"><path d="M602.624 555.52c-4.608 0-8.96-1.024-13.056-3.328L512 511.488l-77.312 40.704c-9.472 4.864-20.992 4.096-29.696-2.048-8.704-6.4-13.056-16.896-11.264-27.648l14.848-86.272-62.72-60.928c-7.68-7.424-10.496-18.688-7.168-28.928 3.328-10.24 12.032-17.664 22.784-19.2l86.528-12.544 38.656-78.336c4.864-9.728 14.592-15.616 25.344-15.616s20.48 6.144 25.344 15.616l38.656 78.336 86.528 12.544c10.496 1.536 19.456 8.96 22.784 19.2 3.328 10.24 0.512 21.504-7.168 28.928l-62.72 60.928 14.848 86.272c1.792 10.496-2.56 21.248-11.264 27.648-4.864 3.584-10.496 5.376-16.384 5.376zM512 451.584c4.608 0 8.96 1.024 13.056 3.328l39.936 20.992-7.68-44.544c-1.536-9.216 1.536-18.432 8.192-24.832l32.256-31.488L552.96 368.64c-9.216-1.28-17.152-7.168-21.248-15.36l-19.712-40.96-19.968 40.448c-4.096 8.192-12.032 14.08-21.248 15.36l-44.8 6.4 32.256 31.488c6.656 6.4 9.728 15.872 8.192 24.832l-7.68 44.544 39.936-20.992c4.352-1.792 8.96-2.816 13.312-2.816z" fill="#707070" p-id="1419" data-spm-anchor-id="a313x.manage_type_myprojects.0.i16.c15d3a81HudbsR" class=""></path><path d="M817.664 551.168L788.48 497.152l104.448-56.064c0.768-0.512 1.536-0.768 2.304-1.024 11.776-5.12 19.456-16.64 19.456-29.696V261.12c0-6.912-5.632-12.544-12.544-12.544h-101.888V186.88h101.888c40.96 0 73.984 33.28 73.984 73.984v149.248c0 36.864-21.76 70.4-55.296 85.504l-103.168 55.552zM210.688 549.888l-103.68-55.552c-33.536-15.104-55.04-48.384-55.04-84.992V258.56c0-40.192 32.768-72.96 72.96-72.96H227.84v61.44H124.672c-6.4 0-11.52 5.12-11.52 11.52v150.784c0 12.8 7.68 24.32 19.2 29.184 0.768 0.256 1.536 0.768 2.304 1.024l104.704 56.064-28.672 54.272zM509.696 958.72c-16.896 0-30.72-13.824-30.72-30.72v-163.584c0-16.896 13.824-30.72 30.72-30.72s30.72 13.824 30.72 30.72v163.584c0 16.896-13.568 30.72-30.72 30.72z" fill="#2c2c2c" p-id="1420" data-spm-anchor-id="a313x.manage_type_myprojects.0.i10.c15d3a81HudbsR" class="selected"></path><path d="M816.384 959.744H205.056c-16.896 0-30.72-13.824-30.72-30.72s13.824-30.72 30.72-30.72h611.072c16.896 0 30.72 13.824 30.72 30.72s-13.568 30.72-30.464 30.72zM508.416 775.68c-98.56 0-203.264-52.736-256.768-84.224-31.232-18.432-50.688-52.224-50.688-88.32V156.928c0-52.224 42.496-94.72 94.72-94.72h434.688c52.224 0 94.72 42.496 94.72 94.72v445.44c0 36.864-19.968 70.912-51.968 89.088-55.552 31.488-163.584 84.224-264.704 84.224zM295.68 123.648c-18.432 0-33.28 14.848-33.28 33.28v446.208c0 14.592 7.68 28.16 20.224 35.328 48.128 28.416 141.568 75.776 225.792 75.776 87.04 0 184.064-47.872 234.24-76.288 12.8-7.424 20.736-20.992 20.736-35.84v-445.44c0-18.432-14.848-33.28-33.28-33.28H295.68z" fill="#2c2c2c" p-id="1421" data-spm-anchor-id="a313x.manage_type_myprojects.0.i9.c15d3a81HudbsR" class="selected"></path></svg>