<?xml version="1.0" standalone="no"?><!DOCTYPE svg PUBLIC "-//W3C//DTD SVG 1.1//EN" "http://www.w3.org/Graphics/SVG/1.1/DTD/svg11.dtd"><svg t="1700054505102" class="icon" viewBox="0 0 1024 1024" version="1.1" xmlns="http://www.w3.org/2000/svg" p-id="2100" xmlns:xlink="http://www.w3.org/1999/xlink" width="200" height="200"><path d="M411.136 314.88m-180.224 0a180.224 180.224 0 1 0 360.448 0 180.224 180.224 0 1 0-360.448 0Z" fill="#bfbfbf" p-id="2101" data-spm-anchor-id="a313x.manage_type_myprojects.0.i19.c15d3a81DoxRTu" class="selected"></path><path d="M990.208 821.76c-13.824-124.416-86.016-235.52-194.56-297.984 45.056-35.328 71.68-89.088 72.192-146.432-2.048-92.672-69.12-171.008-160.256-186.88-17.408-3.584-34.304 7.68-37.888 25.088s7.68 34.304 25.088 37.888h1.024c60.928 10.24 106.496 61.952 108.032 123.904-1.536 54.272-36.864 101.376-88.064 118.272-17.408 1.024-31.232 15.872-30.72 33.28 0.512 14.336 10.752 26.112 24.064 29.696 101.888 25.6 183.296 117.76 210.432 235.52h-819.2c14.336-129.024 109.568-234.496 236.544-262.144 17.408-3.584 28.16-20.992 24.576-38.4-2.56-10.752-9.728-19.456-19.968-23.04C253.44 438.272 207.872 340.48 240.64 251.904 272.896 163.328 370.688 117.76 458.752 150.528c88.064 32.256 133.632 130.048 100.864 218.624-16.896 46.592-53.76 82.944-99.84 100.352-2.56 1.024-4.608 2.048-6.656 3.072h-0.512l-0.512 0.512-0.512 0.512h-0.512c-3.584 2.56-6.656 6.144-9.216 10.24l-0.512 1.536c0 0.512-0.512 1.024-0.512 1.536-2.56 5.632-3.072 12.288-2.048 18.944v3.072l0.512 1.024v2.048l0.512 1.024 0.512 0.512 0.512 1.024v0.512l0.512 1.024v0.512l0.512 1.024v0.512l0.512 1.024 0.512 1.024v0.512l0.512 1.024 0.512 0.512 0.512 0.512 0.512 0.512 0.512 0.512 0.512 0.512 0.512 0.512 1.024 1.024c2.56 2.048 6.144 4.096 9.216 5.12l1.536 0.512 1.024 0.512H460.8c105.984 22.528 191.488 100.352 224.256 203.776 4.096 13.312 16.384 22.016 30.72 22.016 3.072 0 6.656-0.512 9.728-1.536 16.896-5.12 26.112-23.04 20.992-39.936-31.744-99.84-104.96-181.76-200.704-223.744 100.352-81.408 115.712-228.864 33.792-329.216C499.712 61.44 352.256 46.08 251.904 128c-100.352 81.408-115.712 228.864-33.792 329.216 10.24 12.8 21.504 24.064 34.304 34.304-132.096 58.88-217.6 189.44-218.112 333.824 0 17.408 14.336 31.744 31.744 31.744h868.864c4.096 0 8.192-0.512 11.776-2.048 3.584 1.536 7.68 2.048 11.776 2.048 1.536 0 3.072 0 4.096-0.512 17.408-2.048 29.696-17.408 27.648-34.816z" fill="#515151" p-id="2102" data-spm-anchor-id="a313x.manage_type_myprojects.0.i18.c15d3a81DoxRTu" class=""></path></svg>