<?xml version="1.0" standalone="no"?><!DOCTYPE svg PUBLIC "-//W3C//DTD SVG 1.1//EN" "http://www.w3.org/Graphics/SVG/1.1/DTD/svg11.dtd"><svg height="600" node-id="1" sillyvg="true" template-height="600" template-width="600" version="1.1" viewBox="0 0 600 600" width="600" xmlns="http://www.w3.org/2000/svg" xmlns:xlink="http://www.w3.org/1999/xlink"><defs node-id="70"></defs><g node-id="72"><path d="M 298.80 370.00 C 251.10 370.00 212.40 380.10 212.40 392.40 C 212.40 404.80 251.10 414.90 298.80 414.90 C 341.30 414.90 376.70 406.90 383.90 396.40 C 383.90 396.40 383.90 396.40 383.90 396.40 C 384.80 395.10 385.20 393.80 385.20 392.50 C 385.20 380.10 346.50 370.00 298.80 370.00 Z M 298.80 395.60 C 271.30 395.60 249.10 392.30 249.10 388.20 C 249.10 388.20 249.10 388.10 249.10 387.90 C 249.10 387.80 249.10 387.80 249.20 387.70 C 249.20 387.70 249.20 387.60 249.30 387.60 C 251.20 383.80 272.70 380.80 298.80 380.80 C 324.00 380.80 344.80 383.60 348.00 387.20 C 348.30 387.50 348.40 387.80 348.40 388.10 C 348.40 388.10 348.40 388.20 348.40 388.20 C 348.50 392.30 326.20 395.60 298.80 395.60 Z" fill="#7a97f4" fill-rule="nonzero" group-id="1" id="XMLID_57_" node-id="3" stroke="none" target-height="44.899994" target-width="172.80002" target-x="212.4" target-y="370"></path></g><g node-id="73"><path d="M 195.20 377.10 L 112.00 377.10 C 109.90 377.10 107.80 377.80 106.10 379.10 L 74.10 404.20 C 72.60 405.40 73.40 407.80 75.30 407.80 L 163.20 407.80 C 165.40 407.80 167.60 406.90 169.20 405.40 L 196.10 379.40 C 197.00 378.60 196.40 377.10 195.20 377.10 Z" fill="#7a97f4" fill-rule="nonzero" group-id="2" id="XMLID_157_" node-id="5" stroke="none" target-height="30.699982" target-width="124.4" target-x="72.6" target-y="377.1"></path></g><g node-id="74"><path d="M 525.30 377.10 L 442.00 377.10 C 439.90 377.10 437.80 377.80 436.10 379.10 L 404.10 404.20 C 402.60 405.40 403.40 407.80 405.30 407.80 L 493.20 407.80 C 495.40 407.80 497.60 406.90 499.20 405.40 L 526.10 379.40 C 527.10 378.60 526.50 377.10 525.30 377.10 Z" fill="#7a97f4" fill-rule="nonzero" group-id="3" id="XMLID_12_" node-id="7" stroke="none" target-height="30.699982" target-width="124.49997" target-x="402.6" target-y="377.1"></path></g><g node-id="75"><g node-id="83"><path d="M 298.80 365.90 C 251.10 365.90 212.40 376.00 212.40 388.30 C 212.40 400.70 251.10 410.80 298.80 410.80 C 341.30 410.80 376.70 402.80 383.90 392.30 C 383.90 392.30 383.90 392.30 383.90 392.30 C 384.80 391.00 385.20 389.70 385.20 388.40 C 385.20 376.00 346.50 365.90 298.80 365.90 Z M 298.80 391.50 C 271.30 391.50 249.10 388.20 249.10 384.10 C 249.10 384.10 249.10 384.00 249.10 383.80 C 249.10 383.70 249.10 383.70 249.20 383.60 C 249.20 383.60 249.20 383.50 249.30 383.50 C 251.20 379.70 272.70 376.70 298.80 376.70 C 324.00 376.70 344.80 379.50 348.00 383.10 C 348.30 383.40 348.40 383.70 348.40 384.00 C 348.40 384.00 348.40 384.10 348.40 384.10 C 348.50 388.20 326.20 391.50 298.80 391.50 Z" fill="#ff97c9" fill-rule="nonzero" group-id="4,12" id="XMLID_152_" node-id="10" stroke="none" target-height="44.899994" target-width="172.80002" target-x="212.4" target-y="365.9"></path><path d="M 383.90 392.30 C 376.70 402.80 341.40 410.80 298.80 410.80 C 251.10 410.80 212.40 400.70 212.40 388.30 C 212.40 388.30 227.40 406.40 295.80 406.40 C 354.60 406.50 378.30 395.40 383.90 392.30 Z" fill="#f774b9" fill-rule="nonzero" group-id="4,12" id="XMLID_151_" node-id="11" stroke="none" target-height="22.5" target-width="171.5" target-x="212.4" target-y="388.3"></path><path d="M 348.00 383.10 C 344.70 379.50 323.90 376.70 298.80 376.70 C 272.60 376.70 251.20 379.70 249.30 383.50 C 250.20 381.30 256.20 373.70 298.80 373.70 C 338.00 373.70 346.30 380.50 348.00 383.10 Z" fill="#f774b9" fill-rule="nonzero" group-id="4,12" id="XMLID_150_" node-id="12" stroke="none" target-height="9.799988" target-width="98.7" target-x="249.3" target-y="373.7"></path></g></g><g node-id="76"><path d="M 195.90 377.10 L 178.40 251.90 C 178.20 250.60 177.10 249.60 175.70 249.60 L 152.10 249.60 C 150.50 249.60 149.20 251.00 149.40 252.70 L 155.30 300.00 C 155.50 301.90 154.10 303.50 152.20 303.50 L 125.20 303.50 C 123.50 303.50 122.10 302.20 122.00 300.50 L 119.80 252.30 C 119.70 250.80 118.50 249.70 117.10 249.70 L 95.00 249.70 C 93.40 249.70 92.20 251.00 92.30 252.50 L 95.30 334.90 C 95.40 337.50 97.60 339.60 100.20 339.60 L 160.30 339.60 L 165.00 377.30 L 195.90 377.30 Z" fill="#273d7a" fill-rule="nonzero" group-id="5" id="XMLID_47_" node-id="14" stroke="none" target-height="127.69998" target-width="103.7" target-x="92.2" target-y="249.6"></path></g><g node-id="77"><path d="M 526.00 377.10 L 508.50 251.90 C 508.30 250.60 507.20 249.60 505.80 249.60 L 482.20 249.60 C 480.60 249.60 479.30 251.00 479.50 252.70 L 485.40 300.00 C 485.60 301.90 484.20 303.50 482.30 303.50 L 455.30 303.50 C 453.60 303.50 452.20 302.20 452.10 300.50 L 449.90 252.30 C 449.80 250.80 448.60 249.70 447.20 249.70 L 425.20 249.70 C 423.60 249.70 422.40 251.00 422.50 252.50 L 425.50 334.90 C 425.60 337.50 427.80 339.60 430.40 339.60 L 490.50 339.60 L 495.20 377.30 L 526.00 377.30 Z" fill="#273d7a" fill-rule="nonzero" group-id="6" id="XMLID_147_" node-id="16" stroke="none" target-height="127.69998" target-width="103.600006" target-x="422.4" target-y="249.6"></path></g><g node-id="78"><g node-id="84"><path d="M 177.70 253.20 L 164.50 402.80 C 164.30 405.60 161.90 407.80 159.10 407.80 L 139.30 407.80 C 136.00 407.80 133.50 404.90 133.90 401.70 L 142.20 331.60 L 82.90 332.60 C 79.60 332.60 77.10 329.70 77.70 326.50 L 77.90 325.20 L 91.50 252.30 C 91.90 250.30 93.60 248.80 95.70 248.80 L 114.60 248.80 C 117.20 248.80 119.20 251.20 118.80 253.80 L 110.70 299.80 C 110.40 301.70 111.80 303.30 113.70 303.30 L 142.00 303.30 L 148.60 252.20 C 148.90 250.20 150.60 248.70 152.60 248.70 L 173.70 248.70 C 176.00 248.80 177.90 250.90 177.70 253.20 Z" fill="#ff97c9" fill-rule="nonzero" group-id="7,13" id="XMLID_73_" node-id="19" stroke="none" target-height="159.09999" target-width="100.799995" target-x="77.1" target-y="248.7"></path><path d="M 142.60 325.20 L 142.10 331.60 L 82.80 332.60 C 79.50 332.60 77.00 329.70 77.60 326.50 L 77.80 325.20 L 142.60 325.20 Z" fill="#f774b9" fill-rule="nonzero" group-id="7,13" id="XMLID_18_" node-id="20" stroke="none" target-height="7.399994" target-width="65.600006" target-x="77" target-y="325.2"></path><path d="M 177.70 253.20 L 164.50 402.80 C 164.30 405.60 161.90 407.80 159.10 407.80 L 156.10 407.80 L 171.80 248.80 L 173.70 248.80 C 176.00 248.80 177.90 250.90 177.70 253.20 Z" fill="#f774b9" fill-rule="nonzero" group-id="7,13" id="XMLID_42_" node-id="21" stroke="none" target-height="158.99998" target-width="21.799988" target-x="156.1" target-y="248.8"></path><path d="M 110.60 299.90 C 110.30 301.80 111.70 303.40 113.60 303.40 L 107.80 303.40 C 105.70 303.40 104.00 301.50 104.40 299.40 L 113.30 248.90 L 114.60 248.90 C 117.20 248.90 119.20 251.30 118.80 253.90 L 110.60 299.90 Z" fill="#f774b9" fill-rule="nonzero" group-id="7,13" id="XMLID_17_" node-id="22" stroke="none" target-height="54.5" target-width="15.199997" target-x="104" target-y="248.9"></path></g></g><g node-id="79"><g node-id="85"><path d="M 507.70 253.20 L 494.50 402.80 C 494.30 405.60 491.90 407.80 489.10 407.80 L 469.30 407.80 C 466.00 407.80 463.50 404.90 463.90 401.70 L 472.20 331.60 L 412.90 332.60 C 409.60 332.60 407.10 329.70 407.70 326.50 L 407.90 325.20 L 421.50 252.30 C 421.90 250.30 423.60 248.80 425.70 248.80 L 444.60 248.80 C 447.20 248.80 449.20 251.20 448.80 253.80 L 440.70 299.80 C 440.40 301.70 441.80 303.30 443.70 303.30 L 472.00 303.30 L 478.60 252.20 C 478.90 250.20 480.60 248.70 482.60 248.70 L 503.70 248.70 C 506.10 248.80 508.00 250.90 507.70 253.20 Z" fill="#ff97c9" fill-rule="nonzero" group-id="8,14" id="XMLID_141_" node-id="25" stroke="none" target-height="159.09999" target-width="100.899994" target-x="407.1" target-y="248.7"></path><path d="M 472.70 325.20 L 472.20 331.60 L 412.90 332.60 C 409.60 332.60 407.10 329.70 407.70 326.50 L 407.90 325.20 L 472.70 325.20 Z" fill="#f774b9" fill-rule="nonzero" group-id="8,14" id="XMLID_140_" node-id="26" stroke="none" target-height="7.399994" target-width="65.600006" target-x="407.1" target-y="325.2"></path><path d="M 507.70 253.20 L 494.50 402.80 C 494.30 405.60 491.90 407.80 489.10 407.80 L 486.10 407.80 L 501.80 248.80 L 503.70 248.80 C 506.10 248.80 508.00 250.90 507.70 253.20 Z" fill="#f774b9" fill-rule="nonzero" group-id="8,14" id="XMLID_139_" node-id="27" stroke="none" target-height="158.99998" target-width="21.899994" target-x="486.1" target-y="248.8"></path><path d="M 440.70 299.90 C 440.40 301.80 441.80 303.40 443.70 303.40 L 437.90 303.40 C 435.80 303.40 434.10 301.50 434.50 299.40 L 443.40 248.90 L 444.70 248.90 C 447.30 248.90 449.30 251.30 448.90 253.90 L 440.70 299.90 Z" fill="#f774b9" fill-rule="nonzero" group-id="8,14" id="XMLID_138_" node-id="28" stroke="none" target-height="54.5" target-width="15.199982" target-x="434.1" target-y="248.9"></path></g></g><g node-id="80"><g node-id="86"><path d="M 259.30 283.70 L 238.80 387.70 C 237.70 393.30 241.30 398.60 246.20 398.60 L 354.80 398.60 C 359.60 398.60 363.20 393.50 362.30 388.10 L 345.50 284.10 C 344.80 279.90 341.70 276.90 338.00 276.90 L 266.80 276.90 C 263.20 276.80 260.10 279.70 259.30 283.70 Z" fill="#ff97c9" fill-opacity="0.28" fill-rule="nonzero" group-id="9,15" id="XMLID_39_" node-id="30" stroke="none" target-height="121.80002" target-width="125.500015" target-x="237.7" target-y="276.8"></path></g></g><g node-id="81"><g node-id="87"><path d="M 351.90 290.20 L 361.80 323.10 C 362.00 323.80 362.70 324.20 363.40 323.90 L 363.40 323.90 C 363.90 323.70 364.30 323.10 364.10 322.50 L 357.60 288.80 C 357.20 287.00 355.20 286.00 353.50 286.70 L 353.50 286.70 C 352.20 287.30 351.50 288.70 351.90 290.20 Z" fill="#fec272" fill-rule="nonzero" group-id="10,16" id="XMLID_135_" node-id="33" stroke="none" target-height="38.200012" target-width="12.799988" target-x="351.5" target-y="286"></path><path d="M 333.20 302.10 L 339.60 327.50 C 339.70 328.00 340.20 328.20 340.60 328.10 L 340.60 328.10 C 341.00 328.00 341.20 327.60 341.10 327.20 L 337.00 301.30 C 336.80 300.10 335.50 299.30 334.30 299.80 L 334.30 299.80 C 333.50 300.20 333.00 301.10 333.20 302.10 Z" fill="#fec272" fill-rule="nonzero" group-id="10,16" id="XMLID_134_" node-id="34" stroke="none" target-height="28.900024" target-width="8.200012" target-x="333" target-y="299.3"></path><path d="M 249.80 293.40 L 241.50 318.70 C 241.40 319.20 240.80 319.40 240.40 319.20 L 240.40 319.20 C 240.00 319.00 239.80 318.60 239.90 318.20 L 245.90 292.30 C 246.20 291.10 247.60 290.40 248.70 290.90 L 248.70 290.90 C 249.70 291.40 250.10 292.40 249.80 293.40 Z" fill="#fec272" fill-rule="nonzero" group-id="10,16" id="XMLID_133_" node-id="35" stroke="none" target-height="29" target-width="10.300003" target-x="239.8" target-y="290.4"></path><path d="M 266.30 301.20 L 255.50 348.20 C 255.40 348.70 254.90 348.90 254.50 348.80 L 254.50 348.80 C 254.10 348.70 253.90 348.30 254.00 347.90 L 262.50 300.40 C 262.70 299.20 264.00 298.40 265.20 298.90 L 265.20 298.90 C 266.10 299.20 266.60 300.20 266.30 301.20 Z" fill="#fec272" fill-rule="nonzero" group-id="10,16" id="XMLID_132_" node-id="36" stroke="none" target-height="50.5" target-width="12.700012" target-x="253.9" target-y="298.4"></path><path d="M 289.20 306.70 L 284.00 340.80 C 283.90 341.30 283.40 341.60 283.00 341.40 L 283.00 341.40 C 282.60 341.30 282.40 340.90 282.40 340.50 L 285.20 306.10 C 285.40 304.90 286.60 304.10 287.80 304.50 L 287.80 304.50 C 288.80 304.70 289.40 305.70 289.20 306.70 Z" fill="#fec272" fill-rule="nonzero" group-id="10,16" id="XMLID_131_" node-id="37" stroke="none" target-height="37.5" target-width="7" target-x="282.4" target-y="304.1"></path><path d="M 316.00 306.00 L 317.30 360.10 C 317.30 360.60 316.90 360.90 316.40 360.90 L 316.40 360.90 C 316.00 360.80 315.70 360.50 315.70 360.10 L 312.00 306.00 C 312.00 304.70 313.10 303.80 314.30 304.00 L 314.30 304.00 C 315.30 304.20 316.00 305.10 316.00 306.00 Z" fill="#fec272" fill-rule="nonzero" group-id="10,16" id="XMLID_130_" node-id="38" stroke="none" target-height="57.100006" target-width="5.299988" target-x="312" target-y="303.8"></path></g></g><g node-id="82"><g node-id="88"><path d="M 212.10 256.90 C 211.00 255.60 210.20 254.30 209.60 253.00 L 207.30 237.60 L 212.60 242.50 L 212.10 256.90 Z" fill="#738de0" fill-rule="nonzero" group-id="11,17" id="XMLID_44_" node-id="41" stroke="none" target-height="19.299988" target-width="5.300003" target-x="207.3" target-y="237.6"></path><g node-id="89"><g node-id="91"><path d="M 361.30 262.10 C 361.30 262.10 358.00 269.00 350.80 276.70 C 341.80 286.30 326.60 297.20 304.00 297.20 C 288.10 297.20 276.30 291.90 267.90 285.50 C 254.70 275.50 249.50 262.70 249.50 262.70 L 361.30 262.10 Z" fill="#273d7a" fill-rule="nonzero" group-id="11,17,18,20" id="XMLID_50_" node-id="44" stroke="none" target-height="35.100006" target-width="111.79999" target-x="249.5" target-y="262.1"></path><path d="M 361.30 262.10 C 361.30 262.10 358.00 269.00 350.80 276.70 C 343.10 279.70 333.60 282.20 321.80 283.80 C 298.60 286.90 280.50 286.70 267.90 285.50 C 254.70 275.50 249.50 262.70 249.50 262.70 L 361.30 262.10 Z" fill="#072359" fill-rule="nonzero" group-id="11,17,18,20" id="XMLID_48_" node-id="45" stroke="none" target-height="24.799988" target-width="111.79999" target-x="249.5" target-y="262.1"></path></g><path d="M 396.50 237.00 C 396.50 237.00 395.90 243.30 393.90 251.10 C 393.60 252.20 393.10 253.50 392.30 254.70 C 390.20 258.10 386.20 261.80 379.70 265.30 C 378.60 265.90 377.30 266.50 376.00 267.10 C 375.00 267.60 374.00 268.00 372.90 268.50 C 371.40 269.10 369.90 269.70 368.30 270.30 C 362.70 272.30 356.10 274.00 348.30 275.60 C 347.70 275.70 347.20 275.80 346.60 275.90 C 345.10 276.20 343.30 276.40 341.40 276.60 C 333.40 277.50 322.80 278.10 311.50 278.30 C 309.40 278.30 307.30 278.40 305.20 278.40 C 294.50 278.50 283.70 278.20 274.30 277.70 C 272.30 277.60 270.30 277.50 268.50 277.30 C 263.00 276.90 258.20 276.30 254.70 275.60 C 249.60 274.60 245.00 273.50 240.90 272.30 C 239.20 271.80 237.60 271.30 236.00 270.80 C 223.60 266.70 216.10 261.70 212.20 257.10 C 211.60 256.40 211.10 255.80 210.70 255.10 C 210.30 254.50 209.90 253.80 209.70 253.20 C 209.40 252.50 209.10 251.90 209.00 251.20 C 208.10 247.50 207.40 243.70 207.10 240.80 C 206.70 237.50 206.60 235.30 206.60 235.30 L 301.60 242.40 L 396.60 237.10 L 396.50 237.00 Z" fill="#99adf9" fill-rule="nonzero" group-id="11,17,18" id="XMLID_16_" node-id="46" stroke="none" target-height="43.199997" target-width="190" target-x="206.6" target-y="235.3"></path><path d="M 396.40 236.80 C 396.40 236.80 396.40 236.80 396.40 236.80 C 396.40 237.50 395.90 238.40 395.00 239.50 C 392.50 242.40 386.50 246.70 376.30 250.60 C 375.00 251.10 373.60 251.60 372.10 252.10 C 371.40 252.30 370.70 252.60 370.00 252.80 C 368.50 253.30 366.90 253.80 365.20 254.20 L 365.20 254.20 C 359.50 255.80 352.90 257.30 345.30 258.40 C 343.50 258.70 341.60 259.00 339.60 259.20 C 331.20 260.30 321.80 261.00 311.30 261.20 C 309.30 261.20 307.20 261.30 305.10 261.30 L 305.00 261.30 C 294.30 261.30 284.40 260.80 275.50 260.00 C 273.50 259.80 271.50 259.60 269.60 259.40 C 259.80 258.30 251.10 256.70 243.60 254.90 C 241.90 254.50 240.20 254.00 238.60 253.60 C 223.70 249.50 213.90 244.40 209.40 240.20 C 208.50 239.40 207.80 238.50 207.30 237.80 C 206.70 236.90 206.40 236.10 206.40 235.30 C 206.40 228.20 234.40 213.10 305.50 213.10 C 376.60 213.00 396.40 231.90 396.40 236.80 Z" fill="#273d7a" fill-rule="nonzero" group-id="11,17,18" id="XMLID_209_" node-id="47" stroke="none" target-height="48.299988" target-width="190" target-x="206.4" target-y="213"></path><path d="M 264.50 221.20 L 212.50 242.50 C 210.50 241.20 207.70 238.40 207.20 237.60 L 262.80 220.30 L 264.50 221.20 Z" fill="#072359" fill-rule="nonzero" group-id="11,17,18" id="XMLID_26_" node-id="48" stroke="none" target-height="22.199997" target-width="57.300003" target-x="207.2" target-y="220.3"></path><path d="M 396.40 236.90 C 396.40 237.50 395.90 238.40 395.00 239.50 L 341.60 221.20 L 343.30 220.40 L 396.40 236.90 Z" fill="#072359" fill-rule="nonzero" group-id="11,17,18" id="XMLID_34_" node-id="49" stroke="none" target-height="19.100006" target-width="54.799988" target-x="341.6" target-y="220.4"></path><path d="M 273.30 226.70 L 243.60 254.80 C 241.90 254.40 240.20 253.90 238.60 253.50 L 271.50 226.60 L 273.30 226.70 Z" fill="#072359" fill-rule="nonzero" group-id="11,17,18" id="XMLID_27_" node-id="50" stroke="none" target-height="28.199997" target-width="34.69998" target-x="238.6" target-y="226.6"></path><path d="M 289.60 230.00 L 275.50 260.00 C 273.50 259.80 271.50 259.60 269.60 259.40 L 287.80 229.90 L 289.60 230.00 Z" fill="#072359" fill-rule="nonzero" group-id="11,17,18" id="XMLID_28_" node-id="51" stroke="none" target-height="30.100006" target-width="20" target-x="269.6" target-y="229.9"></path><path d="M 345.40 258.50 C 343.60 258.80 341.60 259.10 339.70 259.30 L 325.90 230.00 L 327.80 229.90 L 345.40 258.50 Z" fill="#072359" fill-rule="nonzero" group-id="11,17,18" id="XMLID_31_" node-id="52" stroke="none" target-height="29.399994" target-width="19.5" target-x="325.9" target-y="229.9"></path><path d="M 311.30 261.30 C 309.30 261.30 307.20 261.40 305.10 261.40 L 305.00 261.40 L 307.40 231.90 L 309.30 231.80 L 311.30 261.30 Z" fill="#072359" fill-rule="nonzero" group-id="11,17,18" id="XMLID_30_" node-id="53" stroke="none" target-height="29.59999" target-width="6.299988" target-x="305" target-y="231.8"></path><path d="M 376.20 250.60 C 374.90 251.10 373.50 251.60 372.00 252.10 L 336.10 226.70 L 338.00 226.60 L 376.20 250.60 Z" fill="#072359" fill-rule="nonzero" group-id="11,17,18" id="XMLID_207_" node-id="54" stroke="none" target-height="25.5" target-width="40.100006" target-x="336.1" target-y="226.6"></path><path d="M 311.40 278.10 C 309.30 278.10 307.20 278.20 305.10 278.20 L 305.10 261.30 L 311.30 261.20 L 311.40 278.10 Z" fill="#738de0" fill-rule="nonzero" group-id="11,17,18" id="XMLID_38_" node-id="55" stroke="none" target-height="17" target-width="6.299988" target-x="305.1" target-y="261.2"></path><path d="M 346.40 275.70 C 344.80 276.00 343.10 276.20 341.20 276.40 L 339.60 259.20 L 345.30 258.40 L 346.40 275.70 Z" fill="#738de0" fill-rule="nonzero" group-id="11,17,18" id="XMLID_36_" node-id="56" stroke="none" target-height="18" target-width="6.799988" target-x="339.6" target-y="258.4"></path><path d="M 379.60 265.20 C 378.50 265.80 377.20 266.40 375.90 267.00 L 372.10 252.00 L 376.20 250.60 L 379.60 265.20 Z" fill="#738de0" fill-rule="nonzero" group-id="11,17,18" id="XMLID_205_" node-id="57" stroke="none" target-height="16.399994" target-width="7.5" target-x="372.1" target-y="250.6"></path><path d="M 275.50 260.00 L 274.30 277.50 C 272.30 277.40 270.30 277.30 268.50 277.10 L 269.70 259.40 L 275.50 260.00 Z" fill="#738de0" fill-rule="nonzero" group-id="11,17,18" id="XMLID_40_" node-id="58" stroke="none" target-height="18.100006" target-width="7" target-x="268.5" target-y="259.4"></path><path d="M 243.60 254.80 L 240.80 272.10 C 239.10 271.60 237.50 271.10 235.90 270.60 L 238.50 253.50 L 243.60 254.80 Z" fill="#738de0" fill-rule="nonzero" group-id="11,17,18" id="XMLID_41_" node-id="59" stroke="none" target-height="18.600006" target-width="7.700012" target-x="235.9" target-y="253.5"></path><path d="M 212.60 242.70 L 210.60 255.00 C 210.20 254.40 209.80 253.70 209.60 253.10 C 209.30 252.40 209.00 251.80 208.90 251.10 C 208.00 247.40 207.30 243.60 207.00 240.70 L 207.30 237.70 C 207.30 237.70 209.00 239.70 209.70 240.40 C 210.30 241.00 212.60 242.70 212.60 242.70 Z" fill="#738de0" fill-rule="nonzero" group-id="11,17,18" id="XMLID_14_" node-id="60" stroke="none" target-height="17.300003" target-width="5.600006" target-x="207" target-y="237.7"></path></g><path d="M 354.10 228.70 C 354.10 237.04 330.24 243.80 300.80 243.80 C 271.36 243.80 247.50 237.04 247.50 228.70 C 247.50 220.36 271.36 213.60 300.80 213.60 C 330.24 213.60 354.10 220.36 354.10 228.70 Z" fill="#072359" fill-rule="nonzero" group-id="11,17" id="XMLID_1_" node-id="61" stroke="none" target-height="30.199997" target-width="106.600006" target-x="247.5" target-y="213.6"></path><path d="M 349.50 226.30 C 349.50 226.30 345.60 230.70 336.00 234.50 C 328.90 237.30 318.70 239.70 304.70 239.70 C 297.00 239.70 290.30 239.00 284.70 237.90 C 266.00 234.30 257.90 226.50 257.90 226.50 C 257.90 226.50 262.00 196.10 287.60 185.80 C 292.80 183.70 299.00 182.40 306.20 182.40 C 341.40 182.40 349.50 226.30 349.50 226.30 Z" fill="#99adf9" fill-rule="nonzero" group-id="11,17,19" id="XMLID_37_" node-id="63" stroke="none" target-height="57.300003" target-width="91.600006" target-x="257.9" target-y="182.4"></path><path d="M 284.70 237.90 C 266.00 234.30 257.90 226.50 257.90 226.50 C 257.90 226.50 262.00 196.10 287.60 185.80 C 282.60 190.00 277.70 198.40 276.90 212.10 C 276.10 222.30 278.50 230.80 284.70 237.90 Z" fill="#7a97f4" fill-rule="nonzero" group-id="11,17,19" id="XMLID_33_" node-id="64" stroke="none" target-height="52.09999" target-width="29.700012" target-x="257.9" target-y="185.8"></path><path d="M 349.50 226.30 C 349.50 226.30 345.60 230.70 336.00 234.50 C 334.50 228.90 332.20 223.90 332.20 223.90 C 332.20 223.90 322.80 225.90 318.60 217.00 C 314.40 208.10 324.50 201.70 324.50 201.70 C 324.50 201.70 322.10 194.00 309.70 189.00 C 297.30 184.00 287.40 185.80 287.40 185.80 C 292.60 183.70 298.80 182.40 306.00 182.40 C 341.40 182.40 349.50 226.30 349.50 226.30 Z" fill="#c2d1ff" fill-rule="nonzero" group-id="11,17,19" id="XMLID_25_" node-id="65" stroke="none" target-height="52.100006" target-width="62.100006" target-x="287.4" target-y="182.4"></path><path d="M 311.90 204.90 C 311.90 206.34 310.69 207.50 309.20 207.50 C 307.71 207.50 306.50 206.34 306.50 204.90 C 306.50 203.46 307.71 202.30 309.20 202.30 C 310.69 202.30 311.90 203.46 311.90 204.90 Z" fill="#c2d1ff" fill-rule="nonzero" group-id="11,17,19" id="XMLID_11_" node-id="66" stroke="none" target-height="5.199997" target-width="5.399994" target-x="306.5" target-y="202.3"></path><path d="M 301.90 208.00 C 301.90 209.10 300.96 210.00 299.80 210.00 C 298.64 210.00 297.70 209.10 297.70 208.00 C 297.70 206.90 298.64 206.00 299.80 206.00 C 300.96 206.00 301.90 206.90 301.90 208.00 Z" fill="#c2d1ff" fill-rule="nonzero" group-id="11,17,19" id="XMLID_21_" node-id="67" stroke="none" target-height="4" target-width="4.1999817" target-x="297.7" target-y="206"></path><path d="M 310.20 219.50 C 310.20 221.71 308.36 223.50 306.10 223.50 C 303.84 223.50 302.00 221.71 302.00 219.50 C 302.00 217.29 303.84 215.50 306.10 215.50 C 308.36 215.50 310.20 217.29 310.20 219.50 Z" fill="#c2d1ff" fill-rule="nonzero" group-id="11,17,19" id="XMLID_20_" node-id="68" stroke="none" target-height="8" target-width="8.200012" target-x="302" target-y="215.5"></path></g></g></svg>