<?xml version="1.0" standalone="no"?><!DOCTYPE svg PUBLIC "-//W3C//DTD SVG 1.1//EN" "http://www.w3.org/Graphics/SVG/1.1/DTD/svg11.dtd"><svg t="1700055442193" class="icon" viewBox="0 0 1024 1024" version="1.1" xmlns="http://www.w3.org/2000/svg" p-id="1085" xmlns:xlink="http://www.w3.org/1999/xlink" width="200" height="200"><path d="M597.531927 0.372364C353.428945-8.117527 96.833164 133.753018 119.007418 408.296727c0.558545 19.120873 22.583855 104.615564-63.394909 174.154473-30.589673 24.836655-22.490764 72.927418 20.554473 96.628364a174.005527 174.005527 0 0 0 44.720873 16.7936c-3.202327 17.184582-1.619782 34.592582 6.665309 50.939345-20.256582 39.470545 6.795636 75.422255 30.440727 83.930764 11.133673 5.492364 2.550691 25.3952 3.779491 42.095709 3.444364 47.904582 60.583564 71.140073 97.540654 65.349818 66.262109-10.742691 140.753455-7.335564 165.664582 65.442909 4.971055 14.522182 17.519709 18.506473 31.092364 20.107636 30.068364 3.705018 374.877091-35.132509 385.247418-41.406836 14.447709-4.5056 26.102691-20.6848 16.774982-38.130036-79.648582-148.498618 79.778909-306.176 110.405818-448.828509C1020.164655 260.617309 819.981964 0.353745 597.531927 0.353745z m322.336582 477.817018c-33.270691 152.631855-179.274473 300.199564-121.483636 460.018036-108.544 14.7456-327.828945 37.794909-328.573673 37.906618-39.079564-86.965527-130.010764-102.586182-219.992436-88.957672-11.8784 2.345891-37.310836-0.4096-36.640582-23.589237 7.410036-51.106909-25.413818-80.393309-38.372073-83.539782-4.877964-1.601164-2.848582-4.002909-2.923054-3.909818 24.445673-27.480436-12.343855-52.503273 6.330181-87.877818 11.357091-21.597091-3.258182-35.933091-27.294254-39.247127-29.938036-3.239564-45.726255-14.466327-56.1152-19.065018-5.026909-2.383127-6.9632-6.7584-2.345891-11.897019 95.120291-86.332509 78.941091-208.616727 78.848-209.733818C149.801891 142.317382 421.571491 37.124655 600.157091 52.652218c211.279127 19.027782 355.421091 226.322618 319.711418 425.537164z" p-id="1086" data-spm-anchor-id="a313x.manage_type_myprojects.0.i0.c15d3a81uAazad" class="" fill="#2c2c2c"></path><path d="M462.140509 276.107636c-69.296873 41.797818-83.800436 125.672727-55.165673 197.036219 6.851491 17.072873 17.836218 31.930182 26.270255 48.165236 24.576 47.327418 8.098909 43.119709 8.322327 61.142109 0.223418 21.113018 5.5296 59.559564 7.763782 69.911273 1.787345 11.301236 10.053818 21.410909 24.836655 21.410909 170.281891 0 173.111855 10.519273 182.383709-9.681455 5.455127-9.216 3.500218-15.602036 3.500218-71.866182 0-26.903273-27.629382-3.388509 23.216873-72.573672 12.958255-17.6128 25.786182-34.6112 34.2016-54.942255a151.868509 151.868509 0 0 0-8.3968-133.473745c-49.394036-86.462836-167.489164-102.958545-246.932946-55.109818z m145.724509 347.5456c-36.882618-1.508073-73.821091-1.861818-110.759563-1.936291a466.944 466.944 0 0 1-1.992146-17.110109c37.701818-0.707491 75.217455 1.098473 112.751709 4.859346v14.187054z m46.787491-150.434909c-15.080727 15.750982-37.739055 39.917382-50.864873 83.595637a1045.615709 1045.615709 0 0 0-26.996363-2.215564c0.093091-10.370327-5.771636-31.222691 4.282182-70.190545 0.316509-1.210182 0.446836-2.345891 0.558545-3.462982l27.014982-27.014982c18.245818-18.245818-9.402182-45.949673-27.648-27.666618l-13.293382 13.256145c-4.040145-6.795636-8.415418-13.405091-13.405091-19.791127-12.418327-15.9744-46.917818 2.8672-27.666618 27.666618 6.628073 8.508509 11.561891 18.562327 16.384 28.299636a212.973382 212.973382 0 0 0-4.784873 77.097891 887.6032 887.6032 0 0 0-41.108945-0.335127c-2.4576-28.001745-13.535418-47.159855-24.259491-63.301818-6.497745-10.556509-74.807855-113.477818 23.198254-172.534691 54.774691-33.010036 119.901091-14.093964 162.816 27.368727 51.516509 69.0176 4.207709 119.863855-4.226327 129.210182zM344.994909 369.701236c-22.621091-0.167564-45.111855-2.048-67.602618-4.096-23.700945-2.159709-23.496145 34.741527 0 36.864 22.509382 2.048 44.981527 3.947055 67.584 4.114619 23.794036 0.148945 23.775418-36.733673 0-36.882619zM451.062691 219.024291c-13.088582-19.623564-26.381964-39.098182-41.816436-56.990255-15.546182-18.059636-41.518545 8.154764-26.065455 26.065455 13.367855 15.527564 24.687709 32.525964 36.026182 49.542982 13.144436 19.679418 45.093236 1.2288 31.837091-18.618182zM684.590545 227.383855c9.755927-15.583418 19.530473-31.166836 28.690619-47.104 11.8784-20.666182-19.977309-39.228509-31.837091-18.618182a1475.528145 1475.528145 0 0 1-28.672 47.104c-12.660364 20.256582 19.269818 38.725818 31.837091 18.618182zM776.061673 383.3856a394.817164 394.817164 0 0 0 67.919127-26.437818c21.336436-10.537891 2.625164-42.319127-18.599564-31.837091a341.736727 341.736727 0 0 1-59.112727 22.714182c-22.881745 6.404655-13.144436 41.984 9.793164 35.560727z" p-id="1087" data-spm-anchor-id="a313x.manage_type_myprojects.0.i1.c15d3a81uAazad" class="selected" fill="#707070"></path></svg>