<?xml version="1.0" standalone="no"?><!DOCTYPE svg PUBLIC "-//W3C//DTD SVG 1.1//EN" "http://www.w3.org/Graphics/SVG/1.1/DTD/svg11.dtd"><svg t="1700055235263" class="icon" viewBox="0 0 1024 1024" version="1.1" xmlns="http://www.w3.org/2000/svg" p-id="1214" data-spm-anchor-id="a313x.manage_type_myprojects.0.i3.c15d3a81hjNl2C" xmlns:xlink="http://www.w3.org/1999/xlink" width="200" height="200"><path d="M506.112 721.92c-14.336 0-28.928-3.328-41.984-9.984L63.744 514.304c-10.24-5.12-16.896-15.36-17.152-26.624s5.632-22.016 15.616-27.648l225.024-126.976L317.44 386.56l-174.336 98.304 348.16 171.776s0.256 0 0.256 0.256c8.96 4.608 19.712 4.608 28.672 0 0 0 0.256 0 0.256-0.256l353.024-175.872-175.104-100.352 30.464-53.248 225.024 128.768c9.728 5.632 15.872 16.128 15.36 27.648s-6.912 21.504-16.896 26.624L548.352 711.68c-13.312 6.912-27.904 10.24-42.24 10.24z" fill="#707070" p-id="1215" data-spm-anchor-id="a313x.manage_type_myprojects.0.i1.c15d3a81hjNl2C" class=""></path><path d="M507.904 972.8c-15.616 0-31.488-3.584-45.568-11.008l-396.8-202.24c-9.984-5.12-16.64-15.36-16.896-26.624s5.888-21.76 15.616-27.392L289.28 578.56l30.208 53.504-175.104 98.816 345.856 176.128c11.264 5.632 24.576 5.632 35.584 0L876.288 727.04l-175.872-100.864 30.464-53.248 225.024 128.768c9.728 5.632 15.616 16.128 15.36 27.392-0.256 11.264-6.656 21.504-16.64 26.624l-400.896 206.08c-14.08 7.424-29.952 11.008-45.824 11.008z" fill="#707070" p-id="1216" data-spm-anchor-id="a313x.manage_type_myprojects.0.i2.c15d3a81hjNl2C" class="selected"></path><path d="M505.856 477.952c-12.288 0-24.32-2.304-35.84-7.168L67.584 306.176c-11.264-4.608-18.944-15.616-18.944-27.904s6.912-23.552 17.92-28.672L466.688 66.56c26.368-12.032 56.32-12.032 82.688-0.256l398.08 178.944c11.264 5.12 18.176 16.128 18.176 28.416s-7.68 23.296-18.944 27.904l-404.224 169.216c-11.776 4.864-24.064 7.168-36.608 7.168zM156.416 276.224l336.64 137.984c8.192 3.328 17.408 3.328 25.6 0L857.6 272.384 524.288 122.112c-10.24-4.608-21.76-4.608-32 0L156.416 276.224z" fill="#2c2c2c" p-id="1217" data-spm-anchor-id="a313x.manage_type_myprojects.0.i0.c15d3a81hjNl2C" class=""></path></svg>